<svg width="16" height="16" viewBox="0 0 16 16" fill="none" xmlns="http://www.w3.org/2000/svg">
<path d="M5.05977 14.2949H0.610384V13.299L1.97572 12.8975V4.23964L0.610384 3.82201V2.82612H5.05977V3.82201L3.71049 4.23964V12.8975L5.05977 13.299V14.2949ZM15.6052 8.44808C15.6052 10.3863 15.0698 11.848 13.9989 12.8332C12.9388 13.8077 11.4503 14.2949 9.53349 14.2949H6.32094V2.82612H9.87081C11.038 2.82612 12.05 3.04029 12.9067 3.46863C13.7633 3.89697 14.4273 4.52877 14.8984 5.36403C15.3696 6.18859 15.6052 7.2166 15.6052 8.44808ZM13.7901 8.49627C13.7901 7.05062 13.4367 5.99048 12.73 5.31585C12.0339 4.6305 11.0434 4.28783 9.75837 4.28783H8.05572V12.8332H9.45318C12.3445 12.8332 13.7901 11.3876 13.7901 8.49627Z" fill="#BFBFBF"/>
</svg>
