<svg width="16" height="16" viewBox="0 0 16 16" fill="none" xmlns="http://www.w3.org/2000/svg">
<path d="M7.99883 9.72041C7.07717 9.72041 6.1762 9.44711 5.40987 8.93506C4.64353 8.42301 4.04626 7.69516 3.69356 6.84365C3.34085 5.99215 3.24861 5.05522 3.42842 4.15127C3.60823 3.24732 4.052 2.41695 4.70371 1.76524C5.35543 1.11352 6.1858 0.669752 7.08975 0.489945C7.9937 0.310138 8.93063 0.402377 9.78213 0.755081C10.6336 1.10779 11.3615 1.70506 11.8735 2.47139C12.3856 3.23772 12.6589 4.13869 12.6589 5.06035C12.6578 6.29594 12.1665 7.48061 11.2928 8.3543C10.4191 9.22799 9.23442 9.71935 7.99883 9.72041ZM7.99883 2.00039C7.39362 2.00039 6.80205 2.17988 6.29883 2.51612C5.79562 2.85235 5.40338 3.33022 5.17178 3.88936C4.94018 4.4485 4.87959 5.06375 4.99766 5.65733C5.11573 6.25091 5.40721 6.79617 5.83516 7.22412C6.26311 7.65207 6.80828 7.94355 7.40186 8.06162C7.99544 8.17969 8.61069 8.11911 9.16983 7.8875C9.72897 7.6559 10.2069 7.26367 10.5432 6.76045C10.8794 6.25724 11.0589 5.66557 11.0589 5.06035C11.0578 4.24912 10.7351 3.47149 10.1614 2.89785C9.5878 2.32422 8.81007 2.00145 7.99883 2.00039Z" fill="#BFBFBF"/>
<path d="M14.7994 15.6011C14.5872 15.6011 14.3838 15.5168 14.2338 15.3668C14.0838 15.2168 13.9994 15.0132 13.9994 14.8011C13.9984 13.4534 13.4623 12.1613 12.509 11.2087C11.5557 10.2561 10.2631 9.72109 8.91543 9.72109H7.07949C5.73252 9.72215 4.44093 10.2577 3.48848 11.2102C2.53602 12.1626 2.00047 13.4541 1.99941 14.8011C1.99941 15.0132 1.91517 15.2168 1.76514 15.3668C1.61511 15.5168 1.41159 15.6011 1.19941 15.6011C0.987241 15.6011 0.783818 15.5168 0.633789 15.3668C0.48376 15.2168 0.399414 15.0132 0.399414 14.8011C0.401531 13.0301 1.10602 11.3323 2.3583 10.08C3.61058 8.8277 5.3085 8.12321 7.07949 8.12109H8.93145C10.7028 8.12321 12.4011 8.82752 13.654 10.0797C14.9069 11.3319 15.6123 13.0297 15.6154 14.8011C15.6154 14.9075 15.5942 15.0128 15.553 15.1109C15.5118 15.2091 15.4515 15.298 15.3755 15.3725C15.2995 15.447 15.2095 15.5056 15.1105 15.5448C15.0116 15.5841 14.9058 15.6032 14.7994 15.6011Z" fill="#BFBFBF"/>
</svg>
