<svg width="17" height="16" viewBox="0 0 17 16" fill="none" xmlns="http://www.w3.org/2000/svg">
<path d="M14.9043 15.4748H2.9043C2.37386 15.4748 1.86511 15.2641 1.49004 14.8891C1.11497 14.514 0.904297 14.0052 0.904297 13.4748V3.79883C0.904297 3.2684 1.11497 2.75964 1.49004 2.38457C1.86511 2.0095 2.37386 1.79883 2.9043 1.79883H11.7043C11.9165 1.79883 12.12 1.88308 12.27 2.03311C12.42 2.18313 12.5043 2.38665 12.5043 2.59883C12.5043 2.811 12.42 3.01452 12.27 3.16455C12.12 3.31458 11.9165 3.39883 11.7043 3.39883H2.9043C2.79821 3.39883 2.6965 3.441 2.62148 3.51602C2.54647 3.59103 2.5043 3.69274 2.5043 3.79883V13.4748C2.5043 13.5809 2.54647 13.6827 2.62148 13.7577C2.6965 13.8327 2.79821 13.8748 2.9043 13.8748H14.9043C15.0104 13.8748 15.1121 13.8327 15.1871 13.7577C15.2621 13.6827 15.3043 13.5809 15.3043 13.4748V3.79883C15.3043 3.69274 15.2621 3.59103 15.1871 3.51602C15.1121 3.441 15.0104 3.39883 14.9043 3.39883H14.2283C14.0161 3.39883 13.8126 3.31458 13.6626 3.16455C13.5126 3.01452 13.4283 2.811 13.4283 2.59883C13.4283 2.38665 13.5126 2.18313 13.6626 2.03311C13.8126 1.88308 14.0161 1.79883 14.2283 1.79883H14.9043C15.4347 1.79883 15.9435 2.0095 16.3186 2.38457C16.6936 2.75964 16.9043 3.2684 16.9043 3.79883V13.4748C16.9043 14.0052 16.6936 14.514 16.3186 14.8891C15.9435 15.2641 15.4347 15.4748 14.9043 15.4748Z" fill="#BFBFBF"/>
<path d="M12.7758 1.13398C12.7758 0.692157 12.4176 0.333984 11.9758 0.333984C11.534 0.333984 11.1758 0.692157 11.1758 1.13398V4.146C11.1758 4.58782 11.534 4.946 11.9758 4.946C12.4176 4.946 12.7758 4.58782 12.7758 4.146V1.13398Z" fill="#BFBFBF"/>
<path d="M6.63223 1.13398C6.63223 0.692157 6.27405 0.333984 5.83223 0.333984C5.3904 0.333984 5.03223 0.692157 5.03223 1.13398V4.146C5.03223 4.58782 5.3904 4.946 5.83223 4.946C6.27405 4.946 6.63223 4.58782 6.63223 4.146V1.13398Z" fill="#BFBFBF"/>
<path d="M5.83223 8.57266C5.62005 8.57266 5.41653 8.48841 5.2665 8.33838C5.11647 8.18835 5.03223 7.98483 5.03223 7.77266C5.03223 7.56048 5.11647 7.35706 5.2665 7.20703C5.41653 7.057 5.62005 6.97266 5.83223 6.97266C6.0444 6.97266 6.24782 7.057 6.39785 7.20703C6.54788 7.35706 6.63223 7.56048 6.63223 7.77266C6.63223 7.98483 6.54788 8.18835 6.39785 8.33838C6.24782 8.48841 6.0444 8.57266 5.83223 8.57266Z" fill="#BFBFBF"/>
<path d="M5.83223 11.6938C5.62005 11.6938 5.41653 11.6095 5.2665 11.4595C5.11647 11.3094 5.03223 11.1059 5.03223 10.8938C5.03223 10.6816 5.11647 10.4781 5.2665 10.328C5.41653 10.178 5.62005 10.0938 5.83223 10.0938C6.0444 10.0938 6.24782 10.178 6.39785 10.328C6.54788 10.4781 6.63223 10.6816 6.63223 10.8938C6.63223 11.1059 6.54788 11.3094 6.39785 11.4595C6.24782 11.6095 6.0444 11.6938 5.83223 11.6938Z" fill="#BFBFBF"/>
<path d="M8.90048 8.5771C8.6959 8.57525 8.49974 8.49507 8.35244 8.35307L8.33252 8.33315C8.19309 8.18223 8.11705 7.98342 8.12021 7.77798C8.12337 7.57253 8.20541 7.3762 8.34941 7.22964C8.49341 7.08307 8.68829 6.99746 8.89365 6.99067C9.099 6.98388 9.29907 7.05638 9.45244 7.19311C9.56991 7.30309 9.65149 7.44592 9.68652 7.60298C9.72155 7.76004 9.70844 7.92401 9.64882 8.07348C9.58921 8.22295 9.48594 8.35102 9.35244 8.44087C9.21893 8.53071 9.0614 8.57816 8.90048 8.5771Z" fill="#BFBFBF"/>
<path d="M8.89979 11.6966C8.69665 11.6973 8.50129 11.6183 8.35574 11.4765V11.4565C8.20351 11.3085 8.11636 11.1062 8.11336 10.8939C8.11036 10.6816 8.19184 10.4768 8.33983 10.3246C8.48782 10.1724 8.69023 10.0851 8.90252 10.0821C9.11481 10.0791 9.31953 10.1606 9.47176 10.3086C9.54894 10.3814 9.61084 10.4689 9.65389 10.5659C9.69694 10.6629 9.72031 10.7674 9.72254 10.8735C9.72478 10.9796 9.7059 11.0851 9.66698 11.1839C9.62805 11.2826 9.56983 11.3726 9.49578 11.4486C9.41912 11.5291 9.32652 11.5926 9.22391 11.6353C9.12129 11.678 9.01091 11.6989 8.89979 11.6966Z" fill="#BFBFBF"/>
<path d="M11.9758 8.5726C11.7636 8.5726 11.5602 8.48836 11.4102 8.33833C11.2601 8.1883 11.1758 7.98478 11.1758 7.7726C11.1758 7.61438 11.2227 7.45973 11.3106 7.32817C11.3985 7.19661 11.5234 7.09409 11.6696 7.03354C11.8158 6.97299 11.9767 6.95716 12.1318 6.98803C12.287 7.0189 12.4296 7.0951 12.5415 7.20698C12.6534 7.31886 12.7296 7.46136 12.7604 7.61655C12.7913 7.77173 12.7755 7.93258 12.7149 8.07876C12.6544 8.22494 12.5518 8.34993 12.4202 8.43784C12.2887 8.52574 12.134 8.5726 11.9758 8.5726Z" fill="#BFBFBF"/>
<path d="M11.9758 11.6938C11.7636 11.6938 11.5602 11.6095 11.4102 11.4595C11.2601 11.3095 11.1758 11.1059 11.1758 10.8938C11.1758 10.7355 11.2227 10.5809 11.3106 10.4493C11.3985 10.3178 11.5234 10.2153 11.6696 10.1547C11.8158 10.0942 11.9767 10.0782 12.1318 10.1091C12.287 10.14 12.4296 10.2162 12.5415 10.328C12.6534 10.4399 12.7296 10.5825 12.7604 10.7377C12.7913 10.8929 12.7755 11.0537 12.7149 11.1999C12.6544 11.3461 12.5518 11.471 12.4202 11.5589C12.2887 11.6468 12.134 11.6938 11.9758 11.6938Z" fill="#BFBFBF"/>
</svg>
