<svg width="16" height="16" viewBox="0 0 16 16" fill="none" xmlns="http://www.w3.org/2000/svg">
<path d="M7.99998 2.43849C4.7453 2.43849 1.71321 4.43849 0.091835 7.63849C-0.00987202 7.84005 -0.0279096 8.07416 0.0417724 8.28907C0.111454 8.50399 0.263074 8.68221 0.463327 8.78458C0.663579 8.88695 0.896063 8.90491 1.10958 8.83478C1.3231 8.76464 1.50016 8.61212 1.60186 8.41056C2.93314 5.78656 5.38511 4.1545 7.99998 4.1545C10.6148 4.1545 13.0668 5.78656 14.3981 8.41056C14.4485 8.51036 14.5178 8.59908 14.6023 8.67189C14.6868 8.74469 14.7847 8.80005 14.8904 8.83478C14.9961 8.8695 15.1076 8.88306 15.2185 8.87442C15.3294 8.86579 15.4375 8.83527 15.5366 8.78458C15.6358 8.73389 15.724 8.66394 15.7964 8.57892C15.8687 8.49389 15.9237 8.39549 15.9582 8.28907C15.9927 8.18266 16.0061 8.07041 15.9975 7.9588C15.9889 7.84719 15.9585 7.73829 15.9081 7.63849C14.2828 4.42649 11.2745 2.43849 7.99998 2.43849Z" fill="#BFBFBF"/>
<path d="M0.847375 7.15977C0.702726 7.16062 0.560651 7.19861 0.434649 7.27012C0.308648 7.34163 0.202877 7.44422 0.127288 7.56836C0.0516994 7.6925 0.0088337 7.83402 0.00271407 7.97949C-0.00340556 8.12496 0.0274684 8.26948 0.092361 8.39961C1.71374 11.5996 4.74583 13.5996 8.0005 13.5996C8.29787 13.5997 8.59501 13.5838 8.89067 13.5518C9.11349 13.5266 9.31729 13.4135 9.45736 13.2373C9.59743 13.0611 9.66228 12.8361 9.63772 12.6117C9.61076 12.388 9.49804 12.1838 9.32357 12.0426C9.14911 11.9013 8.92677 11.8342 8.7039 11.8557C8.47045 11.8832 8.23555 11.8966 8.0005 11.8957C5.38564 11.8957 2.93367 10.2636 1.60239 7.63965C1.53313 7.49704 1.42584 7.37676 1.2925 7.29199C1.15917 7.20723 1.00507 7.16144 0.847375 7.15977Z" fill="#BFBFBF"/>
<path d="M15.152 7.1594C14.9954 7.1595 14.842 7.20315 14.7087 7.28577C14.5754 7.36839 14.4675 7.48671 14.397 7.62737C13.5475 9.38541 12.0721 10.7575 10.264 11.4713C10.0532 11.5503 9.8822 11.7105 9.78867 11.9164C9.69514 12.1223 9.68677 12.3572 9.76529 12.5694C9.84381 12.7815 10.0028 12.9535 10.2074 13.0477C10.412 13.1418 10.6453 13.1503 10.8561 13.0713C13.0627 12.2074 14.8657 10.5396 15.907 8.39924C15.9719 8.26912 16.0027 8.1246 15.9966 7.97913C15.9905 7.83366 15.9476 7.69213 15.8721 7.56799C15.7965 7.44386 15.6907 7.34126 15.5647 7.26975C15.4387 7.19824 15.2966 7.16026 15.152 7.1594Z" fill="#BFBFBF"/>
<path d="M8.00053 5.2028C7.45035 5.2028 6.91255 5.36701 6.45509 5.67467C5.99763 5.98234 5.641 6.41968 5.43046 6.93131C5.21991 7.44295 5.16488 8.00594 5.27222 8.54909C5.37955 9.09223 5.6445 9.59109 6.03354 9.98268C6.42258 10.3743 6.91819 10.6409 7.4578 10.7489C7.99741 10.8569 8.55674 10.8016 9.06504 10.5897C9.57334 10.3778 10.0078 10.0189 10.3135 9.55846C10.6192 9.098 10.7823 8.55659 10.7823 8.0028C10.7823 7.26019 10.4892 6.54802 9.96753 6.02292C9.44584 5.49782 8.7383 5.2028 8.00053 5.2028ZM8.00053 9.2028C7.76474 9.2028 7.53423 9.13231 7.33817 9.00045C7.14212 8.8686 6.98929 8.68125 6.89906 8.46198C6.80882 8.24271 6.78524 8.0014 6.83124 7.76862C6.87724 7.53584 6.99079 7.32199 7.15752 7.15417C7.32425 6.98634 7.53671 6.87215 7.76797 6.82585C7.99923 6.77954 8.23888 6.80338 8.45672 6.89421C8.67457 6.98503 8.86079 7.13866 8.99179 7.336C9.12279 7.53334 9.19272 7.76546 9.19272 8.0028C9.19536 8.16206 9.16646 8.32032 9.10773 8.46823C9.049 8.61614 8.96159 8.75076 8.85063 8.86432C8.73966 8.97788 8.60733 9.068 8.46138 9.12956C8.31543 9.19111 8.15878 9.22274 8.00053 9.22272V9.2028Z" fill="#BFBFBF"/>
</svg>
