<svg width="16" height="16" viewBox="0 0 16 16" fill="none" xmlns="http://www.w3.org/2000/svg">
<path d="M14 15.1912H3.2C2.35131 15.1912 1.53732 14.854 0.937207 14.2539C0.337091 13.6538 0 12.8399 0 11.9912V3.93926C0 3.21256 0.288689 2.51561 0.802539 2.00176C1.31639 1.48791 2.01335 1.19922 2.74004 1.19922H13.6C14.2365 1.19922 14.847 1.45206 15.2971 1.90215C15.7472 2.35224 16 2.9627 16 3.59922V3.86719C16 4.07936 15.9158 4.28288 15.7657 4.43291C15.6157 4.58294 15.4122 4.66719 15.2 4.66719C14.9878 4.66719 14.7843 4.58294 14.6343 4.43291C14.4842 4.28288 14.4 4.07936 14.4 3.86719V3.59121C14.4 3.37904 14.3158 3.17552 14.1657 3.02549C14.0157 2.87546 13.8122 2.79121 13.6 2.79121H2.83203C2.51075 2.7911 2.20212 2.91646 1.97197 3.14062C1.74183 3.36479 1.60834 3.67004 1.6 3.99121C1.61236 4.28553 1.73774 4.56371 1.9501 4.76787C2.16246 4.97203 2.44546 5.08644 2.74004 5.08721H13.6C14.2365 5.08721 14.847 5.34005 15.2971 5.79014C15.7472 6.24022 16 6.85069 16 7.48721V13.1912C16 13.7216 15.7893 14.2304 15.4143 14.6055C15.0392 14.9805 14.5304 15.1912 14 15.1912ZM1.6 6.43125V11.9912C1.6 12.4156 1.76859 12.8225 2.06865 13.1226C2.36871 13.4226 2.77565 13.5912 3.2 13.5912H14C14.1061 13.5912 14.2078 13.549 14.2828 13.474C14.3578 13.399 14.4 13.2973 14.4 13.1912V7.47119C14.4 7.25902 14.3158 7.0556 14.1657 6.90557C14.0157 6.75554 13.8122 6.67119 13.6 6.67119H2.74004C2.34676 6.67021 1.95814 6.58573 1.6 6.42324V6.43125Z" fill="#BFBFBF"/>
<path d="M15.1998 12.2492H11.6318C11.1014 12.2492 10.5927 12.0385 10.2176 11.6635C9.84251 11.2884 9.63184 10.7797 9.63184 10.2492V9.78125C9.63184 9.25082 9.84251 8.74216 10.2176 8.36709C10.5927 7.99202 11.1014 7.78125 11.6318 7.78125H15.1998C15.412 7.78125 15.6155 7.8656 15.7655 8.01562C15.9156 8.16565 15.9998 8.36908 15.9998 8.58125V11.4492C15.9998 11.6614 15.9156 11.8649 15.7655 12.0149C15.6155 12.165 15.412 12.2492 15.1998 12.2492ZM11.6318 9.38125C11.5257 9.38125 11.4239 9.42342 11.3489 9.49844C11.2739 9.57345 11.2318 9.67516 11.2318 9.78125V10.2492C11.2318 10.3553 11.2739 10.4571 11.3489 10.5321C11.4239 10.6071 11.5257 10.6492 11.6318 10.6492H14.3998V9.38125H11.6318Z" fill="#BFBFBF"/>
</svg>
