<svg width="16" height="16" viewBox="0 0 16 16" fill="none" xmlns="http://www.w3.org/2000/svg">
<path d="M7.99766 16C6.14674 15.9994 4.35329 15.3571 2.92288 14.1824C1.49247 13.0077 0.513625 11.3734 0.153169 9.55791C-0.207286 7.74242 0.0729812 5.85813 0.946135 4.2261C1.81929 2.59406 3.23129 1.31525 4.94162 0.607655C6.65196 -0.0999428 8.5547 -0.192554 10.3257 0.345547C12.0967 0.883649 13.6263 2.01922 14.6539 3.55872C15.6815 5.09821 16.1434 6.94636 15.961 8.78828C15.7786 10.6302 14.9631 12.3519 13.6536 13.6599C12.9115 14.4034 12.0298 14.9928 11.0592 15.3944C10.0885 15.796 9.0481 16.0018 7.99766 16ZM7.99766 1.60003C6.51689 1.60027 5.08198 2.11391 3.93753 3.05354C2.79307 3.99318 2.00993 5.30064 1.72142 6.75304C1.43292 8.20544 1.65697 9.71293 2.35541 11.0186C3.05384 12.3244 4.18342 13.3475 5.55168 13.9137C6.91994 14.4798 8.44215 14.554 9.85898 14.1236C11.2758 13.6932 12.4996 12.7847 13.3217 11.5531C14.1438 10.3215 14.5134 8.84301 14.3676 7.36944C14.2217 5.89587 13.5693 4.51848 12.5217 3.472C11.3201 2.27599 9.69302 1.60555 7.99766 1.60794V1.60003Z" fill="#BFBFBF"/>
<path d="M8.60872 12.3457C8.49702 12.4587 8.35416 12.5359 8.19841 12.5674C8.04267 12.5989 7.88102 12.5834 7.73417 12.5227C7.58731 12.462 7.46184 12.3589 7.37378 12.2267C7.28571 12.0944 7.23909 11.9389 7.23975 11.78L7.23501 6.96377C7.23501 6.75148 7.31934 6.54785 7.46945 6.39774C7.61956 6.24763 7.82319 6.1633 8.03548 6.1633C8.24777 6.1633 8.45133 6.24769 8.60144 6.39781C8.75155 6.54792 8.83594 6.75148 8.83594 6.96377L8.8406 11.78C8.84124 11.9919 8.75788 12.1953 8.60872 12.3457Z" fill="#BFBFBF"/>
<path d="M8.60073 4.99886C8.48903 5.11187 8.34616 5.189 8.19042 5.22052C8.03468 5.25204 7.87303 5.23653 7.72618 5.17584C7.57932 5.11516 7.45385 5.01208 7.36579 4.87981C7.27772 4.74754 7.2311 4.59201 7.23176 4.43311L7.23518 4.1306C7.23518 3.91831 7.3195 3.71468 7.46961 3.56457C7.61972 3.41446 7.82335 3.33013 8.03564 3.33013C8.24793 3.33013 8.45149 3.41453 8.6016 3.56464C8.75171 3.71475 8.8361 3.91831 8.8361 4.1306L8.83261 4.43318C8.83325 4.64501 8.74989 4.84844 8.60073 4.99886Z" fill="#BFBFBF"/>
</svg>
