<svg width="16" height="16" viewBox="0 0 16 16" fill="none" xmlns="http://www.w3.org/2000/svg">
<path d="M7.62202 0.967732L7.6218 0.967395L1.00001 6.37229H0.846496V6.37266V14.5118V14.5118C0.846539 14.8523 1.14788 15.1536 1.48836 15.1537H1.48838H5.88378H5.8838C6.22428 15.1536 6.52562 14.8523 6.52567 14.5118V14.5118V9.61887H9.47449V14.5118V14.5118C9.47454 14.8523 9.77588 15.1536 10.1164 15.1537H10.1164H14.5118H14.5118C14.8523 15.1536 15.1536 14.8523 15.1537 14.5118V14.5118V6.37229C15.1537 6.17416 15.0588 5.97899 14.8996 5.85824L14.8989 5.85776L8.38725 0.974059L8.38753 0.973687L8.37743 0.967278C8.25148 0.887294 8.1226 0.844392 7.98922 0.846568C7.85635 0.848736 7.73456 0.895391 7.62202 0.967732ZM13.8699 6.69322V13.8699H10.7583V8.97699V8.97697C10.7582 8.63651 10.4569 8.33514 10.1164 8.33512H5.88378H5.88377C5.54328 8.33514 5.24193 8.63651 5.24189 8.97697V8.97699V13.8699H2.13027V6.69322L8.00008 2.29094L13.8699 6.69322Z" fill="#BFBFBF" stroke="#BFBFBF" stroke-width="0.307021"/>
</svg>
