<svg width="20" height="21" viewBox="0 0 20 21" fill="none" xmlns="http://www.w3.org/2000/svg">
<path d="M3.19531 20.0059C2.9301 20.0059 2.6757 19.9005 2.48816 19.713C2.30062 19.5254 2.19531 19.2711 2.19531 19.0059V4.00586C2.19531 2.94499 2.6168 1.92757 3.36694 1.17743C4.11709 0.427284 5.13445 0.00585939 6.19531 0.00585939H16.9203C17.0889 0.00583444 17.2549 0.0484612 17.4026 0.129761C17.5503 0.21106 17.675 0.328388 17.7653 0.470856C17.8552 0.613948 17.9075 0.777502 17.9171 0.946259C17.9267 1.11502 17.8934 1.28346 17.8203 1.43585L15.6254 6.06586L17.8203 10.6909C17.8928 10.8431 17.9256 11.0111 17.9158 11.1794C17.9059 11.3477 17.8536 11.5108 17.7638 11.6535C17.674 11.7962 17.5496 11.9139 17.4021 11.9956C17.2546 12.0773 17.0889 12.1204 16.9203 12.1208H6.95032C6.6851 12.1208 6.4307 12.0155 6.24316 11.828C6.05563 11.6404 5.95032 11.3861 5.95032 11.1208C5.95032 10.8556 6.05563 10.6013 6.24316 10.4138C6.4307 10.2262 6.6851 10.1208 6.95032 10.1208H15.3353L13.6154 6.49084C13.5522 6.35719 13.5193 6.2112 13.5193 6.06335C13.5193 5.91551 13.5522 5.76952 13.6154 5.63586L15.3353 2.00586H6.19531C5.66488 2.00586 5.1562 2.21657 4.78113 2.59164C4.40606 2.96672 4.19531 3.47543 4.19531 4.00586V19.0059C4.19531 19.1372 4.1694 19.2672 4.11914 19.3885C4.06889 19.5099 3.99532 19.6201 3.90247 19.713C3.80961 19.8058 3.69933 19.8795 3.578 19.9297C3.45668 19.98 3.32663 20.0059 3.19531 20.0059Z" fill="#DF0E0F"/>
</svg>
