<svg width="20" height="20" viewBox="0 0 20 20" fill="none" xmlns="http://www.w3.org/2000/svg">
<path d="M10.0636 11.3202C9.25499 11.3144 8.47334 11.0288 7.85148 10.5119C7.22961 9.99493 6.80598 9.27861 6.6525 8.48464C6.49902 7.69068 6.62515 6.8681 7.00956 6.15664C7.39396 5.44518 8.01292 4.8887 8.76114 4.58193C9.50936 4.27516 10.3407 4.23694 11.1139 4.47378C11.8871 4.71062 12.5544 5.20794 13.0025 5.88113C13.4505 6.55432 13.6517 7.36183 13.5717 8.16653C13.4917 8.97123 13.1355 9.72351 12.5636 10.2953C12.2356 10.6233 11.8457 10.8828 11.4165 11.0587C10.9874 11.2347 10.5275 11.3236 10.0636 11.3202ZM10.0636 6.32022C9.76715 6.32048 9.47742 6.40867 9.23099 6.57351C8.98456 6.73835 8.79253 6.97244 8.67911 7.24636C8.56569 7.52029 8.53602 7.82178 8.59379 8.11257C8.65155 8.40337 8.79418 8.6705 9.0037 8.88027C9.29067 9.15211 9.67092 9.30361 10.0662 9.30361C10.4615 9.30361 10.8417 9.15211 11.1287 8.88027C11.3385 8.6702 11.4812 8.40262 11.5389 8.11135C11.5965 7.82009 11.5663 7.5183 11.4523 7.24417C11.3383 6.97004 11.1454 6.7359 10.8982 6.57144C10.651 6.40698 10.3605 6.31949 10.0636 6.32022Z" fill="#DF0E0F"/>
<path d="M10.0687 20C9.8516 20.0011 9.64001 19.9316 9.46592 19.8019C9.29183 19.6722 9.16472 19.4893 9.10374 19.2809C9.04275 19.0725 9.05124 18.85 9.12791 18.6469C9.20458 18.4437 9.34533 18.2711 9.52879 18.155C9.58879 18.115 15.8838 14.02 16.1288 8.21497C16.1481 7.40614 16.0055 6.60169 15.7095 5.84875C15.4134 5.09582 14.9698 4.4096 14.4048 3.83057C13.8397 3.25154 13.1645 2.7913 12.419 2.47693C11.6736 2.16256 10.8728 2.00044 10.0637 2C9.79848 2 9.5442 1.89469 9.35667 1.70715C9.16913 1.51962 9.0637 1.26522 9.0637 1C9.0637 0.734784 9.16913 0.480383 9.35667 0.292847C9.5442 0.10531 9.79848 0 10.0637 0C11.1425 0.000210739 12.2103 0.216866 13.2038 0.637085C14.1974 1.0573 15.0965 1.67251 15.848 2.44641C16.5995 3.22031 17.1882 4.13713 17.5791 5.14258C17.97 6.14802 18.1552 7.22175 18.1238 8.30005C17.8388 15.155 10.8988 19.655 10.6238 19.84C10.4585 19.9467 10.2654 20.0024 10.0687 20Z" fill="#DF0E0F"/>
<path d="M10.0634 19.9988C9.8731 20 9.68689 19.9442 9.52848 19.8388C9.33348 19.7188 4.7434 16.7538 2.8234 11.9988C2.7084 11.7038 2.59845 11.3988 2.50345 11.0938C2.43941 10.8458 2.47295 10.5827 2.5972 10.3587C2.72146 10.1347 2.92698 9.96688 3.1713 9.88993C3.41562 9.81298 3.68012 9.83275 3.91031 9.9451C4.14051 10.0575 4.31884 10.2539 4.40848 10.4938C4.48848 10.7488 4.5785 10.9938 4.6785 11.2488C6.3585 15.3988 10.5584 18.1288 10.6034 18.1538C10.7869 18.2699 10.9276 18.4425 11.0043 18.6457C11.081 18.8488 11.0895 19.0713 11.0285 19.2797C10.9675 19.4881 10.8403 19.671 10.6662 19.8007C10.4921 19.9304 10.2805 20 10.0634 19.9988Z" fill="#DF0E0F"/>
<path d="M3.00342 9.26001C2.745 9.26022 2.49649 9.16029 2.31007 8.98132C2.12364 8.80235 2.01376 8.55827 2.00342 8.30005C1.97199 7.22175 2.15721 6.14802 2.5481 5.14258C2.939 4.13713 3.52766 3.22031 4.27918 2.44641C5.03071 1.67251 5.9298 1.0573 6.92335 0.637085C7.91689 0.216866 8.9846 0.000210739 10.0634 0C10.3286 0 10.583 0.10531 10.7705 0.292847C10.9581 0.480383 11.0634 0.734784 11.0634 1C11.0634 1.26522 10.9581 1.51962 10.7705 1.70715C10.583 1.89469 10.3286 2 10.0634 2C9.25473 2.0011 8.4545 2.16373 7.7096 2.47839C6.96471 2.79306 6.29024 3.25343 5.72571 3.8324C5.16119 4.41136 4.71801 5.09725 4.42225 5.84985C4.12649 6.60246 3.98411 7.40656 4.00342 8.21497C4.00947 8.34632 3.98958 8.47755 3.94483 8.6012C3.90009 8.72484 3.83139 8.83848 3.74268 8.93555C3.65398 9.03261 3.54699 9.1112 3.42786 9.16687C3.30874 9.22254 3.17983 9.25423 3.04847 9.26001H3.00342Z" fill="#DF0E0F"/>
</svg>
