<svg width="20" height="20" viewBox="0 0 20 20" fill="none" xmlns="http://www.w3.org/2000/svg">
<path d="M10.0631 11.32C9.25411 11.3084 8.47416 11.0168 7.85586 10.495C7.23755 9.9731 6.81909 9.25313 6.67177 8.45755C6.52446 7.66197 6.65741 6.83993 7.04787 6.13127C7.43833 5.42262 8.06226 4.87114 8.8135 4.57064C9.56473 4.27015 10.3969 4.23921 11.1684 4.4831C11.9398 4.72698 12.6029 5.23061 13.0449 5.90831C13.4869 6.58602 13.6805 7.39592 13.5927 8.20024C13.5048 9.00457 13.141 9.75362 12.5631 10.32C12.2331 10.6434 11.8423 10.8983 11.4132 11.07C10.9841 11.2416 10.5252 11.3266 10.0631 11.32ZM10.0631 6.31996C9.66531 6.31996 9.28389 6.47799 9.00258 6.7593C8.72128 7.0406 8.56313 7.42213 8.56313 7.81996C8.56348 8.21765 8.72181 8.59892 9.00319 8.87995C9.29017 9.15179 9.67041 9.30329 10.0657 9.30329C10.461 9.30329 10.8412 9.15179 11.1282 8.87995C11.4091 8.5987 11.5669 8.21746 11.5669 7.81996C11.5669 7.42246 11.4091 7.0412 11.1282 6.75995C10.9884 6.62003 10.8224 6.50912 10.6397 6.4336C10.4569 6.35809 10.2609 6.31947 10.0631 6.31996Z" fill="#DF0E0F"/>
<path d="M10.0687 20C9.8516 20.0011 9.64001 19.9316 9.46592 19.8019C9.29183 19.6721 9.16472 19.4893 9.10374 19.2809C9.04275 19.0725 9.05124 18.85 9.12791 18.6469C9.20458 18.4437 9.34533 18.2711 9.52879 18.155C9.58879 18.115 15.8838 14.02 16.1288 8.21999C16.1488 7.41076 16.0067 6.6057 15.7109 5.85218C15.4152 5.09866 14.9717 4.41192 14.4066 3.83235C13.8415 3.25278 13.1661 2.79211 12.4203 2.47742C11.6745 2.16274 10.8732 2.00042 10.0637 2C9.79848 2 9.54421 1.89464 9.35667 1.70711C9.16913 1.51957 9.0637 1.26522 9.0637 1C9.0637 0.734784 9.16913 0.480429 9.35667 0.292892C9.54421 0.105356 9.79848 0 10.0637 0C11.1425 0.000210739 12.2103 0.216836 13.2038 0.637054C14.1974 1.05727 15.0965 1.67254 15.848 2.44644C16.5995 3.22035 17.1882 4.13716 17.5791 5.1426C17.97 6.14805 18.1552 7.2217 18.1238 8.3C17.8388 15.16 10.8988 19.655 10.6238 19.845C10.458 19.95 10.2649 20.0039 10.0687 20Z" fill="#DF0E0F"/>
<path d="M10.0636 19.9997C9.87421 19.9998 9.68877 19.946 9.52872 19.8447C9.33372 19.7197 4.74364 16.7547 2.82364 11.9997C2.70864 11.7047 2.59869 11.3997 2.50369 11.0947C2.44392 10.8479 2.48025 10.5876 2.60538 10.3666C2.73051 10.1457 2.935 9.98056 3.1774 9.90485C3.4198 9.82914 3.68202 9.84849 3.91067 9.95897C4.13933 10.0695 4.31739 10.2628 4.40872 10.4997C4.48872 10.7497 4.57874 10.9997 4.67874 11.2497C6.35874 15.4047 10.5587 18.1297 10.6037 18.1547C10.7871 18.2708 10.9279 18.4435 11.0045 18.6466C11.0812 18.8497 11.0897 19.0723 11.0287 19.2806C10.9677 19.489 10.8405 19.6719 10.6664 19.8016C10.4923 19.9313 10.2807 20.0009 10.0636 19.9997Z" fill="#DF0E0F"/>
<path d="M3.00342 9.25999C2.745 9.2602 2.49649 9.16035 2.31007 8.98138C2.12364 8.80241 2.01376 8.55822 2.00342 8.3C1.97199 7.2217 2.15721 6.14805 2.5481 5.1426C2.939 4.13716 3.52766 3.22035 4.27918 2.44644C5.03071 1.67254 5.9298 1.05727 6.92335 0.637054C7.91689 0.216836 8.9846 0.000210739 10.0634 0C10.3286 0 10.583 0.105356 10.7705 0.292892C10.958 0.480429 11.0634 0.734784 11.0634 1C11.0634 1.26522 10.958 1.51957 10.7705 1.70711C10.583 1.89464 10.3286 2 10.0634 2C9.2543 2.00109 8.45361 2.1639 7.70838 2.47888C6.96315 2.79386 6.28848 3.25464 5.72388 3.83414C5.15929 4.41364 4.71624 5.10015 4.42078 5.85334C4.12533 6.60653 3.98343 7.41118 4.00342 8.21999C4.01427 8.48444 3.91986 8.7424 3.74085 8.93734C3.56184 9.13228 3.31287 9.24831 3.04847 9.25999H3.00342Z" fill="#DF0E0F"/>
</svg>
