<svg width="20" height="20" viewBox="0 0 20 20" fill="none" xmlns="http://www.w3.org/2000/svg">
<path d="M10.2626 9.22732C9.35194 9.22831 8.46146 8.95842 7.70383 8.45185C6.94619 7.94527 6.35552 7.22477 6.00655 6.38153C5.65758 5.53829 5.56605 4.61022 5.74347 3.71479C5.9209 2.81937 6.35926 1.99685 7.00322 1.35132C7.64719 0.705783 8.4678 0.266267 9.36105 0.0884077C10.2543 -0.0894519 11.1801 0.00233916 12.0213 0.352155C12.8625 0.701972 13.5812 1.29409 14.0866 2.05356C14.5919 2.81304 14.8611 3.70572 14.8601 4.61864C14.8588 5.84053 14.374 7.01199 13.5121 7.876C12.6502 8.74 11.4816 9.226 10.2626 9.22732ZM10.2626 2.00441C9.74664 2.00343 9.24202 2.1559 8.8125 2.44255C8.38298 2.7292 8.04794 3.13715 7.84979 3.61476C7.65164 4.09236 7.59926 4.61817 7.69932 5.12561C7.79938 5.63305 8.04734 6.09932 8.41186 6.46543C8.77638 6.83153 9.24106 7.08101 9.74708 7.18229C10.2531 7.28357 10.7777 7.2321 11.2546 7.03438C11.7314 6.83667 12.1389 6.50158 12.4257 6.07156C12.7125 5.64154 12.8655 5.1359 12.8655 4.61864C12.8642 3.92657 12.5898 3.26316 12.1021 2.77333C11.6144 2.28349 10.953 2.00706 10.2626 2.00441Z" fill="#DF0E0F"/>
<path d="M10.2619 15.9467C9.99743 15.9467 9.74385 15.8414 9.55682 15.6539C9.36979 15.4664 9.26465 15.2122 9.26465 14.947V8.44893C9.26465 8.18379 9.36979 7.92949 9.55682 7.74201C9.74385 7.55453 9.99743 7.44922 10.2619 7.44922C10.5264 7.44922 10.7801 7.55453 10.9672 7.74201C11.1542 7.92949 11.2592 8.18379 11.2592 8.44893V14.947C11.2592 15.2122 11.1542 15.4664 10.9672 15.6539C10.7801 15.8414 10.5264 15.9467 10.2619 15.9467Z" fill="#DF0E0F"/>
<path d="M10.2624 20.0005C5.63001 20.0005 2 17.8611 2 15.1269C2 13.9573 2.66807 12.8426 3.88475 11.9828C3.99103 11.8994 4.11319 11.8385 4.24364 11.8038C4.37408 11.7691 4.51012 11.7613 4.64367 11.7809C4.77721 11.8004 4.90549 11.847 5.02057 11.9176C5.13565 11.9883 5.2352 12.0817 5.31323 12.1921C5.39126 12.3025 5.44615 12.4276 5.47453 12.5599C5.50291 12.6921 5.50416 12.8288 5.47831 12.9616C5.45245 13.0943 5.39998 13.2205 5.32406 13.3324C5.24815 13.4442 5.15035 13.5395 5.03664 13.6123C4.6477 13.8923 3.99456 14.4521 3.99456 15.1119C3.99456 16.4665 6.67217 17.9861 10.2624 17.9861C13.8526 17.9861 16.5253 16.4865 16.5253 15.1119C16.4848 14.8021 16.3738 14.5057 16.2009 14.2457C16.028 13.9857 15.7978 13.769 15.528 13.6123L15.4733 13.5774C15.2564 13.4256 15.1084 13.1936 15.0622 12.9325C15.0159 12.6715 15.075 12.4027 15.2264 12.1853C15.3778 11.9679 15.6092 11.8196 15.8696 11.7732C16.1301 11.7268 16.3982 11.786 16.615 11.9378L16.6749 11.9778C17.8517 12.8276 18.4999 13.9323 18.4999 15.0869C18.5199 17.8611 14.9147 20.0005 10.2624 20.0005Z" fill="#DF0E0F"/>
</svg>
