<svg width="20" height="21" viewBox="0 0 20 21" fill="none" xmlns="http://www.w3.org/2000/svg">
<path d="M15.08 20C14.9134 20.0012 14.7495 19.958 14.605 19.875L8.55009 16.57L2.50004 19.875C2.34736 19.9632 2.17415 20.0094 1.99784 20.009C1.82154 20.0086 1.64842 19.9616 1.49613 19.8728C1.34385 19.7839 1.21778 19.6564 1.13066 19.5032C1.04353 19.3499 0.998454 19.1763 1.00004 19V3C1.00004 2.20435 1.31609 1.44129 1.8787 0.878678C2.44131 0.316068 3.20439 0 4.00004 0H11.625C11.8903 0 12.1447 0.105356 12.3322 0.292893C12.5197 0.480429 12.625 0.734784 12.625 1C12.625 1.26522 12.5197 1.51957 12.3322 1.70711C12.1447 1.89464 11.8903 2 11.625 2H4.01005C3.74483 2 3.49043 2.10536 3.3029 2.29289C3.11536 2.48043 3.01005 2.73478 3.01005 3V17.315L8.0601 14.555C8.20727 14.4745 8.37232 14.4323 8.54008 14.4323C8.70784 14.4323 8.87289 14.4745 9.02006 14.555L14.07 17.315V10.93C14.07 10.6648 14.1754 10.4104 14.363 10.2229C14.5505 10.0354 14.8048 9.92999 15.07 9.92999C15.3352 9.92999 15.5896 10.0354 15.7771 10.2229C15.9647 10.4104 16.07 10.6648 16.07 10.93V19C16.0689 19.1745 16.0223 19.3457 15.9346 19.4966C15.8469 19.6475 15.7211 19.7728 15.57 19.86C15.4215 19.9482 15.2527 19.9964 15.08 20Z" fill="#DF0E0F"/>
<path d="M15.0801 8.59C14.8149 8.59 14.5606 8.48464 14.373 8.2971C14.1855 8.10957 14.0801 7.85521 14.0801 7.59V1C14.0801 0.734783 14.1855 0.480429 14.373 0.292892C14.5606 0.105356 14.8149 0 15.0801 0C15.3453 0 15.5997 0.105356 15.7872 0.292892C15.9748 0.480429 16.0801 0.734783 16.0801 1V7.59C16.0801 7.85521 15.9748 8.10957 15.7872 8.2971C15.5997 8.48464 15.3453 8.59 15.0801 8.59Z" fill="#DF0E0F"/>
<path d="M18.2656 5.29688H11.7656C11.5004 5.29688 11.246 5.19152 11.0585 5.00398C10.8709 4.81645 10.7656 4.56209 10.7656 4.29688C10.7656 4.03166 10.8709 3.7773 11.0585 3.58977C11.246 3.40223 11.5004 3.29688 11.7656 3.29688H18.2656C18.5308 3.29688 18.7851 3.40223 18.9727 3.58977C19.1602 3.7773 19.2656 4.03166 19.2656 4.29688C19.2656 4.56209 19.1602 4.81645 18.9727 5.00398C18.7851 5.19152 18.5308 5.29688 18.2656 5.29688Z" fill="#DF0E0F"/>
</svg>
