<svg width="20" height="21" viewBox="0 0 20 21" fill="none" xmlns="http://www.w3.org/2000/svg">
<path d="M8.61948 20.0153C8.55148 20.02 8.48329 20.02 8.41529 20.0153C8.28693 19.988 8.16523 19.9354 8.05713 19.8608C7.94904 19.7861 7.8566 19.6908 7.78532 19.5803C7.71404 19.4697 7.66525 19.3461 7.64169 19.2165C7.61814 19.0869 7.62036 18.9539 7.64814 18.8251L8.97314 12.5402H2.99551C2.83361 12.5402 2.67416 12.5005 2.53094 12.4248C2.38773 12.349 2.26511 12.2393 2.17364 12.1052C2.08195 11.9705 2.02453 11.8154 2.00629 11.6533C1.98806 11.4912 2.00959 11.3271 2.06905 11.1752L6.16869 0.675242C6.21235 0.547587 6.28133 0.430221 6.37142 0.330027C6.46152 0.229833 6.5708 0.148873 6.69285 0.0922341C6.8149 0.0355957 6.94713 0.00442184 7.08154 0.000437249C7.21594 -0.00354734 7.34979 0.0197314 7.47496 0.0690408C7.60013 0.11835 7.71406 0.19262 7.80989 0.287302C7.90571 0.381985 7.98148 0.49522 8.03257 0.620066C8.08365 0.744912 8.10897 0.878666 8.10712 1.01362C8.10526 1.14858 8.07624 1.28184 8.02174 1.40522L4.45514 10.5454H10.1787C10.3267 10.5456 10.4727 10.5788 10.6063 10.6428C10.7399 10.7068 10.8575 10.7999 10.9507 10.9152C11.0452 11.031 11.1126 11.1666 11.148 11.312C11.1833 11.4573 11.1858 11.6089 11.155 11.7553L9.571 19.2553C9.51823 19.4697 9.39626 19.6603 9.22415 19.7978C9.05204 19.9353 8.83941 20.0118 8.61948 20.0153Z" fill="#DF0E0F"/>
<path d="M8.61992 20.0168C8.40833 20.0161 8.20249 19.9478 8.03216 19.8218C7.92634 19.7441 7.83679 19.6462 7.76874 19.5337C7.70068 19.4212 7.65547 19.2966 7.63557 19.1665C7.61567 19.0364 7.62154 18.9037 7.65284 18.7759C7.68414 18.6481 7.74027 18.5278 7.81799 18.4219L15.5341 7.92187H12.595C12.3308 7.92187 12.0775 7.81644 11.8906 7.62891C11.7038 7.44137 11.5988 7.18709 11.5988 6.92187C11.5988 6.65666 11.7038 6.40214 11.8906 6.2146C12.0775 6.02706 12.3308 5.92188 12.595 5.92188H17.5067C17.6905 5.92232 17.8705 5.97379 18.027 6.07056C18.1834 6.16732 18.3101 6.30541 18.3932 6.46997C18.4762 6.63453 18.5122 6.81909 18.4973 7.00293C18.4824 7.18677 18.4171 7.36279 18.3086 7.51172L9.42197 19.6118C9.32919 19.7376 9.20822 19.8398 9.06892 19.9102C8.92963 19.9805 8.77585 20.017 8.61992 20.0168Z" fill="#DF0E0F"/>
<path d="M12.5938 7.92065C12.4816 7.92017 12.3703 7.89981 12.2651 7.8606C12.0162 7.77228 11.8123 7.58843 11.6984 7.34936C11.5844 7.1103 11.5697 6.83542 11.6574 6.58545L13.2614 2.01562H7.11932C6.85509 2.01562 6.60176 1.91019 6.41492 1.72266C6.22809 1.53512 6.12305 1.28084 6.12305 1.01562C6.12305 0.750409 6.22809 0.495886 6.41492 0.30835C6.60176 0.120813 6.85509 0.0156251 7.11932 0.0156251H14.6661C14.825 0.0155639 14.9816 0.0536459 15.1228 0.126709C15.2641 0.199772 15.3859 0.305619 15.478 0.435547C15.5706 0.565776 15.6306 0.716414 15.6532 0.874756C15.6757 1.0331 15.6601 1.19444 15.6076 1.34546L13.5354 7.25049C13.4671 7.44643 13.3398 7.61627 13.1711 7.73633C13.0024 7.85638 12.8006 7.92087 12.5938 7.92065Z" fill="#DF0E0F"/>
</svg>
