<svg width="21" height="20" viewBox="0 0 21 20" fill="none" xmlns="http://www.w3.org/2000/svg">
<path d="M9.99902 19.985C8.25155 19.9848 6.53465 19.5268 5.01934 18.6564C3.50404 17.786 2.24323 16.5338 1.3626 15.0244C0.481975 13.5151 0.0122704 11.8013 0.00023718 10.0539C-0.0117961 8.30642 0.434242 6.58634 1.294 5.06499C1.35966 4.95074 1.44718 4.85056 1.55157 4.77013C1.65595 4.68971 1.77518 4.63063 1.9024 4.59627C2.02962 4.56192 2.16234 4.55293 2.29302 4.56988C2.4237 4.58682 2.54975 4.62934 2.664 4.695C2.77825 4.76066 2.87849 4.84818 2.95892 4.95257C3.03934 5.05695 3.09839 5.17615 3.13275 5.30337C3.1671 5.43058 3.17605 5.56334 3.15911 5.69402C3.14217 5.8247 3.09965 5.95074 3.03399 6.06499C2.03452 7.82955 1.7425 9.90785 2.21697 11.8795C2.69144 13.8512 3.89702 15.5691 5.58984 16.6857C7.28266 17.8024 9.33636 18.2345 11.3356 17.8947C13.3349 17.5548 15.1305 16.4683 16.3593 14.855C17.588 13.2417 18.1582 11.2219 17.9545 9.20425C17.7508 7.18655 16.7884 5.32153 15.262 3.98635C13.7356 2.65117 11.7592 1.94549 9.7323 2.01207C7.70544 2.07866 5.77953 2.91252 4.34405 4.34499C4.25114 4.4379 4.1408 4.51163 4.0194 4.56191C3.89801 4.61219 3.76793 4.63805 3.63653 4.63805C3.50514 4.63805 3.37499 4.61219 3.2536 4.56191C3.1322 4.51163 3.02192 4.4379 2.92901 4.34499C2.8361 4.25208 2.76244 4.1418 2.71215 4.02041C2.66187 3.89901 2.63598 3.7689 2.63598 3.6375C2.63598 3.50611 2.66187 3.37599 2.71215 3.2546C2.76244 3.1332 2.8361 3.02292 2.92901 2.93001C4.09179 1.76688 5.52349 0.908483 7.09729 0.430896C8.67108 -0.0466906 10.3384 -0.128727 11.9515 0.192035C13.5646 0.512797 15.0736 1.22645 16.345 2.2698C17.6163 3.31314 18.6107 4.65396 19.2401 6.17345C19.8694 7.69295 20.1143 9.34422 19.9529 10.981C19.7916 12.6177 19.2291 14.1894 18.3152 15.5567C17.4013 16.9241 16.1642 18.045 14.7136 18.82C13.263 19.5951 11.6437 20.0004 9.99902 20V19.985Z" fill="#DF0E0F"/>
<path d="M5.3745 15.6395C5.21797 15.6394 5.06364 15.6026 4.92394 15.532C4.78424 15.4614 4.66308 15.359 4.57018 15.233C4.47728 15.107 4.41526 14.961 4.38909 14.8067C4.36292 14.6524 4.37331 14.494 4.41948 14.3445L6.61449 7.2795C6.66253 7.12411 6.74777 6.98276 6.86278 6.86775C6.97779 6.75274 7.11913 6.66754 7.27452 6.61949L14.3395 4.42448C14.5132 4.37143 14.698 4.36668 14.8742 4.41072C15.0504 4.45476 15.2113 4.54594 15.3395 4.67448C15.4681 4.80276 15.5592 4.96361 15.6033 5.13979C15.6473 5.31596 15.6426 5.50081 15.5895 5.67449L13.3945 12.7395C13.347 12.8943 13.2625 13.0353 13.1484 13.1503C13.0343 13.2652 12.894 13.3508 12.7395 13.3995L5.66948 15.5895C5.57421 15.6209 5.47478 15.6377 5.3745 15.6395ZM8.3745 8.37447L6.89952 13.1245L11.6495 11.6495L13.1195 6.89949L8.3745 8.37447Z" fill="#DF0E0F"/>
<path d="M10.0186 11.2344C9.68704 11.2344 9.36907 11.1027 9.13465 10.8683C8.90022 10.6338 8.76855 10.3159 8.76855 9.98438C8.76855 9.65285 8.90022 9.33492 9.13465 9.10049C9.36907 8.86607 9.68704 8.73438 10.0186 8.73438C10.3501 8.73438 10.668 8.86607 10.9024 9.10049C11.1368 9.33492 11.2686 9.65285 11.2686 9.98438C11.2686 10.3159 11.1368 10.6338 10.9024 10.8683C10.668 11.1027 10.3501 11.2344 10.0186 11.2344Z" fill="#DF0E0F"/>
</svg>
