<svg width="21" height="20" viewBox="0 0 21 20" fill="none" xmlns="http://www.w3.org/2000/svg">
<path d="M13.8966 18.5906C13.6647 18.5899 13.4402 18.5086 13.2616 18.3606C13.1478 18.2671 13.0562 18.1495 12.9931 18.0164C12.93 17.8833 12.897 17.7379 12.8966 17.5906V3.59058C12.8924 3.35522 12.9713 3.12589 13.1194 2.94297C13.2676 2.76005 13.4756 2.63527 13.7067 2.59058L19.7067 1.4206C19.853 1.39227 20.0036 1.39696 20.1479 1.43436C20.2921 1.47176 20.4261 1.54091 20.5402 1.63675C20.6542 1.7326 20.7455 1.85273 20.8072 1.98835C20.8688 2.12396 20.8993 2.27164 20.8966 2.4206V16.4206C20.9009 16.656 20.822 16.8853 20.6739 17.0682C20.5257 17.2511 20.3178 17.3759 20.0867 17.4206L14.0867 18.5956C14.0234 18.6016 13.9595 18.5999 13.8966 18.5906ZM14.8966 4.4206V16.3756L18.8966 15.5906V3.66059L14.8966 4.4206Z" fill="#DF0E0F"/>
<path d="M1.90349 18.5906C1.67155 18.5899 1.44707 18.5086 1.26848 18.3606C1.15468 18.2671 1.06302 18.1495 0.999921 18.0164C0.936824 17.8833 0.903856 17.7379 0.903486 17.5906V3.59058C0.899205 3.35522 0.978099 3.12589 1.12626 2.94297C1.27443 2.76005 1.48243 2.63527 1.71354 2.59058L7.71354 1.4206C7.85981 1.39227 8.0105 1.39696 8.15471 1.43436C8.29892 1.47176 8.43298 1.54091 8.54704 1.63675C8.6611 1.7326 8.75233 1.85273 8.81401 1.98835C8.87569 2.12396 8.9062 2.27164 8.90349 2.4206V16.4206C8.90777 16.656 8.82887 16.8853 8.68071 17.0682C8.53254 17.2511 8.32467 17.3759 8.09355 17.4206L2.09355 18.5956C2.03025 18.6016 1.96639 18.5999 1.90349 18.5906ZM2.90349 4.4206V16.3756L6.90349 15.5906V3.66059L2.90349 4.4206Z" fill="#DF0E0F"/>
<path d="M13.8999 18.5929C13.8368 18.6005 13.773 18.6005 13.7099 18.5929L7.70991 17.4179C7.5748 17.3999 7.44475 17.3545 7.32783 17.2845C7.21091 17.2144 7.10956 17.1212 7.02998 17.0105C6.95039 16.8999 6.89427 16.7741 6.86506 16.641C6.83585 16.5078 6.83411 16.3701 6.86006 16.2363C6.886 16.1025 6.93909 15.9754 7.01594 15.8628C7.09279 15.7503 7.19178 15.6546 7.30696 15.5817C7.42213 15.5088 7.55099 15.4602 7.68562 15.4389C7.82025 15.4176 7.95787 15.4241 8.08992 15.4579L12.8999 16.3979V4.42292L7.70991 3.42292C7.5748 3.40493 7.44475 3.35952 7.32783 3.28946C7.21091 3.21941 7.10956 3.12616 7.02998 3.01551C6.95039 2.90485 6.89427 2.77911 6.86506 2.64597C6.83585 2.51283 6.83411 2.37512 6.86006 2.24131C6.886 2.10749 6.93909 1.98041 7.01594 1.86783C7.09279 1.75526 7.19178 1.65957 7.30696 1.58667C7.42213 1.51377 7.55099 1.4652 7.68562 1.44391C7.82025 1.42263 7.95787 1.42908 8.08992 1.46289L14.0899 2.63291C14.321 2.67759 14.5289 2.80237 14.6771 2.98529C14.8253 3.16821 14.9042 3.39755 14.8999 3.63291V17.6329C14.8995 17.7802 14.8667 17.9256 14.8036 18.0587C14.7405 18.1918 14.6487 18.3094 14.5349 18.4029C14.351 18.5366 14.127 18.6036 13.8999 18.5929Z" fill="#DF0E0F"/>
</svg>
