<svg width="20" height="20" viewBox="0 0 20 20" fill="none" xmlns="http://www.w3.org/2000/svg">
<path d="M9.99763 20C8.10594 19.9991 6.25333 19.4619 4.65469 18.4508C3.05606 17.4397 1.777 15.996 0.965956 14.2874C0.154909 12.5788 -0.154873 10.6753 0.0725565 8.79777C0.299986 6.92024 1.05525 5.14567 2.25081 3.68001C2.4186 3.47447 2.66126 3.344 2.92528 3.31728C3.1893 3.29056 3.45314 3.36978 3.65873 3.53752C3.86432 3.70527 3.99476 3.94779 4.02149 4.21175C4.04822 4.47571 3.96901 4.73948 3.80122 4.94502C2.52965 6.51292 1.90185 8.50546 2.04495 10.5189C2.18804 12.5323 3.09138 14.4161 4.57191 15.7885C6.05245 17.1609 7.99941 17.9193 10.0184 17.91C12.0374 17.9007 13.9774 17.1244 15.4452 15.7385C16.913 14.3525 17.7989 12.4605 17.9235 10.4458C18.048 8.43117 17.4019 6.44448 16.1159 4.88835C14.83 3.33222 13.0005 2.32302 10.998 2.06524C8.99553 1.80745 6.96992 2.32035 5.33161 3.50002C5.22601 3.58738 5.10357 3.65212 4.97191 3.6902C4.84024 3.72829 4.70212 3.73889 4.56617 3.72139C4.43023 3.7039 4.29941 3.65867 4.18168 3.58849C4.06396 3.51831 3.96183 3.42469 3.88181 3.31343C3.80178 3.20218 3.74557 3.07567 3.71648 2.94176C3.6874 2.80785 3.68615 2.6694 3.71282 2.53499C3.7395 2.40058 3.79354 2.27306 3.87155 2.16039C3.94957 2.04772 4.04985 1.95231 4.1663 1.88002C5.86288 0.653711 7.90408 -0.00437719 9.99763 2.1912e-05C12.6504 2.1912e-05 15.1947 1.05358 17.0705 2.92894C18.9463 4.80431 20 7.34785 20 10C20 12.6522 18.9463 15.1957 17.0705 17.0711C15.1947 18.9464 12.6504 20 9.99763 20Z" fill="#DF0E0F"/>
<path d="M9.86177 19.9977C9.62979 19.997 9.40525 19.9156 9.22661 19.7677C7.11111 18.0127 5.39062 13.6277 5.39062 9.99768C5.39062 6.49768 6.89098 2.6827 9.14652 0.322701C9.23814 0.228478 9.34742 0.153203 9.46813 0.101205C9.58884 0.0492062 9.71863 0.0214884 9.85005 0.0196312C9.98148 0.0177741 10.112 0.0418041 10.2342 0.0903709C10.3563 0.138938 10.4676 0.211085 10.5619 0.302681C10.6561 0.394278 10.7314 0.503532 10.7834 0.624214C10.8354 0.744897 10.8632 0.874655 10.8651 1.00605C10.8669 1.13744 10.8428 1.26792 10.7942 1.39002C10.7457 1.51213 10.6735 1.62347 10.5819 1.71769C8.67146 3.68769 7.3911 7.01768 7.3911 9.99768C7.3911 12.9777 8.84643 16.8527 10.5018 18.2327C10.7049 18.4021 10.8326 18.645 10.857 18.9083C10.8814 19.1716 10.8004 19.4339 10.6319 19.6377C10.5378 19.7505 10.42 19.8413 10.2869 19.9036C10.1538 19.9658 10.0087 19.9979 9.86177 19.9977Z" fill="#DF0E0F"/>
<path d="M10.14 19.9977C9.9352 19.9968 9.73564 19.9332 9.56819 19.8153C9.40075 19.6975 9.27354 19.531 9.20373 19.3385C9.13392 19.1461 9.12488 18.9368 9.17784 18.7391C9.23081 18.5413 9.34315 18.3645 9.49982 18.2327C11.1602 16.8527 12.6155 13.0077 12.6155 9.99768C12.6155 6.98768 11.3303 3.68769 9.42485 1.71769C9.23982 1.5274 9.13795 1.27141 9.1417 1.00605C9.14545 0.740686 9.25454 0.48767 9.44487 0.302682C9.63521 0.117693 9.89128 0.0158806 10.1567 0.0196313C10.4221 0.023382 10.6752 0.132408 10.8602 0.322701C13.1408 2.6827 14.616 6.47768 14.616 9.99768C14.616 13.6277 12.8956 17.9977 10.7801 19.7677C10.6002 19.9167 10.3737 19.9981 10.14 19.9977Z" fill="#DF0E0F"/>
<path d="M18.0716 11H1.93774C1.67246 11 1.418 10.8946 1.23042 10.7071C1.04284 10.5196 0.9375 10.2652 0.9375 10C0.9375 9.73478 1.04284 9.48041 1.23042 9.29288C1.418 9.10534 1.67246 9 1.93774 9H18.0716C18.3368 9 18.5913 9.10534 18.7789 9.29288C18.9665 9.48041 19.0718 9.73478 19.0718 10C19.0718 10.2652 18.9665 10.5196 18.7789 10.7071C18.5913 10.8946 18.3368 11 18.0716 11Z" fill="#DF0E0F"/>
</svg>
