<svg width="20" height="20" viewBox="0 0 20 20" fill="none" xmlns="http://www.w3.org/2000/svg">
<path d="M9.99752 20C9.73226 20 9.47781 19.8948 9.29025 19.7072C9.10268 19.5196 8.99735 19.265 8.99735 18.9997V12.6483H0.995981C0.805703 12.6475 0.619597 12.5925 0.459512 12.4896C0.299428 12.3867 0.171945 12.2404 0.0921398 12.0676C0.0123351 11.8949 -0.0164482 11.7028 0.00899575 11.5143C0.0344397 11.3257 0.113109 11.1483 0.235841 11.0029L9.23738 0.350123C9.36999 0.195039 9.54679 0.0843365 9.74418 0.0326618C9.94157 -0.0190129 10.1501 -0.00922584 10.3417 0.0609891C10.5333 0.131204 10.6988 0.258343 10.816 0.425337C10.9333 0.592331 10.9967 0.791249 10.9977 0.995302V7.35185H18.9991C19.1898 7.35169 19.3765 7.40614 19.5374 7.50863C19.6982 7.61112 19.8264 7.75743 19.9068 7.93036C19.9872 8.10329 20.0164 8.29566 19.9912 8.4847C19.9659 8.67373 19.8872 8.85153 19.7642 8.99727L10.7627 19.65C10.6682 19.7605 10.5509 19.8489 10.4187 19.9094C10.2866 19.9698 10.1428 20.0007 9.99752 20ZM3.15138 10.6478H9.99752C10.2628 10.6478 10.5172 10.753 10.7048 10.9406C10.8924 11.1282 10.9977 11.3828 10.9977 11.6481V16.2691L16.8487 9.35234H9.99752C9.73226 9.35234 9.47781 9.24713 9.29025 9.05955C9.10268 8.87196 8.99735 8.61738 8.99735 8.3521V3.73108L3.15138 10.6478Z" fill="#DF0E0F"/>
</svg>
