<svg width="25" height="25" viewBox="0 0 25 25" fill="none" xmlns="http://www.w3.org/2000/svg">
<g clip-path="url(#clip0)">
<path d="M24.9555 18.272V21.9373C24.9569 22.2776 24.887 22.6144 24.7504 22.9262C24.6138 23.2379 24.4135 23.5178 24.1623 23.7478C23.911 23.9779 23.6144 24.153 23.2915 24.262C22.9685 24.371 22.6263 24.4115 22.2867 24.3809C18.5196 23.9724 14.9011 22.6877 11.7218 20.63C8.76396 18.7542 6.2562 16.2514 4.37663 13.2994C2.30771 10.112 1.02017 6.48306 0.618335 2.70656C0.587743 2.3687 0.627975 2.02818 0.736471 1.70669C0.844966 1.38519 1.01935 1.08977 1.24851 0.839222C1.47768 0.588675 1.7566 0.388495 2.06753 0.251427C2.37846 0.114359 2.71459 0.0434067 3.0545 0.0430872H6.7271C7.32122 0.0372515 7.89718 0.24722 8.34765 0.633856C8.79812 1.02049 9.09235 1.55741 9.17551 2.14454C9.33052 3.31753 9.61799 4.46925 10.0324 5.57773C10.1972 6.01504 10.2328 6.4903 10.1352 6.9472C10.0375 7.4041 9.8107 7.82349 9.48156 8.15568L7.92682 9.70734C9.66954 12.7661 12.2072 15.2987 15.272 17.038L16.8268 15.4863C17.1596 15.1579 17.5798 14.9315 18.0376 14.834C18.4955 14.7366 18.9717 14.7722 19.4098 14.9365C20.5205 15.3502 21.6745 15.6371 22.8498 15.7918C23.4445 15.8755 23.9876 16.1745 24.3758 16.6318C24.7641 17.089 24.9704 17.6728 24.9555 18.272Z" fill="#1AD5B6"/>
<path d="M23.7389 6.47716V1.25977H18.5215" stroke="#1AD5B6" stroke-width="2.43478" stroke-linecap="round" stroke-linejoin="round"/>
<path d="M17.6514 7.34672L23.7383 1.25977" stroke="#1AD5B6" stroke-width="2.43478" stroke-linecap="round" stroke-linejoin="round"/>
</g>
<defs>
<clipPath id="clip0">
<rect width="24.3478" height="24.3478" fill="white" transform="translate(0.608398 0.0429688)"/>
</clipPath>
</defs>
</svg>
