<svg width="20" height="20" viewBox="0 0 20 20" fill="none" xmlns="http://www.w3.org/2000/svg">
<path d="M9.89502 19.999C7.82025 19.9902 5.8316 19.1685 4.35565 17.7106C2.8797 16.2527 2.03399 14.2745 2 12.2003C2 12.2003 2 12.1455 2 12.1005C2.00285 11.7222 2.03296 11.3445 2.09003 10.9705C2.30706 9.08515 3.04069 7.29642 4.21002 5.80148C4.32221 5.66127 4.47008 5.55383 4.63812 5.4905C4.80617 5.42716 4.9882 5.41016 5.16504 5.44143C5.34205 5.47241 5.50742 5.55071 5.6438 5.66771C5.78018 5.78472 5.88249 5.93614 5.94 6.10636C6 6.28633 6.06502 6.46145 6.14002 6.63142C6.31529 7.02565 6.53329 7.39948 6.79004 7.74622C6.79004 7.64124 6.79004 7.5412 6.79004 7.43621C6.79162 5.96003 7.17909 4.50993 7.91406 3.22965C8.64903 1.94937 9.70597 0.883333 10.98 0.137399C11.207 0.0285643 11.4666 0.00929784 11.7072 0.0834528C11.9477 0.157608 12.1514 0.319756 12.2776 0.537478C12.4039 0.755199 12.4433 1.01252 12.3882 1.25806C12.333 1.5036 12.1873 1.71938 11.98 1.8622C10.9132 2.48502 10.046 3.3989 9.48004 4.49677C9.2733 4.88925 9.10582 5.30116 8.98004 5.72654C8.82696 6.28366 8.7479 6.85846 8.745 7.43621C8.73439 8.31142 8.90461 9.17944 9.245 9.98583C9.32804 10.1751 9.35037 10.3855 9.3089 10.588C9.26743 10.7905 9.1642 10.9751 9.01343 11.1165C8.86266 11.2579 8.67175 11.3492 8.46698 11.3777C8.26221 11.4062 8.05365 11.3706 7.87 11.2757C6.61858 10.6323 5.56076 9.66771 4.80499 8.48096C4.3909 9.34941 4.12234 10.2801 4.01001 11.2356C3.96415 11.5217 3.93908 11.8107 3.935 12.1005C3.9391 12.1253 3.9391 12.1506 3.935 12.1754C3.95985 13.7244 4.59109 15.2018 5.69324 16.2907C6.79538 17.3795 8.28059 17.993 9.83002 17.9994C10.0952 17.9994 10.3496 18.1048 10.5371 18.2923C10.7246 18.4798 10.83 18.734 10.83 18.9992C10.83 19.2644 10.7246 19.5186 10.5371 19.7061C10.3496 19.8936 10.0952 19.999 9.83002 19.999H9.89502Z" fill="white"/>
<path d="M9.89453 19.9993C9.62931 19.9993 9.37498 19.8938 9.18744 19.7063C8.9999 19.5188 8.89453 19.2646 8.89453 18.9994C8.89453 18.7343 8.9999 18.48 9.18744 18.2925C9.37498 18.105 9.62931 17.9996 9.89453 17.9996C11.4455 17.9997 12.9338 17.3881 14.0366 16.2977C15.1393 15.2074 15.7674 13.7262 15.7845 12.1756C15.7845 12.1756 15.7845 12.0907 15.7845 12.0707C15.7753 11.7914 15.7519 11.5128 15.7145 11.2359C15.7145 11.1659 15.7145 11.0909 15.6795 11.0159C15.5635 10.4492 15.3319 9.91239 14.9989 9.43928C14.666 8.96618 14.2389 8.56693 13.7445 8.26638C12.924 7.75472 12.215 7.08307 11.6595 6.29162C11.2811 5.74321 10.9783 5.14636 10.7595 4.51702C10.4959 3.76164 10.3607 2.96736 10.3596 2.16732C10.3612 1.71269 10.4046 1.2592 10.4895 0.812565C10.5141 0.683564 10.5639 0.560571 10.636 0.45081C10.7082 0.341049 10.8012 0.246591 10.9099 0.172781C11.0185 0.0989709 11.1407 0.0473293 11.2693 0.0207071C11.3979 -0.00591508 11.5305 -0.00684076 11.6595 0.0177779C11.7886 0.0423966 11.9115 0.0921259 12.0212 0.164238C12.131 0.236349 12.2255 0.329247 12.2993 0.437873C12.3731 0.546499 12.4249 0.668584 12.4515 0.797187C12.4781 0.925791 12.4792 1.0585 12.4545 1.1875C12.2797 2.08045 12.347 3.00395 12.6495 3.8621C12.8074 4.3161 13.026 4.74664 13.2995 5.14191C13.6985 5.71294 14.2087 6.19735 14.7995 6.56648C15.5284 7.01419 16.1569 7.60762 16.6456 8.30959C17.1343 9.01156 17.4727 9.807 17.6395 10.6459C17.6395 10.7608 17.6795 10.8758 17.6945 10.9908C17.7462 11.3586 17.7746 11.7293 17.7795 12.1007C17.7821 12.1406 17.7821 12.1806 17.7795 12.2205C17.7696 13.2532 17.5519 14.2732 17.1395 15.22C16.5314 16.6376 15.5211 17.8459 14.2334 18.6953C12.9457 19.5447 11.4372 19.998 9.89453 19.9993Z" fill="white"/>
</svg>
