<svg width="20" height="20" viewBox="0 0 20 20" fill="none" xmlns="http://www.w3.org/2000/svg">
<path d="M9.97253 18.9905C9.79648 18.9887 9.62403 18.9404 9.47263 18.8505C4.62859 15.9855 -0.740353 10.8855 0.0844829 5.96053C0.267427 4.86274 0.789686 3.84987 1.57784 3.06426C2.36599 2.27864 3.38044 1.75975 4.47863 1.58052C5.57682 1.4013 6.93586 1.64522 7.88319 1.98886C8.77927 2.3139 9.90003 3.608 9.90003 3.608C9.90003 3.608 10.6326 2.73889 11.8824 1.98889C12.8822 1.38889 14.5608 1.46337 15.3214 1.58052C16.4352 1.75221 17.4694 2.26204 18.284 3.04097C19.0985 3.81991 19.6541 4.83035 19.8756 5.93553C20.8754 10.7855 15.6764 15.7905 10.4924 18.8555C10.3353 18.9486 10.1551 18.9954 9.97253 18.9905ZM5.44352 3.49053C5.23416 3.48875 5.02506 3.50549 4.81865 3.54053C4.12634 3.64489 3.48497 3.96648 2.98722 4.45894C2.48947 4.9514 2.16105 5.58925 2.04918 6.28052C1.4543 9.82052 5.54841 14.0505 9.97253 16.8105C14.2117 14.1905 18.6509 9.99553 17.906 6.31053C17.7653 5.60567 17.4111 4.9612 16.8914 4.46472C16.3718 3.96824 15.712 3.64381 15.0016 3.53552C13.3519 3.27552 11.7972 4.12553 10.8423 5.81053C10.7551 5.96443 10.6288 6.09243 10.476 6.18149C10.3232 6.27055 10.1494 6.31747 9.97253 6.31747C9.79567 6.31747 9.62202 6.27055 9.46921 6.18149C9.3164 6.09243 9.18991 5.96443 9.10271 5.81053C8.76297 5.12628 8.24228 4.54823 7.59715 4.13921C6.95201 3.73019 6.2072 3.50584 5.44352 3.49053Z" fill="white"/>
</svg>
