<svg width="20" height="20" viewBox="0 0 20 20" fill="none" xmlns="http://www.w3.org/2000/svg">
<path d="M9.99712 20C7.68346 19.9993 5.44165 19.1964 3.65363 17.728C1.86562 16.2597 0.642056 14.2169 0.191486 11.9475C-0.259084 9.67816 0.0911286 7.32279 1.18257 5.28275C2.27402 3.2427 4.03915 1.64407 6.17706 0.75957C8.31498 -0.124929 10.6934 -0.240693 12.9071 0.431935C15.1209 1.10456 17.0329 2.52391 18.3174 4.44828C19.6019 6.37264 20.1793 8.68297 19.9513 10.9854C19.7233 13.2878 18.704 15.4399 17.067 17.0749C16.1394 18.0042 15.0373 18.7412 13.824 19.2432C12.6107 19.7451 11.3102 20.0023 9.99712 20ZM9.99712 2.00004C8.14615 2.00034 6.35251 2.64239 4.92194 3.81693C3.49137 4.99148 2.51232 6.62593 2.15169 8.44143C1.79105 10.2569 2.07112 12.1413 2.94416 13.7734C3.81721 15.4056 5.22931 16.6844 6.93964 17.3921C8.64997 18.0998 10.5527 18.1926 12.3238 17.6545C14.0948 17.1165 15.6245 15.9809 16.6521 14.4414C17.6798 12.9019 18.1419 11.0539 17.9595 9.21194C17.7771 7.36997 16.9617 5.64823 15.6521 4.34012C14.9082 3.60123 14.0256 3.01643 13.0552 2.61918C12.0848 2.22193 11.0457 2.01986 9.99712 2.02495V2.00004Z" fill="white"/>
<path d="M3.63756 17.3781C3.43936 17.3783 3.24554 17.3196 3.08079 17.2094C2.91605 17.0992 2.78781 16.9427 2.71226 16.7595C2.63672 16.5762 2.61725 16.3747 2.65648 16.1804C2.6957 15.9861 2.79176 15.8077 2.93248 15.6682L15.6475 2.95337C15.8352 2.76573 16.0896 2.66016 16.3549 2.66016C16.6203 2.66016 16.8748 2.76573 17.0624 2.95337C17.2501 3.14101 17.3555 3.39552 17.3555 3.66089C17.3555 3.92625 17.2501 4.18076 17.0624 4.3684L4.34751 17.0832C4.25449 17.1768 4.14381 17.2511 4.02195 17.3017C3.9001 17.3523 3.76951 17.3782 3.63756 17.3781Z" fill="white"/>
</svg>
