<svg width="20" height="20" viewBox="0 0 20 20" fill="none" xmlns="http://www.w3.org/2000/svg">
<path d="M15.5799 19.7025C15.4216 19.7043 15.2654 19.6657 15.1262 19.5904L10.0049 16.8834L4.88356 19.5904C4.72233 19.6756 4.54045 19.7139 4.35854 19.701C4.17663 19.688 4.00203 19.6244 3.85448 19.5172C3.70735 19.4107 3.59286 19.2652 3.52392 19.0972C3.45498 18.9292 3.43431 18.7452 3.46426 18.5661L4.43975 12.8253L0.293916 8.76241C0.163757 8.63528 0.0717187 8.47428 0.0282517 8.2976C-0.0152154 8.12093 -0.0084166 7.93562 0.0478996 7.76261C0.104216 7.5896 0.207768 7.4358 0.346906 7.31857C0.486044 7.20133 0.655193 7.12535 0.835246 7.0992L6.56137 6.26516L9.12204 1.04627C9.20248 0.882096 9.32749 0.74383 9.48272 0.647242C9.63795 0.550655 9.81717 0.499636 10 0.500002C10.182 0.500548 10.3603 0.552001 10.5145 0.648537C10.6688 0.745074 10.793 0.88284 10.8731 1.04627L13.4386 6.26516L19.1648 7.0992C19.3448 7.12535 19.514 7.20133 19.6531 7.31857C19.7922 7.4358 19.8958 7.5896 19.9521 7.76261C20.0084 7.93562 20.0152 8.12093 19.9717 8.2976C19.9283 8.47428 19.8364 8.63528 19.7062 8.76241L15.5604 12.8253L16.5359 18.5661C16.5663 18.7448 16.5464 18.9284 16.4783 19.0964C16.4103 19.2644 16.2968 19.4101 16.1505 19.5172C15.9845 19.6374 15.7849 19.7022 15.5799 19.7025ZM10.0049 14.8251C10.1629 14.8252 10.3187 14.8637 10.4586 14.9373L14.2873 16.9614L13.5557 12.6693C13.5295 12.5144 13.5411 12.3554 13.5895 12.2059C13.6379 12.0565 13.7217 11.9209 13.8337 11.8108L16.9406 8.76729L12.6534 8.1381C12.4963 8.11537 12.347 8.05461 12.2187 7.96112C12.0903 7.86762 11.9867 7.74419 11.9169 7.60157L10.0049 3.69961L8.09296 7.60157C8.02314 7.74419 7.91956 7.86762 7.79121 7.96112C7.66287 8.05461 7.51362 8.11537 7.35646 8.1381L3.06916 8.76729L6.17615 11.8108C6.28819 11.9209 6.37198 12.0565 6.42038 12.2059C6.46879 12.3554 6.48029 12.5144 6.45408 12.6693L5.72246 16.9614L9.54643 14.9373C9.68676 14.8579 9.84382 14.8128 10.0049 14.8056V14.8251Z" fill="white"/>
</svg>
