<svg width="30" height="30" viewBox="0 0 30 30" fill="none" xmlns="http://www.w3.org/2000/svg">
<path d="M12.4657 26.5666C9.82683 26.5013 7.318 25.4071 5.4747 23.5176C3.6314 21.628 2.59961 19.0929 2.59961 16.4532C2.59961 13.8135 3.6314 11.2784 5.4747 9.38893C7.318 7.49942 9.82683 6.4052 12.4657 6.33984C12.7947 6.33984 13.1103 6.47048 13.343 6.70313C13.5756 6.93577 13.7063 7.25137 13.7063 7.58038V15.2097H21.3418C21.6708 15.2097 21.9862 15.3403 22.2189 15.573C22.4515 15.8056 22.5823 16.1212 22.5823 16.4502C22.579 19.1323 21.5121 21.7034 19.6156 23.5999C17.7191 25.4964 15.1478 26.5634 12.4657 26.5666ZM11.2252 8.9201C9.83961 9.14854 8.54383 9.75471 7.48042 10.6719C6.41702 11.589 5.62722 12.7816 5.19773 14.1186C4.76825 15.4556 4.7158 16.8851 5.04615 18.25C5.37649 19.6149 6.07686 20.8622 7.07019 21.8548C8.06352 22.8475 9.31129 23.5469 10.6764 23.8763C12.0415 24.2057 13.4709 24.1523 14.8076 23.7218C16.1443 23.2914 17.3364 22.5006 18.2529 21.4366C19.1693 20.3725 19.7744 19.0765 20.0019 17.6907H12.4657C12.1367 17.6907 11.8211 17.56 11.5885 17.3273C11.3558 17.0947 11.2252 16.7792 11.2252 16.4502V8.9201Z" fill="#8A91B1"/>
<path d="M25.9252 13.3509H17.0491C16.7201 13.3509 16.4047 13.2201 16.172 12.9875C15.9394 12.7548 15.8086 12.4394 15.8086 12.1104V3.24053C15.8086 2.91152 15.9394 2.59593 16.172 2.36329C16.4047 2.13064 16.7201 2 17.0491 2C19.7306 2.00164 22.302 3.0671 24.1987 4.96262C26.0954 6.85814 27.1624 9.42888 27.1657 12.1104C27.1657 12.4394 27.0351 12.7548 26.8024 12.9875C26.5698 13.2201 26.2542 13.3509 25.9252 13.3509ZM18.2897 10.8698H24.5855C24.3234 9.2957 23.5756 7.84284 22.4466 6.71499C21.3177 5.58715 19.8641 4.84074 18.2897 4.58025V10.8698Z" fill="#8A91B1"/>
</svg>
