<svg width="30" height="30" viewBox="0 0 30 30" fill="none" xmlns="http://www.w3.org/2000/svg">
<path d="M14.9965 27C12.2201 26.9992 9.52994 26.0356 7.38433 24.2736C5.23871 22.5116 3.77044 20.0601 3.22975 17.3369C2.68907 14.6136 3.10947 11.7872 4.4192 9.33914C5.72893 6.89109 7.84694 4.97288 10.4124 3.91148C12.9779 2.85009 15.8321 2.71117 18.4885 3.51832C21.145 4.32547 23.4395 6.02884 24.9808 8.33807C26.5222 10.6473 27.2151 13.4195 26.9415 16.1824C26.6679 18.9453 25.4447 21.5278 23.4804 23.4899C22.3672 24.6051 21.0447 25.4892 19.5888 26.0916C18.1328 26.694 16.5721 27.0027 14.9965 27ZM14.9965 5.40005C12.7753 5.40041 10.623 6.17086 8.90629 7.58031C7.18961 8.98977 6.0149 10.951 5.58214 13.1296C5.14938 15.3082 5.48545 17.5694 6.53311 19.528C7.58076 21.4865 9.27513 23.0212 11.3275 23.8705C13.3799 24.7197 15.6632 24.8311 17.7885 24.1854C19.9137 23.5398 21.7493 22.1771 22.9825 20.3297C24.2157 18.4823 24.7702 16.2645 24.5513 14.0542C24.3325 11.8438 23.354 9.77772 21.7825 8.208C19.9801 6.41398 17.5395 5.40832 14.9965 5.41192V5.40005Z" fill="#8A91B1"/>
<path d="M15.9131 21.5166C15.7455 21.6861 15.5312 21.8018 15.2976 21.8491C15.064 21.8964 14.8215 21.8731 14.6013 21.7821C14.381 21.6911 14.1928 21.5365 14.0607 21.3381C13.9286 21.1397 13.8586 20.9063 13.8596 20.668L13.8525 13.4437C13.8525 13.1253 13.979 12.8198 14.2042 12.5947C14.4293 12.3695 14.7348 12.243 15.0532 12.243C15.3717 12.243 15.677 12.3696 15.9022 12.5948C16.1273 12.8199 16.2539 13.1253 16.2539 13.4437L16.2609 20.6681C16.2619 20.9858 16.1368 21.291 15.9131 21.5166Z" fill="#8A91B1"/>
<path d="M15.9006 10.5002C15.7331 10.6698 15.5188 10.7855 15.2851 10.8327C15.0515 10.88 14.8091 10.8567 14.5888 10.7657C14.3685 10.6747 14.1803 10.5201 14.0482 10.3217C13.9161 10.1233 13.8462 9.88996 13.8471 9.65161L13.8523 9.19785C13.8523 8.87941 13.9788 8.57397 14.2039 8.34881C14.4291 8.12364 14.7345 7.99715 15.053 7.99715C15.3714 7.99715 15.6767 8.12374 15.9019 8.34891C16.1271 8.57408 16.2537 8.87941 16.2537 9.19785L16.2484 9.65172C16.2494 9.96946 16.1243 10.2746 15.9006 10.5002Z" fill="#8A91B1"/>
</svg>
