<svg width="30" height="30" viewBox="0 0 30 30" fill="none" xmlns="http://www.w3.org/2000/svg">
<path d="M11.82 13.0201H4.2C3.88174 13.0201 3.57653 12.8936 3.35149 12.6686C3.12645 12.4435 3 12.1384 3 11.8201V4.2C3 3.88174 3.12645 3.57661 3.35149 3.35156C3.57653 3.12652 3.88174 3 4.2 3H11.82C12.1382 3 12.4435 3.12652 12.6686 3.35156C12.8936 3.57661 13.02 3.88174 13.02 4.2V11.8201C13.02 12.1384 12.8936 12.4435 12.6686 12.6686C12.4435 12.8936 12.1382 13.0201 11.82 13.0201ZM5.4 10.6201H10.62V5.4H5.4V10.6201Z" fill="#8A91B1"/>
<path d="M11.82 26.9999H4.2C3.88174 26.9999 3.57653 26.8735 3.35149 26.6484C3.12645 26.4234 3 26.1181 3 25.7999V18.2039C3 17.8856 3.12645 17.5804 3.35149 17.3553C3.57653 17.1303 3.88174 17.0039 4.2 17.0039H11.82C12.1382 17.0039 12.4435 17.1303 12.6686 17.3553C12.8936 17.5804 13.02 17.8856 13.02 18.2039V25.8239C13.0137 26.138 12.8845 26.4371 12.6601 26.6569C12.4358 26.8768 12.1341 26.9999 11.82 26.9999ZM5.4 24.5999H10.62V19.4039H5.4V24.5999Z" fill="#8A91B1"/>
<path d="M11.82 13.0201H4.2C3.88174 13.0201 3.57653 12.8936 3.35149 12.6686C3.12645 12.4435 3 12.1384 3 11.8201V4.2C3 3.88174 3.12645 3.57661 3.35149 3.35156C3.57653 3.12652 3.88174 3 4.2 3H11.82C12.1382 3 12.4435 3.12652 12.6686 3.35156C12.8936 3.57661 13.02 3.88174 13.02 4.2V11.8201C13.02 12.1384 12.8936 12.4435 12.6686 12.6686C12.4435 12.8936 12.1382 13.0201 11.82 13.0201ZM5.4 10.6201H10.62V5.4H5.4V10.6201Z" fill="#8A91B1"/>
<path d="M11.82 26.9999H4.2C3.88174 26.9999 3.57653 26.8735 3.35149 26.6484C3.12645 26.4234 3 26.1181 3 25.7999V18.2039C3 17.8856 3.12645 17.5804 3.35149 17.3553C3.57653 17.1303 3.88174 17.0039 4.2 17.0039H11.82C12.1382 17.0039 12.4435 17.1303 12.6686 17.3553C12.8936 17.5804 13.02 17.8856 13.02 18.2039V25.8239C13.0137 26.138 12.8845 26.4371 12.6601 26.6569C12.4358 26.8768 12.1341 26.9999 11.82 26.9999ZM5.4 24.5999H10.62V19.4039H5.4V24.5999Z" fill="#8A91B1"/>
<path d="M25.7995 13.0201H18.1795C17.8612 13.0201 17.556 12.8936 17.3309 12.6686C17.1059 12.4435 16.9795 12.1384 16.9795 11.8201V4.2C16.9795 3.88174 17.1059 3.57661 17.3309 3.35156C17.556 3.12652 17.8612 3 18.1795 3H25.7995C26.1177 3 26.4229 3.12652 26.648 3.35156C26.873 3.57661 26.9995 3.88174 26.9995 4.2V11.8201C26.9995 12.1384 26.873 12.4435 26.648 12.6686C26.4229 12.8936 26.1177 13.0201 25.7995 13.0201ZM19.3795 10.6201H24.5995V5.4H19.3795V10.6201Z" fill="#8A91B1"/>
<path d="M25.7995 26.9999H18.1795C17.8612 26.9999 17.556 26.8735 17.3309 26.6484C17.1059 26.4234 16.9795 26.1181 16.9795 25.7999V18.2039C16.9795 17.8856 17.1059 17.5804 17.3309 17.3553C17.556 17.1303 17.8612 17.0039 18.1795 17.0039H25.7995C26.1177 17.0039 26.4229 17.1303 26.648 17.3553C26.873 17.5804 26.9995 17.8856 26.9995 18.2039V25.8239C26.9932 26.138 26.864 26.4371 26.6396 26.6569C26.4153 26.8768 26.1136 26.9999 25.7995 26.9999ZM19.3795 24.5999H24.5995V19.4039H19.3795V24.5999Z" fill="#8A91B1"/>
<path d="M25.7995 13.0201H18.1795C17.8612 13.0201 17.556 12.8936 17.3309 12.6686C17.1059 12.4435 16.9795 12.1384 16.9795 11.8201V4.2C16.9795 3.88174 17.1059 3.57661 17.3309 3.35156C17.556 3.12652 17.8612 3 18.1795 3H25.7995C26.1177 3 26.4229 3.12652 26.648 3.35156C26.873 3.57661 26.9995 3.88174 26.9995 4.2V11.8201C26.9995 12.1384 26.873 12.4435 26.648 12.6686C26.4229 12.8936 26.1177 13.0201 25.7995 13.0201ZM19.3795 10.6201H24.5995V5.4H19.3795V10.6201Z" fill="#8A91B1"/>
<path d="M25.7995 26.9999H18.1795C17.8612 26.9999 17.556 26.8735 17.3309 26.6484C17.1059 26.4234 16.9795 26.1181 16.9795 25.7999V18.2039C16.9795 17.8856 17.1059 17.5804 17.3309 17.3553C17.556 17.1303 17.8612 17.0039 18.1795 17.0039H25.7995C26.1177 17.0039 26.4229 17.1303 26.648 17.3553C26.873 17.5804 26.9995 17.8856 26.9995 18.2039V25.8239C26.9932 26.138 26.864 26.4371 26.6396 26.6569C26.4153 26.8768 26.1136 26.9999 25.7995 26.9999ZM19.3795 24.5999H24.5995V19.4039H19.3795V24.5999Z" fill="#8A91B1"/>
</svg>
