<svg width="20" height="20" viewBox="0 0 20 20" fill="none" xmlns="http://www.w3.org/2000/svg">
<path d="M16.5 20H4.95496C4.68974 20 4.43546 19.8948 4.24792 19.7073C4.06039 19.5197 3.95496 19.2652 3.95496 19C3.95496 18.7348 4.06039 18.4805 4.24792 18.293C4.43546 18.1054 4.68974 18 4.95496 18H16.5C16.7652 18 17.0196 17.8948 17.2072 17.7073C17.3947 17.5197 17.5 17.2652 17.5 17V3C17.5 2.73478 17.3947 2.48051 17.2072 2.29297C17.0196 2.10543 16.7652 2 16.5 2H3.5C3.23478 2 2.98038 2.10543 2.79285 2.29297C2.60531 2.48051 2.5 2.73478 2.5 3V19C2.5 19.2652 2.39469 19.5197 2.20715 19.7073C2.01962 19.8948 1.76522 20 1.5 20C1.23478 20 0.980383 19.8948 0.792847 19.7073C0.60531 19.5197 0.5 19.2652 0.5 19V3C0.5 2.20435 0.816053 1.44152 1.37866 0.878906C1.94127 0.316297 2.70435 0 3.5 0H16.5C17.2956 0 18.0587 0.316297 18.6213 0.878906C19.1839 1.44152 19.5 2.20435 19.5 3V17C19.5 17.7956 19.1839 18.5587 18.6213 19.1213C18.0587 19.6839 17.2956 20 16.5 20Z" fill="#1ADDE1"/>
<path d="M8.86536 14.4766H6.32031C6.0551 14.4766 5.80082 14.3711 5.61328 14.1836C5.42574 13.9961 5.32031 13.7418 5.32031 13.4766C5.32031 13.2113 5.42574 12.9571 5.61328 12.7695C5.80082 12.582 6.0551 12.4766 6.32031 12.4766H8.86536C9.13057 12.4766 9.38497 12.582 9.57251 12.7695C9.76005 12.9571 9.86536 13.2113 9.86536 13.4766C9.86536 13.7418 9.76005 13.9961 9.57251 14.1836C9.38497 14.3711 9.13057 14.4766 8.86536 14.4766Z" fill="#1ADDE1"/>
<path d="M13.5504 11H6.32031C6.0551 11 5.80082 10.8948 5.61328 10.7073C5.42574 10.5197 5.32031 10.2652 5.32031 10C5.32031 9.73478 5.42574 9.48051 5.61328 9.29297C5.80082 9.10543 6.0551 9 6.32031 9H13.5504C13.8156 9 14.0699 9.10543 14.2574 9.29297C14.445 9.48051 14.5504 9.73478 14.5504 10C14.5504 10.2652 14.445 10.5197 14.2574 10.7073C14.0699 10.8948 13.8156 11 13.5504 11Z" fill="#1ADDE1"/>
<path d="M13.6804 7.52344H6.32031C6.0551 7.52344 5.80082 7.41801 5.61328 7.23047C5.42574 7.04293 5.32031 6.78865 5.32031 6.52344C5.32031 6.25822 5.42574 6.00394 5.61328 5.81641C5.80082 5.62887 6.0551 5.52344 6.32031 5.52344H13.6804C13.9456 5.52344 14.1999 5.62887 14.3875 5.81641C14.575 6.00394 14.6804 6.25822 14.6804 6.52344C14.6804 6.78865 14.575 7.04293 14.3875 7.23047C14.1999 7.41801 13.9456 7.52344 13.6804 7.52344Z" fill="#1ADDE1"/>
</svg>
