<svg width="21" height="20" viewBox="0 0 21 20" fill="none" xmlns="http://www.w3.org/2000/svg">
<path d="M9.97668 18.2997C8.56547 18.2997 8.05042 18.0928 7.17492 17.5928C7.0496 17.542 6.88553 17.3726 6.79028 17.2766C6.69503 17.1806 6.62025 17.0664 6.57043 16.9407C6.52061 16.815 6.49672 16.6805 6.50036 16.5453C6.504 16.4101 6.53504 16.2771 6.59155 16.1542C6.64806 16.0314 6.72894 15.9213 6.82922 15.8306C6.92949 15.7399 7.04705 15.6705 7.17492 15.6265C7.30279 15.5826 7.43826 15.565 7.57312 15.5749C7.70797 15.5848 7.8395 15.6219 7.95959 15.684C9.24116 16.2695 10.1318 16.4536 11.4966 16.1036C12.8614 15.7536 14.065 14.9463 14.9066 13.8163C15.7482 12.6863 16.1771 11.302 16.1216 9.89411C16.0661 8.48623 15.9278 7.74907 14.9999 6.68884C14.9064 6.59148 14.8335 6.47617 14.7858 6.34991C14.738 6.22365 14.7163 6.08903 14.7219 5.95416C14.7276 5.81928 14.7606 5.68699 14.8187 5.56518C14.8769 5.44337 14.9591 5.33453 15.0604 5.24535C15.1618 5.15618 15.2801 5.08847 15.4083 5.04626C15.5365 5.00404 15.672 4.98822 15.8065 4.99975C15.941 5.01128 16.0718 5.04991 16.1909 5.11334C16.3101 5.17676 16.4152 5.2637 16.4999 5.36883C17.5356 6.5467 17.8115 7.38911 18.0431 8.94037C18.2747 10.4916 18.054 12.0768 17.4076 13.5058C16.7611 14.9348 15.7163 16.1472 14.3983 16.9974C13.0803 17.8477 11.5451 18.2998 9.97668 18.2997Z" fill="#BFBFBF"/>
<path d="M4.00048 15.0007C3.85068 15.0006 3.70274 14.9668 3.56774 14.9019C3.43273 14.837 3.31407 14.7426 3.22045 14.6257C2.26731 13.4256 1.67133 11.9814 1.50084 10.4584C1.33036 8.93538 1.59226 7.39516 2.25646 6.01405C2.92066 4.63295 3.96042 3.46679 5.25658 2.64912C6.55274 1.83146 8.05293 1.39536 9.58544 1.3907C10.8437 1.3863 11.8759 1.57254 13.001 2.13579C13.23 2.25861 13.4023 2.46576 13.4812 2.71337C13.5601 2.96097 13.5395 3.22963 13.4238 3.46233C13.3081 3.69503 13.1064 3.87355 12.8613 3.96007C12.6163 4.04659 12.3471 4.0343 12.111 3.92583C11.2616 3.50229 10.5345 3.388 9.58544 3.3907C7.9543 3.39335 6.39082 4.04281 5.2379 5.19667C4.08499 6.35053 3.43674 7.91459 3.43541 9.54573C3.42844 10.9415 3.90151 12.2973 4.77538 13.3857C4.94101 13.5926 5.01782 13.8568 4.98876 14.1203C4.95969 14.3837 4.82723 14.6249 4.62047 14.7907C4.44322 14.9283 4.22485 15.0022 4.00048 15.0007Z" fill="#BFBFBF"/>
<path d="M4.71945 15.6429C4.63885 15.642 4.55852 15.6336 4.47946 15.6179L0.799531 14.7079C0.542271 14.6416 0.321886 14.4758 0.18686 14.247C0.0518338 14.0182 0.013256 13.7451 0.0795602 13.4879C0.145864 13.2306 0.311581 13.0102 0.540376 12.8752C0.76917 12.7402 1.04227 12.7016 1.29953 12.7679L4.00949 13.4329L4.67453 10.7229C4.74084 10.4649 4.90682 10.2439 5.13608 10.1084C5.36534 9.97292 5.63914 9.93408 5.89707 10.0004C6.15499 10.0667 6.37595 10.2327 6.51145 10.462C6.64694 10.6913 6.68578 10.9649 6.61948 11.2229L5.70957 14.9028C5.67899 15.0307 5.62345 15.1513 5.54624 15.2577C5.46902 15.3641 5.37157 15.4542 5.25949 15.5229C5.09436 15.6129 4.90716 15.6545 4.71945 15.6429Z" fill="#BFBFBF"/>
<path d="M14.4357 10.0002C14.3548 9.99997 14.2741 9.98987 14.1956 9.97019C13.9384 9.90636 13.7172 9.74314 13.5803 9.51627C13.4435 9.28941 13.4022 9.01748 13.4656 8.76023L14.3706 5.08024C14.4017 4.95246 14.4576 4.83206 14.5353 4.72593C14.613 4.6198 14.7108 4.53004 14.8231 4.46177C14.9355 4.3935 15.0604 4.34804 15.1903 4.32804C15.3203 4.30805 15.4529 4.31386 15.5806 4.34519L19.2606 5.25523C19.5179 5.32153 19.7383 5.48731 19.8733 5.7161C20.0083 5.9449 20.0469 6.21794 19.9806 6.4752C19.9143 6.73246 19.7486 6.95284 19.5198 7.08787C19.291 7.2229 19.0179 7.26153 18.7606 7.19523L16.0507 6.53025L15.3856 9.23521C15.3339 9.44965 15.2126 9.64097 15.0408 9.77934C14.869 9.9177 14.6562 9.99536 14.4357 10.0002Z" fill="#BFBFBF"/>
</svg>
