<svg width="21" height="20" viewBox="0 0 21 20" fill="none" xmlns="http://www.w3.org/2000/svg">
<path d="M17.8398 20.001H3.47986C2.79203 19.9997 2.13273 19.7259 1.64636 19.2395C1.15999 18.7532 0.886087 18.0939 0.884766 17.406V14.6061C0.88614 13.8949 1.1436 13.208 1.60986 12.6711L2.83984 11.2561C2.92273 11.1465 3.02723 11.0552 3.14697 10.9878C3.26672 10.9204 3.39908 10.8785 3.53577 10.8645C3.67245 10.8506 3.81052 10.865 3.94141 10.9067C4.07229 10.9485 4.19319 11.0168 4.29651 11.1074C4.39982 11.198 4.48343 11.3089 4.54199 11.4332C4.60055 11.5575 4.63278 11.6925 4.63684 11.8298C4.6409 11.9671 4.61666 12.1038 4.56555 12.2314C4.51444 12.3589 4.43763 12.4745 4.33984 12.5711L3.11487 13.9811C2.96427 14.1546 2.88078 14.3763 2.87976 14.6061V17.406C2.87976 17.5638 2.94249 17.7152 3.05408 17.8268C3.16566 17.9384 3.31705 18.001 3.47485 18.001H17.8348C17.9926 18.001 18.1439 17.9384 18.2555 17.8268C18.3671 17.7152 18.4298 17.5638 18.4298 17.406V14.6061C18.4306 14.3769 18.349 14.155 18.1998 13.9811L16.9698 12.5711C16.8721 12.4745 16.7951 12.3589 16.744 12.2314C16.6929 12.1038 16.6687 11.9671 16.6727 11.8298C16.6768 11.6925 16.7091 11.5575 16.7677 11.4332C16.8263 11.3089 16.9097 11.198 17.0131 11.1074C17.1164 11.0168 17.2373 10.9485 17.3682 10.9067C17.499 10.865 17.6371 10.8506 17.7738 10.8645C17.9105 10.8785 18.0429 10.9204 18.1626 10.9878C18.2823 11.0552 18.387 11.1465 18.4698 11.2561L19.6998 12.6711C20.1647 13.2085 20.4203 13.8955 20.4198 14.6061V17.406C20.4185 18.0913 20.1467 18.7483 19.6636 19.2343C19.1804 19.7202 18.5251 19.9958 17.8398 20.001Z" fill="#BFBFBF"/>
<path d="M10.6592 13.3634C10.3944 13.3623 10.1409 13.2562 9.95422 13.0684L5.28918 8.40335C5.19627 8.31044 5.12255 8.20016 5.07227 8.07877C5.02198 7.95737 4.99609 7.82726 4.99609 7.69586C4.99609 7.56447 5.02198 7.43435 5.07227 7.31296C5.12255 7.19156 5.19627 7.08128 5.28918 6.98837C5.38209 6.89546 5.49238 6.82174 5.61377 6.77145C5.73516 6.72117 5.86531 6.69531 5.9967 6.69531C6.1281 6.69531 6.25825 6.72117 6.37964 6.77145C6.50103 6.82174 6.61131 6.89546 6.70422 6.98837L10.6592 10.9484L14.6191 6.98837C14.7121 6.89546 14.8225 6.82174 14.9438 6.77145C15.0652 6.72117 15.1953 6.69531 15.3267 6.69531C15.4581 6.69531 15.5882 6.72117 15.7096 6.77145C15.831 6.82174 15.9413 6.89546 16.0342 6.98837C16.1271 7.08128 16.2008 7.19156 16.2511 7.31296C16.3014 7.43435 16.3273 7.56447 16.3273 7.69586C16.3273 7.82726 16.3014 7.95737 16.2511 8.07877C16.2008 8.20016 16.1271 8.31044 16.0342 8.40335L11.3691 13.0684C11.2761 13.1619 11.1656 13.2362 11.0437 13.2868C10.9218 13.3375 10.7911 13.3635 10.6592 13.3634Z" fill="#BFBFBF"/>
<path d="M10.6602 13.13C10.3949 13.13 10.1407 13.0247 9.95312 12.8371C9.76559 12.6496 9.66016 12.3952 9.66016 12.13V1C9.66016 0.734784 9.76559 0.480444 9.95312 0.292908C10.1407 0.105371 10.3949 0 10.6602 0C10.9254 0 11.1798 0.105371 11.3673 0.292908C11.5548 0.480444 11.6602 0.734784 11.6602 1V12.13C11.6602 12.3952 11.5548 12.6496 11.3673 12.8371C11.1798 13.0247 10.9254 13.13 10.6602 13.13Z" fill="#BFBFBF"/>
</svg>
