<svg width="20" height="20" viewBox="0 0 20 20" fill="none" xmlns="http://www.w3.org/2000/svg">
<path d="M13.5206 6.17484C12.9017 6.17582 12.2964 5.99547 11.7814 5.65659C11.2664 5.31771 10.8649 4.83573 10.6277 4.27137C10.3904 3.707 10.328 3.08575 10.4485 2.48638C10.569 1.88701 10.8669 1.33626 11.3045 0.904167C11.7421 0.472079 12.2998 0.17809 12.9068 0.0591158C13.5138 -0.059858 14.1429 0.00158552 14.7145 0.235881C15.2861 0.470176 15.7744 0.866731 16.1177 1.37522C16.4609 1.88371 16.6435 2.48123 16.6425 3.09229C16.6412 3.90944 16.3119 4.69274 15.7267 5.27055C15.1415 5.84835 14.3482 6.17354 13.5206 6.17484ZM13.5206 1.97776C13.2971 1.97678 13.0783 2.04131 12.892 2.1632C12.7057 2.28508 12.5603 2.45884 12.4741 2.66242C12.3879 2.86601 12.3648 3.09032 12.4078 3.30687C12.4508 3.52341 12.5579 3.72245 12.7156 3.87883C12.8733 4.03521 13.0744 4.14174 13.2935 4.18515C13.5126 4.22856 13.7399 4.20676 13.9464 4.12254C14.153 4.03832 14.3296 3.89558 14.4539 3.71218C14.5781 3.52877 14.6445 3.31296 14.6445 3.09229C14.6445 2.79752 14.5262 2.5149 14.3156 2.306C14.105 2.09711 13.8191 1.97907 13.5206 1.97776Z" fill="#BFBFBF"/>
<path d="M17.0029 20.0006C16.4102 20.0006 15.8308 19.827 15.3379 19.5018C14.8451 19.1767 14.4609 18.7144 14.234 18.1737C14.0072 17.6329 13.9478 17.0381 14.0634 16.4641C14.1791 15.89 14.4645 15.3627 14.8837 14.9488C15.3028 14.5349 15.8369 14.2531 16.4183 14.1389C16.9997 14.0247 17.6022 14.0833 18.1499 14.3072C18.6975 14.5312 19.1656 14.9106 19.4949 15.3972C19.8242 15.8839 20 16.456 20 17.0413C20 17.8262 19.6843 18.5789 19.1222 19.1338C18.5601 19.6888 17.7978 20.0006 17.0029 20.0006ZM17.0029 16.0549C16.8054 16.0549 16.6122 16.1127 16.4479 16.2211C16.2837 16.3295 16.1556 16.4835 16.08 16.6637C16.0044 16.844 15.9846 17.0424 16.0232 17.2337C16.0617 17.4251 16.1569 17.6008 16.2966 17.7387C16.4363 17.8767 16.6143 17.9707 16.8081 18.0087C17.0019 18.0468 17.2027 18.0273 17.3853 17.9526C17.5678 17.8779 17.7239 17.7514 17.8337 17.5892C17.9434 17.427 18.002 17.2364 18.002 17.0413C17.9967 16.7831 17.8892 16.5372 17.7025 16.3564C17.5157 16.1757 17.2645 16.0746 17.0029 16.0747V16.0549Z" fill="#BFBFBF"/>
<path d="M3.37662 15.0526C2.70955 15.0536 2.05724 14.8594 1.50211 14.4942C0.946978 14.1289 0.514048 13.6093 0.258085 13.0011C0.00212262 12.3928 -0.0653505 11.7232 0.0641828 11.0771C0.193716 10.431 0.514426 9.83744 0.985768 9.37136C1.45711 8.90527 2.0578 8.58773 2.71199 8.45888C3.36617 8.33002 4.04438 8.39561 4.66077 8.64744C5.27716 8.89927 5.80408 9.32589 6.17479 9.87348C6.5455 10.4211 6.74332 11.0648 6.74333 11.7235C6.74333 12.6056 6.38883 13.4517 5.75759 14.0759C5.12636 14.7001 4.26999 15.0513 3.37662 15.0526ZM3.37662 10.3722C3.10451 10.3712 2.83828 10.4499 2.61162 10.5986C2.38496 10.7473 2.20816 10.9591 2.10357 11.2072C1.99898 11.4552 1.97134 11.7284 2.02418 11.992C2.07703 12.2556 2.20799 12.4975 2.4004 12.6875C2.59281 12.8775 2.83798 13.0069 3.10491 13.0591C3.37184 13.1113 3.64846 13.0839 3.89967 12.9806C4.15087 12.8773 4.36533 12.7028 4.51589 12.479C4.66645 12.2552 4.74627 11.9922 4.74528 11.7235C4.74528 11.3651 4.6011 11.0213 4.34442 10.7679C4.08775 10.5145 3.73961 10.3722 3.37662 10.3722Z" fill="#BFBFBF"/>
<path d="M5.0801 11.0913C4.93948 11.091 4.80043 11.0615 4.67217 11.0046C4.54392 10.9476 4.42935 10.8646 4.33583 10.7609C4.15998 10.5658 4.06963 10.3097 4.08461 10.049C4.0996 9.78826 4.21864 9.54402 4.41571 9.36986L10.9792 3.57467C11.178 3.40004 11.4389 3.31063 11.7045 3.3259C11.9701 3.34116 12.2186 3.45985 12.3955 3.65607C12.5723 3.85228 12.663 4.10981 12.6475 4.37204C12.6321 4.63426 12.5117 4.87966 12.313 5.05429L5.74937 10.8495C5.56393 11.0085 5.32572 11.0947 5.0801 11.0913Z" fill="#BFBFBF"/>
<path d="M15.0152 17.8739C14.8955 17.8746 14.7769 17.8529 14.6655 17.8099L4.79016 14.2144C4.66487 14.1711 4.54958 14.1035 4.45101 14.0157C4.35245 13.9279 4.27263 13.8217 4.21614 13.7031C4.15964 13.5845 4.12761 13.4559 4.12199 13.325C4.11637 13.194 4.1372 13.0633 4.18333 12.9404C4.22947 12.8175 4.29995 12.705 4.39065 12.6093C4.48135 12.5136 4.59049 12.4367 4.71162 12.3831C4.83276 12.3295 4.96344 12.3003 5.09614 12.2972C5.22884 12.294 5.36083 12.317 5.48443 12.3648L15.3598 15.9603C15.581 16.0396 15.7667 16.1933 15.8843 16.3945C16.0019 16.5958 16.0438 16.8315 16.0026 17.0602C15.9614 17.2889 15.8398 17.496 15.6592 17.6449C15.4785 17.7938 15.2504 17.8748 15.0152 17.8739Z" fill="#BFBFBF"/>
</svg>
