<svg width="20" height="20" viewBox="0 0 20 20" fill="none" xmlns="http://www.w3.org/2000/svg">
<path d="M17 16.1068C16.7348 16.1068 16.4804 15.9991 16.2928 15.8074C16.1053 15.6157 16 15.3558 16 15.0846C16 14.8135 16.1053 14.5534 16.2928 14.3617C16.4804 14.17 16.7348 14.0624 17 14.0624C17.2652 14.0624 17.5196 13.9547 17.7072 13.763C17.8947 13.5713 18 13.3114 18 13.0402V7.41816C18 7.14705 17.8947 6.88688 17.7072 6.69518C17.5196 6.50348 17.2652 6.39596 17 6.39596H3C2.73478 6.39596 2.48038 6.50348 2.29285 6.69518C2.10531 6.88688 2 7.14705 2 7.41816V13.0402C2 13.3114 2.10531 13.5713 2.29285 13.763C2.48038 13.9547 2.73478 14.0624 3 14.0624C3.26522 14.0624 3.51962 14.17 3.70715 14.3617C3.89469 14.5534 4 14.8135 4 15.0846C4 15.3558 3.89469 15.6157 3.70715 15.8074C3.51962 15.9991 3.26522 16.1068 3 16.1068C2.20435 16.1068 1.44127 15.7835 0.878662 15.2084C0.316053 14.6333 0 13.8536 0 13.0402V7.41816C0 6.60485 0.316053 5.82483 0.878662 5.24973C1.44127 4.67463 2.20435 4.35156 3 4.35156H17C17.7956 4.35156 18.5587 4.67463 19.1213 5.24973C19.6839 5.82483 20 6.60485 20 7.41816V13.0402C20 13.8536 19.6839 14.6333 19.1213 15.2084C18.5587 15.7835 17.7956 16.1068 17 16.1068Z" fill="#BFBFBF"/>
<path d="M15.8547 6.38375C15.5895 6.38375 15.3352 6.27598 15.1477 6.08428C14.9602 5.89258 14.8547 5.63265 14.8547 5.36155V2.0444H5.1748V5.36155C5.1748 5.63265 5.06937 5.89258 4.88184 6.08428C4.6943 6.27598 4.44002 6.38375 4.1748 6.38375C3.90959 6.38375 3.65519 6.27598 3.46765 6.08428C3.28011 5.89258 3.1748 5.63265 3.1748 5.36155V1.0222C3.1748 0.751094 3.28011 0.491172 3.46765 0.299472C3.65519 0.107773 3.90959 0 4.1748 0H15.8547C16.12 0 16.3744 0.107773 16.5619 0.299472C16.7494 0.491172 16.8547 0.751094 16.8547 1.0222V5.36155C16.8547 5.63265 16.7494 5.89258 16.5619 6.08428C16.3744 6.27598 16.12 6.38375 15.8547 6.38375Z" fill="#BFBFBF"/>
<path d="M15.8547 19.9993H4.1748C3.90959 19.9993 3.65519 19.8918 3.46765 19.7001C3.28011 19.5084 3.1748 19.2482 3.1748 18.9771V9.50657C3.1748 9.23547 3.28011 8.97555 3.46765 8.78385C3.65519 8.59215 3.90959 8.48438 4.1748 8.48438C4.44002 8.48438 4.6943 8.59215 4.88184 8.78385C5.06937 8.97555 5.1748 9.23547 5.1748 9.50657V17.9549H14.8547V10.5288H7.09973C6.83451 10.5288 6.58024 10.421 6.3927 10.2293C6.20516 10.0376 6.09973 9.77768 6.09973 9.50657C6.09973 9.23547 6.20516 8.97555 6.3927 8.78385C6.58024 8.59215 6.83451 8.48438 7.09973 8.48438H15.8547C16.12 8.48438 16.3744 8.59215 16.5619 8.78385C16.7494 8.97555 16.8547 9.23547 16.8547 9.50657V18.9771C16.8547 19.2482 16.7494 19.5084 16.5619 19.7001C16.3744 19.8918 16.12 19.9993 15.8547 19.9993Z" fill="#BFBFBF"/>
<path d="M12.6096 13.7325H7.67969C7.48078 13.7325 7.28994 13.6517 7.14929 13.5079C7.00864 13.3641 6.92969 13.1692 6.92969 12.9659C6.92969 12.7625 7.00864 12.5676 7.14929 12.4238C7.28994 12.28 7.48078 12.1992 7.67969 12.1992H12.6096C12.8085 12.1992 12.9994 12.28 13.14 12.4238C13.2807 12.5676 13.3596 12.7625 13.3596 12.9659C13.3596 13.1692 13.2807 13.3641 13.14 13.5079C12.9994 13.6517 12.8085 13.7325 12.6096 13.7325Z" fill="#BFBFBF"/>
<path d="M12.6096 16.17H7.67969C7.48078 16.17 7.28994 16.0892 7.14929 15.9454C7.00864 15.8016 6.92969 15.6067 6.92969 15.4034C6.92969 15.2 7.00864 15.0051 7.14929 14.8613C7.28994 14.7175 7.48078 14.6367 7.67969 14.6367H12.6096C12.8085 14.6367 12.9994 14.7175 13.14 14.8613C13.2807 15.0051 13.3596 15.2 13.3596 15.4034C13.3596 15.6067 13.2807 15.8016 13.14 15.9454C12.9994 16.0892 12.8085 16.17 12.6096 16.17Z" fill="#BFBFBF"/>
</svg>
