<svg width="16" height="16" viewBox="0 0 16 16" fill="none" xmlns="http://www.w3.org/2000/svg">
<g clip-path="url(#clip0)">
<path d="M15.2008 4.92372C15.9508 3.12172 16.0003 1.62172 15.0993 0.723222C14.0993 -0.276778 11.7008 0.0227222 9.15134 1.22322H8.85184C7.04984 1.22322 5.30234 1.87422 4.00284 3.02272C2.90134 4.02272 2.10184 5.32222 1.75284 6.77272C2.00284 6.47322 3.40134 4.82222 5.00284 3.92372C5.05234 3.92372 5.45084 3.67372 5.45084 3.67372C5.40134 3.67372 4.65134 4.42372 4.50284 4.57222C1.00284 8.17372 -1.04666 13.6217 0.552339 15.2207C1.60184 16.2702 3.50284 16.0202 5.70084 14.8222C6.65134 15.2702 7.70084 15.4707 8.85184 15.4707C10.3518 15.4707 11.7503 15.0722 12.9508 14.2702C14.2008 13.4707 15.0993 12.2207 15.6513 10.7727H11.7503C11.2503 11.7207 10.1018 12.3717 8.90134 12.3717C7.20084 12.3717 5.79984 10.9707 5.75284 9.37172V9.22072H15.9508V9.07222C15.9508 8.82222 16.0003 8.52272 16.0003 8.32222C16.0003 7.12172 15.7008 5.97322 15.2008 4.92372ZM1.65134 14.9212C0.851839 14.1217 1.10184 12.5722 2.05234 10.7232C2.50284 11.9732 3.25284 13.0722 4.20084 13.8717C4.50284 14.1217 4.85184 14.3717 5.20084 14.5722C3.60184 15.4212 2.30234 15.5722 1.65134 14.9212ZM11.9013 7.32222H5.80234V7.27272C5.90134 5.72322 7.35184 4.37422 9.04984 4.37422C10.6513 4.37422 11.9508 5.62422 12.0498 7.27272V7.32222H11.9013ZM14.9508 4.52272C14.6513 4.02272 14.2503 3.52272 13.7998 3.12422C13.1035 2.47558 12.2893 1.9664 11.4013 1.62422C13.0003 0.874222 14.3493 0.772722 15.0498 1.47322C15.5993 2.12422 15.5498 3.22322 14.9508 4.52272C14.9508 4.57222 14.9508 4.57222 14.9508 4.52272C14.9508 4.57222 14.9508 4.57222 14.9508 4.52272Z" fill="#6AC4F8"/>
</g>
<defs>
<clipPath id="clip0">
<rect width="16" height="16" fill="white"/>
</clipPath>
</defs>
</svg>
