<svg width="24" height="24" viewBox="0 0 24 24" fill="none" xmlns="http://www.w3.org/2000/svg">
<path d="M20.9998 22.8016H11.9998C11.6815 22.8016 11.3763 22.6752 11.1512 22.4501C10.9262 22.2251 10.7998 21.9198 10.7998 21.6016C10.7998 21.2833 10.9262 20.9781 11.1512 20.753C11.3763 20.528 11.6815 20.4016 11.9998 20.4016H20.9998C21.1589 20.4016 21.3115 20.3384 21.424 20.2259C21.5365 20.1133 21.5998 19.9607 21.5998 19.8016V3.60156C21.5998 3.44243 21.5365 3.28983 21.424 3.17731C21.3115 3.06479 21.1589 3.00156 20.9998 3.00156H11.9998C11.6815 3.00156 11.3763 2.87515 11.1512 2.65011C10.9262 2.42507 10.7998 2.11982 10.7998 1.80156C10.7998 1.4833 10.9262 1.1781 11.1512 0.953052C11.3763 0.728008 11.6815 0.601562 11.9998 0.601562H20.9998C21.7955 0.601563 22.5586 0.91764 23.1212 1.48025C23.6838 2.04286 23.9998 2.80591 23.9998 3.60156V19.8016C23.9998 20.5972 23.6838 21.3603 23.1212 21.9229C22.5586 22.4855 21.7955 22.8016 20.9998 22.8016Z" fill="#8A91B1"/>
<path d="M6.90311 19.8016C6.66599 19.8018 6.43408 19.7317 6.23675 19.6002C6.03942 19.4687 5.88552 19.2818 5.79437 19.0629C5.70321 18.844 5.67895 18.603 5.72464 18.3703C5.77033 18.1376 5.88399 17.9237 6.05115 17.7556L12.1159 11.6894L6.11587 5.68938C5.99561 5.58002 5.8987 5.44734 5.83126 5.29944C5.76381 5.15154 5.72715 4.99148 5.72344 4.82897C5.71973 4.66646 5.7491 4.50486 5.80972 4.35403C5.87034 4.2032 5.96103 4.06627 6.07618 3.95153C6.19132 3.83679 6.32855 3.74663 6.4796 3.68654C6.63064 3.62645 6.79229 3.59769 6.95479 3.60198C7.11729 3.60627 7.27719 3.64351 7.42486 3.71148C7.57252 3.77944 7.70484 3.87673 7.81377 3.99738L14.6479 10.8313C14.7594 10.9428 14.8479 11.0752 14.9083 11.2209C14.9687 11.3665 14.9997 11.5227 14.9997 11.6804C14.9997 11.8381 14.9687 11.9942 14.9083 12.1399C14.8479 12.2856 14.7594 12.4179 14.6479 12.5294L7.74905 19.4296C7.63963 19.5444 7.50857 19.6364 7.36336 19.7003C7.21815 19.7641 7.06171 19.7985 6.90311 19.8016Z" fill="#8A91B1"/>
<path d="M13.8 12.9H1.2C0.88174 12.9 0.576606 12.7736 0.351562 12.5485C0.126519 12.3235 0 12.0183 0 11.7C0 11.3817 0.126519 11.0765 0.351562 10.8515C0.576606 10.6264 0.88174 10.5 1.2 10.5H13.8C14.1183 10.5 14.4235 10.6264 14.6486 10.8515C14.8736 11.0765 15 11.3817 15 11.7C15 12.0183 14.8736 12.3235 14.6486 12.5485C14.4235 12.7736 14.1183 12.9 13.8 12.9Z" fill="#8A91B1"/>
</svg>
