<svg width="20" height="21" viewBox="0 0 20 21" fill="none" xmlns="http://www.w3.org/2000/svg">
<path d="M9.99527 20C8.10402 19.9991 6.25185 19.462 4.65359 18.4508C3.05534 17.4397 1.77658 15.996 0.965728 14.2874C0.154873 12.5788 -0.154836 10.6753 0.0725393 8.79778C0.299915 6.92025 1.055 5.14567 2.25027 3.68001C2.41802 3.47447 2.66063 3.34401 2.92459 3.31728C3.18855 3.29056 3.45232 3.36978 3.65787 3.53753C3.86341 3.70528 3.99381 3.9478 4.02054 4.21175C4.04726 4.47571 3.96807 4.73949 3.80032 4.94503C2.52906 6.51293 1.9014 8.50547 2.04446 10.5189C2.18753 12.5324 3.09064 14.4161 4.57083 15.7885C6.05102 17.1609 7.99752 17.9193 10.016 17.91C12.0345 17.9007 13.9741 17.1245 15.4416 15.7385C16.909 14.3525 17.7947 12.4605 17.9192 10.4459C18.0437 8.43118 17.3977 6.44449 16.1121 4.88836C14.8264 3.33223 12.9974 2.32303 10.9954 2.06524C8.9934 1.80745 6.96828 2.32035 5.33035 3.50002C5.22478 3.58738 5.10237 3.65212 4.97073 3.69021C4.8391 3.72829 4.701 3.73889 4.56509 3.7214C4.42918 3.7039 4.29839 3.65867 4.18069 3.58849C4.063 3.51831 3.96089 3.42469 3.88089 3.31344C3.80088 3.20219 3.74468 3.07568 3.71561 2.94176C3.68653 2.80785 3.68528 2.66941 3.71194 2.535C3.73861 2.40058 3.79264 2.27306 3.87064 2.16039C3.94863 2.04772 4.04889 1.95231 4.16531 1.88003C5.8615 0.653712 7.90221 -0.0043772 9.99527 2.1912e-05C12.6474 2.1912e-05 15.1911 1.05358 17.0664 2.92895C18.9418 4.80431 19.9953 7.34786 19.9953 10C19.9953 12.6522 18.9418 15.1957 17.0664 17.0711C15.1911 18.9465 12.6474 20 9.99527 20Z" fill="#BFBFBF"/>
<path d="M9.85095 20.0016C9.61902 20.0009 9.39453 19.9196 9.21594 19.7716C7.10094 18.0166 5.38086 13.6316 5.38086 10.0016C5.38086 6.5016 6.88086 2.68661 9.13586 0.326608C9.22746 0.232384 9.33672 0.157109 9.4574 0.105111C9.57808 0.0531125 9.70784 0.0253947 9.83923 0.0235375C9.97063 0.0216803 10.1012 0.0457104 10.2233 0.0942772C10.3454 0.142844 10.4567 0.214991 10.5509 0.306588C10.6451 0.398185 10.7203 0.507439 10.7723 0.628121C10.8243 0.748804 10.8521 0.878562 10.854 1.00996C10.8559 1.14135 10.8318 1.27183 10.7832 1.39393C10.7346 1.51603 10.6625 1.62737 10.5709 1.7216C8.66092 3.6916 7.38086 7.0216 7.38086 10.0016C7.38086 12.9816 8.83585 16.8566 10.4908 18.2366C10.6939 18.406 10.8216 18.649 10.8459 18.9123C10.8703 19.1756 10.7893 19.4378 10.6209 19.6416C10.5268 19.7545 10.4091 19.8453 10.276 19.9075C10.1429 19.9697 9.99786 20.0018 9.85095 20.0016Z" fill="#BFBFBF"/>
<path d="M10.1407 20.0016C9.93599 20.0008 9.73647 19.9371 9.56907 19.8193C9.40166 19.7014 9.27448 19.535 9.20469 19.3425C9.1349 19.15 9.12586 18.9408 9.17881 18.743C9.23176 18.5452 9.34408 18.3684 9.50071 18.2366C11.1607 16.8566 12.6157 13.0116 12.6157 10.0016C12.6157 6.9916 11.3308 3.6916 9.42576 1.7216C9.24077 1.5313 9.13893 1.27532 9.14268 1.00996C9.14643 0.744593 9.25549 0.491577 9.44578 0.306588C9.63607 0.1216 9.89208 0.0197868 10.1574 0.0235376C10.4228 0.0272883 10.6758 0.136315 10.8608 0.326608C13.1408 2.68661 14.6157 6.4816 14.6157 10.0016C14.6157 13.6316 12.8957 18.0016 10.7807 19.7716C10.6008 19.9207 10.3744 20.0021 10.1407 20.0016Z" fill="#BFBFBF"/>
<path d="M18.0597 11H1.92969C1.66447 11 1.41007 10.8946 1.22253 10.7071C1.035 10.5196 0.929688 10.2652 0.929688 10C0.929688 9.73478 1.035 9.48041 1.22253 9.29288C1.41007 9.10534 1.66447 9 1.92969 9H18.0597C18.3249 9 18.5793 9.10534 18.7668 9.29288C18.9544 9.48041 19.0597 9.73478 19.0597 10C19.0597 10.2652 18.9544 10.5196 18.7668 10.7071C18.5793 10.8946 18.3249 11 18.0597 11Z" fill="#BFBFBF"/>
</svg>
