<svg width="20" height="20" viewBox="0 0 20 20" fill="none" xmlns="http://www.w3.org/2000/svg">
<path d="M2.125 10.6875C1.89294 10.6875 1.67044 10.5953 1.50635 10.4312C1.34225 10.2671 1.25 10.0446 1.25 9.8125C1.25 9.58044 1.34225 9.35784 1.50635 9.19374C1.67044 9.02965 1.89294 8.9375 2.125 8.9375H17.875C18.1071 8.9375 18.3297 9.02965 18.4938 9.19374C18.6579 9.35784 18.75 9.58044 18.75 9.8125C18.75 10.0446 18.6579 10.2671 18.4938 10.4312C18.3297 10.5953 18.1071 10.6875 17.875 10.6875H2.125Z" fill="#BFBFBF" stroke="#BFBFBF" stroke-width="0.5"/>
<path d="M7.59392 16.1555C7.36223 16.1545 7.14042 16.0616 6.97708 15.8973L1.50833 10.4286C1.34536 10.2646 1.25391 10.0429 1.25391 9.81173C1.25391 9.58057 1.34536 9.35878 1.50833 9.19484L6.97708 3.72609C7.05652 3.63811 7.15299 3.56721 7.26067 3.51765C7.36834 3.46809 7.48494 3.44093 7.60342 3.4378C7.72191 3.43468 7.83979 3.45562 7.94992 3.49943C8.06006 3.54325 8.16023 3.60899 8.24419 3.69266C8.32815 3.77632 8.39417 3.8762 8.43837 3.98618C8.48257 4.09615 8.50399 4.21396 8.50128 4.33246C8.49858 4.45096 8.47185 4.56769 8.42267 4.67554C8.37349 4.78338 8.30293 4.88007 8.21524 4.95982L3.36333 9.81173L8.21524 14.6592C8.33864 14.7816 8.42277 14.9379 8.45696 15.1084C8.49114 15.2788 8.47383 15.4555 8.40718 15.616C8.34054 15.7765 8.22762 15.9136 8.08279 16.0096C7.93796 16.1057 7.76771 16.1565 7.59392 16.1555Z" fill="#BFBFBF" stroke="#BFBFBF" stroke-width="0.5"/>
</svg>
