<svg width="20" height="20" viewBox="0 0 20 20" fill="none" xmlns="http://www.w3.org/2000/svg">
<path d="M18.9877 5.32965H7.19775C7.07157 5.33897 6.94483 5.32222 6.82544 5.28034C6.70605 5.23845 6.59655 5.17235 6.50385 5.08625C6.41114 5.00014 6.33719 4.89583 6.28662 4.77985C6.23605 4.66387 6.20996 4.5387 6.20996 4.41217C6.20996 4.28565 6.23605 4.16048 6.28662 4.0445C6.33719 3.92851 6.41114 3.82421 6.50385 3.7381C6.59655 3.65199 6.70605 3.58589 6.82544 3.54401C6.94483 3.50212 7.07157 3.48537 7.19775 3.49469H18.9877C19.2194 3.5118 19.436 3.61602 19.5941 3.7862C19.7521 3.95638 19.84 4.17991 19.84 4.41217C19.84 4.64444 19.7521 4.86821 19.5941 5.03839C19.436 5.20857 19.2194 5.31254 18.9877 5.32965Z" fill="#BFBFBF"/>
<path d="M4.83783 5.32965H0.987793C0.86161 5.33897 0.734872 5.32222 0.615479 5.28034C0.496085 5.23845 0.386589 5.17235 0.293884 5.08625C0.201179 5.00014 0.127287 4.89583 0.0767212 4.77985C0.0261549 4.66387 0 4.5387 0 4.41217C0 4.28565 0.0261549 4.16048 0.0767212 4.0445C0.127287 3.92851 0.201179 3.82421 0.293884 3.7381C0.386589 3.65199 0.496085 3.58589 0.615479 3.54401C0.734872 3.50212 0.86161 3.48537 0.987793 3.49469H4.83783C5.06947 3.5118 5.28602 3.61602 5.44409 3.7862C5.60216 3.95638 5.69 4.17991 5.69 4.41217C5.69 4.64444 5.60216 4.86821 5.44409 5.03839C5.28602 5.20857 5.06947 5.31254 4.83783 5.32965Z" fill="#BFBFBF"/>
<path d="M15.312 19.9739H4.67194C3.89791 19.9726 3.15596 19.6645 2.60864 19.1172C2.06132 18.5699 1.75328 17.828 1.75195 17.054V4.41382C1.75195 4.16982 1.84889 3.93596 2.02142 3.76343C2.19396 3.59089 2.42794 3.4939 2.67194 3.4939C2.91594 3.4939 3.14998 3.59089 3.32251 3.76343C3.49504 3.93596 3.59198 4.16982 3.59198 4.41382V17.0339C3.59198 17.3204 3.70572 17.5951 3.90826 17.7976C4.1108 18.0001 4.3855 18.114 4.67194 18.114H15.312C15.5988 18.114 15.8741 18.0002 16.0774 17.7979C16.2807 17.5955 16.3957 17.3208 16.397 17.0339V4.39404C16.3877 4.26786 16.4045 4.14112 16.4464 4.02173C16.4882 3.90234 16.5543 3.79266 16.6404 3.69995C16.7265 3.60725 16.8308 3.53348 16.9468 3.48291C17.0628 3.43234 17.1879 3.40625 17.3145 3.40625C17.441 3.40625 17.5661 3.43234 17.6821 3.48291C17.7981 3.53348 17.9024 3.60725 17.9885 3.69995C18.0746 3.79266 18.1407 3.90234 18.1826 4.02173C18.2244 4.14112 18.2413 4.26786 18.2319 4.39404V17.0339C18.2339 17.4189 18.1599 17.8005 18.0141 18.1567C17.8683 18.513 17.6536 18.837 17.3823 19.1101C17.111 19.3832 16.7885 19.6003 16.4332 19.7485C16.0779 19.8968 15.6969 19.9732 15.312 19.9739Z" fill="#BFBFBF"/>
<path d="M13.6876 16.2559C13.4444 16.2559 13.2111 16.1597 13.0388 15.9883C12.8664 15.8168 12.7689 15.584 12.7676 15.3408V8.13086C12.7676 7.88686 12.8645 7.653 13.037 7.48047C13.2096 7.30794 13.4436 7.21094 13.6876 7.21094C13.9316 7.21094 14.1655 7.30794 14.3381 7.48047C14.5106 7.653 14.6075 7.88686 14.6075 8.13086V15.3408C14.6062 15.584 14.5088 15.8168 14.3364 15.9883C14.164 16.1597 13.9307 16.2559 13.6876 16.2559Z" fill="#BFBFBF"/>
<path d="M6.33746 16.2573C6.09479 16.2573 5.86202 16.1609 5.69043 15.9893C5.51883 15.8177 5.42242 15.585 5.42242 15.3423V8.13232C5.4131 8.00614 5.42991 7.8794 5.4718 7.76001C5.51368 7.64062 5.57978 7.53118 5.66589 7.43848C5.752 7.34577 5.8563 7.27176 5.97229 7.22119C6.08827 7.17063 6.21344 7.14453 6.33996 7.14453C6.46649 7.14453 6.59166 7.17063 6.70764 7.22119C6.82362 7.27176 6.92793 7.34577 7.01404 7.43848C7.10014 7.53118 7.16618 7.64062 7.20807 7.76001C7.24995 7.8794 7.26677 8.00614 7.25744 8.13232V15.3423C7.25745 15.4629 7.23361 15.5823 7.18731 15.6936C7.14102 15.8049 7.07316 15.9062 6.98767 15.9912C6.90217 16.0762 6.80074 16.1435 6.68915 16.1892C6.57755 16.2349 6.45804 16.258 6.33746 16.2573Z" fill="#BFBFBF"/>
<path d="M10.0226 16.2559C9.77945 16.2559 9.54617 16.1597 9.37378 15.9883C9.20139 15.8168 9.10386 15.584 9.10254 15.3408V8.13086C9.10254 7.88686 9.19948 7.653 9.37201 7.48047C9.54454 7.30794 9.77858 7.21094 10.0226 7.21094C10.2666 7.21094 10.5006 7.30794 10.6731 7.48047C10.8456 7.653 10.9426 7.88686 10.9426 8.13086V15.3408C10.9412 15.584 10.8437 15.8168 10.6713 15.9883C10.4989 16.1597 10.2657 16.2559 10.0226 16.2559Z" fill="#BFBFBF"/>
<path d="M12.7729 5.33105H7.19787C6.95474 5.33106 6.72146 5.23493 6.54907 5.06348C6.37668 4.89202 6.27921 4.65915 6.27789 4.41602V3.84619C6.25959 3.34786 6.34188 2.8508 6.51996 2.38501C6.69803 1.91922 6.96819 1.49428 7.31427 1.13525C7.66035 0.77623 8.0753 0.490706 8.53424 0.295654C8.99318 0.100602 9.48668 0 9.98535 0C10.484 0 10.9776 0.100602 11.4365 0.295654C11.8955 0.490706 12.3104 0.77623 12.6564 1.13525C13.0025 1.49428 13.2727 1.91922 13.4507 2.38501C13.6288 2.8508 13.7112 3.34786 13.6929 3.84619V4.41602C13.6929 4.5366 13.669 4.65599 13.6227 4.76733C13.5764 4.87867 13.5086 4.97991 13.4231 5.06494C13.3376 5.14997 13.2362 5.21725 13.1246 5.26294C13.013 5.30863 12.8935 5.33171 12.7729 5.33105ZM8.14789 3.49609H11.8129C11.732 3.06794 11.5041 2.68161 11.1686 2.40356C10.8332 2.12552 10.4111 1.97314 9.97534 1.97314C9.53961 1.97314 9.11759 2.12552 8.7821 2.40356C8.44662 2.68161 8.21876 3.06794 8.13788 3.49609H8.14789Z" fill="#BFBFBF"/>
</svg>
