<svg width="25" height="24" viewBox="0 0 25 24" fill="none" xmlns="http://www.w3.org/2000/svg">
<path d="M20.4 21.2373H3.6C2.64522 21.2373 1.72953 20.8573 1.05439 20.181C0.379264 19.5047 0 18.5875 0 17.631V5.00912C0 4.21209 0.316151 3.4477 0.87876 2.88411C1.44137 2.32053 2.20435 2.00391 3 2.00391H22.8C23.0386 2.0037 23.2718 2.07473 23.4699 2.20793C23.668 2.34113 23.822 2.53046 23.9121 2.75173C24.0023 2.973 24.0246 3.21616 23.9761 3.45017C23.9277 3.68418 23.8164 3.98635 23.5273 4.29157L23 4.79275C22.7752 5.01664 22.361 5.14231 22.044 5.14231C21.727 5.14231 21.4229 5.01664 21.1981 4.79275C21.0926 4.68804 21.0091 4.56342 20.9521 4.42611H3C2.84087 4.42611 2.6883 4.48944 2.57578 4.60215C2.46326 4.71487 2.4 4.86775 2.4 5.02715V17.631C2.4 17.9498 2.52652 18.2556 2.75156 18.481C2.97661 18.7065 3.28174 18.8331 3.6 18.8331H20.4C20.7183 18.8331 21.0235 18.7065 21.2486 18.481C21.4736 18.2556 21.6 17.9498 21.6 17.631V8.71756C21.6 8.39875 21.7265 8.09299 21.9516 7.86756C22.1766 7.64212 22.4817 7.51547 22.8 7.51547C23.1183 7.51547 23.4235 7.64212 23.6486 7.86756C23.8736 8.09299 24 8.39875 24 8.71756V17.631C24 18.5875 23.6207 19.5047 22.9456 20.181C22.2705 20.8573 21.3548 21.2373 20.4 21.2373Z" fill="#8A91B1"/>
<path d="M12.0003 13.377C11.7248 13.3764 11.4579 13.2809 11.2443 13.1065L1.23638 4.93232C0.989727 4.73067 0.833095 4.43912 0.801026 4.12183C0.768958 3.80453 0.864131 3.48746 1.06543 3.24038C1.26673 2.9933 1.55771 2.83644 1.87446 2.80432C2.19121 2.77219 2.50774 2.86743 2.7544 3.06908L12.0063 10.6242L21.3063 3.06307C21.5538 2.85983 21.8718 2.76338 22.1902 2.79494C22.5087 2.8265 22.8015 2.98349 23.0044 3.23136C23.2073 3.47924 23.3035 3.7977 23.272 4.11669C23.2405 4.43569 23.0838 4.72907 22.8364 4.93232L12.7563 13.1125C12.542 13.2848 12.2751 13.3781 12.0003 13.377Z" fill="#8A91B1"/>
</svg>
