<svg width="24" height="24" viewBox="0 0 24 24" fill="none" xmlns="http://www.w3.org/2000/svg">
<path d="M12 24C9.62663 24 7.3066 23.2962 5.33321 21.9776C3.35982 20.6591 1.82173 18.785 0.913481 16.5923C0.00522995 14.3996 -0.232451 11.987 0.230571 9.65918C0.693594 7.33141 1.83652 5.19298 3.51475 3.51475C5.19298 1.83652 7.33126 0.693594 9.65904 0.230571C11.9868 -0.232451 14.3996 0.00522995 16.5923 0.913481C18.785 1.82173 20.6591 3.35982 21.9776 5.33321C23.2962 7.3066 24 9.62663 24 12C24 15.1826 22.7358 18.2351 20.4854 20.4855C18.235 22.736 15.1826 24 12 24ZM12 2.4C10.1013 2.4 8.24522 2.96321 6.66651 4.01807C5.0878 5.07293 3.85742 6.5723 3.13082 8.32647C2.40421 10.0806 2.21416 12.0107 2.58457 13.873C2.95499 15.7352 3.86919 17.4458 5.21177 18.7884C6.55436 20.131 8.26498 21.0453 10.1272 21.4157C11.9894 21.7861 13.9197 21.5959 15.6738 20.8693C17.428 20.1427 18.9274 18.9122 19.9822 17.3335C21.0371 15.7548 21.6 13.8987 21.6 12C21.6 9.45393 20.5886 7.01227 18.7882 5.21192C16.9879 3.41157 14.5461 2.4 12 2.4Z" fill="#8A91B1"/>
<path d="M17.6878 13.197H11.9998C11.6815 13.197 11.3764 13.0707 11.1514 12.8457C10.9263 12.6207 10.7998 12.3152 10.7998 11.997V5.90703C10.7998 5.58877 10.9263 5.28364 11.1514 5.05859C11.3764 4.83355 11.6815 4.70703 11.9998 4.70703C12.3181 4.70703 12.6233 4.83355 12.8484 5.05859C13.0734 5.28364 13.1998 5.58877 13.1998 5.90703V10.797H17.6878C18.0061 10.797 18.3113 10.9235 18.5364 11.1485C18.7614 11.3736 18.8878 11.6787 18.8878 11.997C18.8878 12.3152 18.7614 12.6207 18.5364 12.8457C18.3113 13.0707 18.0061 13.197 17.6878 13.197Z" fill="#8A91B1"/>
</svg>
