<svg width="14" height="14" viewBox="0 0 14 14" fill="none" xmlns="http://www.w3.org/2000/svg">
<path d="M6.59452 8.7818C6.4565 8.78122 6.32175 8.73981 6.20718 8.66285C6.0926 8.5859 6.00331 8.4768 5.95057 8.34926C5.89783 8.22171 5.88399 8.08151 5.91075 7.94611C5.93752 7.81071 6.00374 7.68613 6.10105 7.58824L8.99556 4.69374C9.1285 4.57284 9.3028 4.5078 9.48245 4.5119C9.66209 4.516 9.83333 4.58895 9.96062 4.71578C10.0879 4.84262 10.1615 5.01364 10.1662 5.19327C10.1709 5.3729 10.1064 5.54748 9.986 5.68085L7.09149 8.57535C7.02637 8.64086 6.94898 8.6927 6.86368 8.72814C6.77838 8.76358 6.68689 8.78187 6.59452 8.7818Z" fill="#DF0E0F"/>
<path d="M6.59445 8.78143C6.42096 8.78097 6.25388 8.71611 6.1255 8.59942L4.52598 7.13995C4.4515 7.08005 4.39009 7.00557 4.34551 6.92103C4.30093 6.83648 4.27408 6.74357 4.26672 6.64827C4.25937 6.55298 4.27162 6.45719 4.3027 6.3668C4.33377 6.27642 4.38305 6.19338 4.44745 6.12276C4.51185 6.05214 4.58999 5.99556 4.67714 5.95631C4.76428 5.91705 4.85851 5.89605 4.95408 5.89461C5.04964 5.89317 5.14453 5.91132 5.23281 5.94793C5.3211 5.98454 5.40096 6.03873 5.46746 6.10738L7.06698 7.56343C7.17164 7.65856 7.24499 7.78312 7.27744 7.92078C7.30989 8.05844 7.29988 8.20267 7.24873 8.33453C7.19758 8.46639 7.10773 8.57981 6.99093 8.65958C6.87413 8.73934 6.73588 8.78176 6.59445 8.78143Z" fill="#DF0E0F"/>
<path d="M7.13289 13.9938C6.96377 13.9955 6.79973 13.936 6.67112 13.8261C6.54252 13.7163 6.45807 13.5635 6.43332 13.3962C6.40856 13.2289 6.44517 13.0583 6.53645 12.9159C6.62774 12.7736 6.76749 12.6691 6.92986 12.6218C8.2368 12.224 9.38205 11.4181 10.1977 10.3222C11.0133 9.22629 11.4566 7.89781 11.4624 6.53168V3.09475L7.13289 1.43225L5.49491 2.05517C5.32133 2.12154 5.12848 2.11629 4.95881 2.04047C4.78913 1.96466 4.65655 1.82458 4.59018 1.651C4.52381 1.47741 4.52906 1.28456 4.60487 1.11489C4.68069 0.945215 4.82077 0.812631 4.99435 0.746261L6.8809 0.0462608C7.04203 -0.0154203 7.22024 -0.0154203 7.38138 0.0462608L12.4144 1.96425C12.5465 2.01523 12.6601 2.10512 12.7401 2.22197C12.8201 2.33882 12.8627 2.47719 12.8624 2.61879V6.53869C12.8548 8.20538 12.3139 9.82597 11.3188 11.163C10.3237 12.5001 8.92675 13.4834 7.33241 13.9692C7.26756 13.9875 7.20025 13.9959 7.13289 13.9938Z" fill="#DF0E0F"/>
<path d="M7.13335 13.9937C7.0645 13.9932 6.99607 13.9825 6.93032 13.9621C5.33598 13.4763 3.93903 12.493 2.94395 11.1559C1.94887 9.81887 1.40799 8.19828 1.40039 6.53159V2.61169C1.40037 2.46967 1.44348 2.33091 1.52412 2.21401C1.60476 2.09711 1.71905 2.00757 1.85182 1.95715L3.25182 1.42514C3.33777 1.39228 3.42934 1.37664 3.52133 1.37917C3.61331 1.3817 3.70391 1.4023 3.78793 1.43984C3.87194 1.47738 3.94778 1.53109 4.01104 1.59792C4.07429 1.66475 4.12378 1.74337 4.15664 1.82932C4.1895 1.91527 4.20506 2.00701 4.20253 2.099C4.2 2.19098 4.1794 2.28141 4.14186 2.36543C4.10432 2.44944 4.05061 2.52537 3.98378 2.58862C3.91695 2.65187 3.83833 2.70136 3.75238 2.73422L2.80731 3.08422V6.52116C2.81487 7.88937 3.2609 9.21902 4.07982 10.3151C4.89874 11.4112 6.0474 12.216 7.35731 12.6111C7.51937 12.6584 7.65893 12.7626 7.75021 12.9046C7.84149 13.0466 7.87841 13.2169 7.85411 13.3839C7.82982 13.551 7.74596 13.7036 7.61802 13.8137C7.49008 13.9239 7.32668 13.984 7.15787 13.9831L7.13335 13.9937Z" fill="#DF0E0F"/>
</svg>
