<svg width="20" height="21" viewBox="0 0 20 21" fill="none" xmlns="http://www.w3.org/2000/svg">
<path d="M17.5 20.002H2.5C1.83696 20.002 1.20102 19.7385 0.732178 19.2697C0.263337 18.8009 0 18.1652 0 17.5022V2.50366C0 1.84069 0.263337 1.20481 0.732178 0.736012C1.20102 0.267217 1.83696 0.00390625 2.5 0.00390625H7.93506C8.20028 0.00390625 8.45455 0.109206 8.64209 0.296724C8.82963 0.484242 8.93506 0.738618 8.93506 1.00381C8.93506 1.269 8.82963 1.52337 8.64209 1.71089C8.45455 1.89841 8.20028 2.00371 7.93506 2.00371H2.5C2.36739 2.00371 2.24025 2.05642 2.14648 2.15018C2.05272 2.24394 2 2.37107 2 2.50366V17.5022C2 17.6348 2.05272 17.7619 2.14648 17.8557C2.24025 17.9494 2.36739 18.0021 2.5 18.0021H17.5C17.6326 18.0021 17.7597 17.9494 17.8535 17.8557C17.9473 17.7619 18 17.6348 18 17.5022V13.0377C18 12.7725 18.1053 12.5181 18.2928 12.3306C18.4804 12.1431 18.7348 12.0378 19 12.0378C19.2652 12.0378 19.5196 12.1431 19.7072 12.3306C19.8947 12.5181 20 12.7725 20 13.0377V17.5022C20 18.1652 19.7367 18.8009 19.2678 19.2697C18.799 19.7385 18.163 20.002 17.5 20.002Z" fill="#BFBFBF"/>
<path d="M18.9995 9.24251C18.7343 9.24251 18.4799 9.13721 18.2924 8.94969C18.1048 8.76217 17.9995 8.5078 17.9995 8.24261V2.02324H12.4346C12.1694 2.02324 11.915 1.91782 11.7274 1.7303C11.5399 1.54278 11.4346 1.28853 11.4346 1.02334C11.4346 0.758149 11.5399 0.503774 11.7274 0.316256C11.915 0.128738 12.1694 0.0234375 12.4346 0.0234375H18.9995C19.2647 0.0234375 19.5191 0.128738 19.7067 0.316256C19.8942 0.503774 19.9995 0.758149 19.9995 1.02334V8.24261C19.9995 8.5078 19.8942 8.76217 19.7067 8.94969C19.5191 9.13721 19.2647 9.24251 18.9995 9.24251Z" fill="#BFBFBF"/>
<path d="M9.99998 11.002C9.80135 11.0031 9.60691 10.9452 9.44139 10.8354C9.27587 10.7256 9.14682 10.5689 9.07066 10.3855C8.99449 10.202 8.97458 10.0002 9.01365 9.80544C9.05272 9.61071 9.14899 9.43204 9.29002 9.29218L18.29 0.293062C18.3829 0.200161 18.4932 0.126442 18.6146 0.0761644C18.736 0.0258867 18.8661 0 18.9975 0C19.1289 0 19.259 0.0258867 19.3803 0.0761644C19.5017 0.126442 19.612 0.200161 19.7049 0.293062C19.7978 0.385963 19.8716 0.496234 19.9219 0.617616C19.9721 0.738997 19.998 0.869009 19.998 1.00039C19.998 1.13177 19.9721 1.26191 19.9219 1.38329C19.8716 1.50467 19.7978 1.61494 19.7049 1.70784L10.7049 10.707C10.5183 10.8947 10.2648 11.0009 9.99998 11.002Z" fill="#BFBFBF"/>
</svg>
