<svg width="24" height="24" viewBox="0 0 24 24" fill="none" xmlns="http://www.w3.org/2000/svg">
<path d="M9.30601 18.6C7.46613 18.6012 5.66726 18.0566 4.13697 17.0351C2.60668 16.0137 1.41377 14.5613 0.709138 12.8617C0.00450604 11.1621 -0.180268 9.2917 0.178385 7.48712C0.537038 5.68254 1.42301 4.0249 2.724 2.72391C4.02498 1.42292 5.68255 0.537064 7.48713 0.178411C9.29171 -0.180242 11.1621 0.0044304 12.8617 0.709062C14.5613 1.41369 16.0137 2.60662 17.0352 4.13691C18.0566 5.66719 18.6012 7.46607 18.6 9.30594C18.5968 11.7699 17.6167 14.1321 15.8744 15.8744C14.1321 17.6166 11.77 18.5968 9.30601 18.6ZM9.30601 2.38446C7.93681 2.38329 6.59793 2.78823 5.45892 3.54805C4.3199 4.30788 3.43184 5.38845 2.90706 6.65309C2.38228 7.91772 2.24449 9.30958 2.51088 10.6526C2.77728 11.9956 3.4359 13.2295 4.40365 14.1981C5.3714 15.1666 6.60468 15.8264 7.94748 16.094C9.29027 16.3615 10.6824 16.2248 11.9474 15.7011C13.2125 15.1774 14.2938 14.2903 15.0546 13.1519C15.8154 12.0136 16.2215 10.6751 16.2215 9.30594C16.2199 7.47122 15.4912 5.71191 14.195 4.41345C12.8988 3.11498 11.1407 2.38324 9.30601 2.37852V2.38446Z" fill="#8A91B1"/>
<path d="M22.7735 23.9984C22.6109 23.9986 22.4501 23.9665 22.2999 23.9042C22.1498 23.8418 22.0135 23.7503 21.8989 23.635L14.7615 16.5025C14.647 16.3881 14.5562 16.2522 14.4942 16.1026C14.4323 15.9531 14.4004 15.7928 14.4004 15.631C14.4004 15.4691 14.4323 15.3088 14.4942 15.1593C14.5562 15.0098 14.647 14.8739 14.7615 14.7594C14.8759 14.645 15.0118 14.5542 15.1614 14.4923C15.3109 14.4303 15.4713 14.3984 15.6331 14.3984C15.795 14.3984 15.9552 14.4303 16.1048 14.4923C16.2543 14.5542 16.3902 14.645 16.5046 14.7594L23.6422 21.8981C23.8716 22.1289 24.0004 22.4412 24.0004 22.7666C24.0004 23.092 23.8716 23.4042 23.6422 23.635C23.4122 23.8664 23.0997 23.9971 22.7735 23.9984Z" fill="#8A91B1"/>
</svg>
