<svg width="22" height="22" viewBox="0 0 22 22" fill="none" xmlns="http://www.w3.org/2000/svg">
<path d="M10.9968 22C8.4518 21.9993 5.98581 21.116 4.019 19.5008C2.05218 17.8856 0.706261 15.6384 0.210635 13.1421C-0.284992 10.6458 0.100241 8.05494 1.30083 5.81089C2.50142 3.56684 4.44306 1.80848 6.79477 0.835527C9.14648 -0.137422 11.7628 -0.264763 14.1979 0.475128C16.633 1.21502 18.7362 2.77644 20.1491 4.89324C21.562 7.01004 22.1972 9.55126 21.9464 12.0839C21.6957 14.6165 20.5744 16.9838 18.7737 18.7824C17.7534 19.8047 16.541 20.6152 15.2064 21.1673C13.8718 21.7195 12.4412 22.0025 10.9968 22ZM10.9968 2.20005C8.96076 2.20038 6.98776 2.90663 5.41413 4.19863C3.8405 5.49063 2.76368 7.28839 2.36699 9.28544C1.97029 11.2825 2.27836 13.3553 3.23871 15.1507C4.19906 16.946 5.75223 18.3528 7.6336 19.1313C9.51496 19.9098 11.608 20.0118 13.5561 19.42C15.5043 18.8282 17.1869 17.579 18.3173 15.8856C19.4477 14.1921 19.956 12.1592 19.7554 10.133C19.5548 8.10683 18.6579 6.21292 17.2173 4.774C16.4003 3.95824 15.4302 3.31194 14.3627 2.8721C13.2953 2.43227 12.1514 2.20749 10.9968 2.21093V2.20005Z" fill="#25E472"/>
<path d="M9.69848 14.7593C9.48046 14.7595 9.2674 14.6949 9.08617 14.5737C8.90495 14.4525 8.76376 14.2802 8.68066 14.0786C8.59756 13.8771 8.57628 13.6553 8.61943 13.4416C8.66258 13.2279 8.76824 13.0319 8.92303 12.8783L14.7915 7.0099C14.9979 6.80349 15.2778 6.6875 15.5697 6.6875C15.8616 6.6875 16.1416 6.80349 16.348 7.0099C16.5544 7.2163 16.6704 7.49613 16.6704 7.78803C16.6704 8.07993 16.5544 8.3599 16.348 8.5663L10.4796 14.4349C10.3772 14.5378 10.2555 14.6194 10.1214 14.6751C9.98741 14.7308 9.84363 14.7594 9.69848 14.7593Z" fill="#25E472"/>
<path d="M9.6989 14.758C9.42555 14.7558 9.1629 14.6519 8.96199 14.4665L5.71692 11.5131C5.49811 11.3162 5.36662 11.0404 5.35115 10.7464C5.33567 10.4524 5.43755 10.1644 5.63447 9.94556C5.83139 9.72676 6.10723 9.59513 6.40119 9.57966C6.69515 9.56419 6.98322 9.6662 7.20202 9.86312L10.4414 12.822C10.6561 13.0185 10.7842 13.2922 10.7976 13.5829C10.811 13.8736 10.7087 14.1577 10.513 14.3731C10.4122 14.491 10.2874 14.5863 10.1471 14.6526C10.0068 14.719 9.85406 14.7549 9.6989 14.758Z" fill="#25E472"/>
</svg>
