<svg width="22" height="22" viewBox="0 0 22 22" fill="none" xmlns="http://www.w3.org/2000/svg">
<path d="M10.9968 22C8.45177 21.9992 5.98578 21.116 4.01896 19.5008C2.05215 17.8856 0.706234 15.6384 0.210608 13.1421C-0.285018 10.6458 0.100349 8.05493 1.30094 5.81088C2.50152 3.56684 4.44303 1.80847 6.79473 0.835526C9.14644 -0.137421 11.7627 -0.264762 14.1978 0.475127C16.6329 1.21502 18.7362 2.77643 20.1491 4.89323C21.562 7.01004 22.1972 9.55125 21.9464 12.0839C21.6956 14.6165 20.5743 16.9838 18.7737 18.7824C17.7533 19.8046 16.541 20.6151 15.2064 21.1673C13.8717 21.7195 12.4411 22.0025 10.9968 22ZM10.9968 2.20005C8.96072 2.20038 6.98773 2.90662 5.4141 4.19862C3.84047 5.49062 2.76366 7.28838 2.36696 9.28543C1.97026 11.2825 2.27833 13.3553 3.23868 15.1506C4.19903 16.946 5.7522 18.3528 7.63356 19.1313C9.51492 19.9098 11.608 20.0118 13.5561 19.42C15.5043 18.8281 17.1869 17.579 18.3173 15.8855C19.4477 14.1921 19.956 12.1591 19.7554 10.133C19.5548 8.10682 18.6578 6.21291 17.2173 4.774C15.5651 3.12949 13.3279 2.20763 10.9968 2.21092V2.20005Z" fill="#DF0E0F"/>
<path d="M14.6819 15.7976C14.3906 15.7964 14.1118 15.6797 13.9064 15.4731L6.52552 8.09768C6.31912 7.89128 6.20312 7.61132 6.20312 7.31942C6.20313 7.02752 6.31912 6.74755 6.52552 6.54115C6.73193 6.33474 7.01176 6.21875 7.30366 6.21875C7.59556 6.21875 7.87552 6.33474 8.08192 6.54115L15.463 13.9166C15.6181 14.0704 15.7239 14.267 15.7669 14.4812C15.8098 14.6954 15.7881 14.9176 15.7043 15.1194C15.6205 15.3212 15.4784 15.4934 15.2963 15.6142C15.1143 15.735 14.9004 15.7989 14.6819 15.7976Z" fill="#DF0E0F"/>
<path d="M7.30665 15.7976C7.08816 15.7989 6.87427 15.735 6.6922 15.6142C6.51013 15.4934 6.36805 15.3212 6.28426 15.1194C6.20048 14.9176 6.17872 14.6954 6.22169 14.4812C6.26467 14.267 6.37056 14.0704 6.52569 13.9166L13.9066 6.54115C14.113 6.33474 14.393 6.21875 14.6849 6.21875C14.9768 6.21875 15.2567 6.33474 15.4632 6.54115C15.6696 6.74755 15.7854 7.02752 15.7854 7.31942C15.7854 7.61132 15.6696 7.89128 15.4632 8.09768L8.0821 15.4731C7.87675 15.6797 7.59791 15.7964 7.30665 15.7976Z" fill="#DF0E0F"/>
</svg>
