<svg width="30" height="30" viewBox="0 0 30 30" fill="none" xmlns="http://www.w3.org/2000/svg">
<path d="M14.3839 3.54901L14.3763 3.5539L3.59962 12.3506H3.34962V12.3512V25.6062L3.34962 25.6062C3.34969 26.1607 3.84044 26.6515 4.39494 26.6516H4.39497H11.5531H11.5531C12.1076 26.6515 12.5984 26.1607 12.5985 25.6062V25.6062V17.6379H17.4008V25.6062V25.6062C17.4008 26.1607 17.8916 26.6515 18.4461 26.6516H18.4461H25.6043H25.6043C26.1588 26.6515 26.6495 26.1607 26.6496 25.6062V25.6062V12.3506C26.6496 12.028 26.4952 11.7101 26.2358 11.5135L26.2348 11.5127L15.6301 3.55932L15.6224 3.55348L15.6142 3.54827C15.409 3.41801 15.1992 3.34815 14.9819 3.35169C14.7655 3.35522 14.5672 3.4312 14.3839 3.54901ZM24.5589 12.8733V24.5609H19.4915V16.5925V16.5925C19.4914 16.038 19.0007 15.5472 18.4461 15.5472H18.4461H11.5531H11.5531C10.9986 15.5472 10.5078 16.038 10.5078 16.5925V16.5925V24.5609H5.44032V12.8733L14.9996 5.70392L24.5589 12.8733Z" fill="white" stroke="white" stroke-width="0.5"/>
</svg>
