<svg width="30" height="30" viewBox="0 0 30 30" fill="none" xmlns="http://www.w3.org/2000/svg">
<path d="M9.87312 16.6693C8.73354 16.6693 7.61954 16.3388 6.67202 15.7196C5.7245 15.1003 4.98594 14.2202 4.54984 13.1905C4.11375 12.1607 3.99975 11.0276 4.22207 9.93446C4.44439 8.84129 4.99307 7.83715 5.79887 7.04902C6.60467 6.26089 7.63129 5.72417 8.74898 5.50672C9.86666 5.28928 11.0252 5.40088 12.078 5.82742C13.1308 6.25395 14.0308 6.97626 14.6639 7.903C15.297 8.82975 15.6349 9.9193 15.6349 11.0339C15.6333 12.528 15.0257 13.9605 13.9455 15.017C12.8653 16.0735 11.4007 16.6677 9.87312 16.6693ZM9.87312 7.83013C9.22526 7.83013 8.59204 8.01802 8.05337 8.37006C7.5147 8.72209 7.09475 9.22245 6.84683 9.80786C6.59891 10.3933 6.5341 11.0374 6.66049 11.6589C6.78688 12.2804 7.09875 12.8512 7.55685 13.2993C8.01495 13.7473 8.59871 14.0524 9.23411 14.1761C9.86951 14.2997 10.5282 14.2362 11.1267 13.9938C11.7252 13.7513 12.2367 13.3406 12.5967 12.8138C12.9566 12.2869 13.1487 11.6675 13.1487 11.0339C13.1487 10.1842 12.8037 9.36931 12.1894 8.76849C11.5751 8.16767 10.7419 7.83013 9.87312 7.83013Z" fill="white"/>
<path d="M17.7606 23.3997C17.4309 23.3997 17.1148 23.2716 16.8817 23.0436C16.6486 22.8155 16.5175 22.5063 16.5175 22.1838C16.5159 20.7209 15.9207 19.3184 14.8624 18.2846C13.8042 17.2507 12.3696 16.67 10.8739 16.67H8.72321C7.22856 16.6716 5.79568 17.253 4.7388 18.2867C3.68192 19.3204 3.08747 20.7219 3.08583 22.1838C3.08583 22.5063 2.95476 22.8155 2.72163 23.0436C2.48851 23.2716 2.17241 23.3997 1.84272 23.3997C1.51302 23.3997 1.19678 23.2716 0.96365 23.0436C0.730522 22.8155 0.599609 22.5063 0.599609 22.1838C0.601256 20.077 1.45768 18.057 2.98082 16.5673C4.50395 15.0775 6.56918 14.2399 8.72321 14.2383H10.8739C13.0285 14.2399 15.0945 15.0773 16.6186 16.5669C18.1427 18.0564 19.0005 20.0765 19.0037 22.1838C19.0037 22.5063 18.8728 22.8155 18.6397 23.0436C18.4066 23.2716 18.0903 23.3997 17.7606 23.3997Z" fill="white"/>
<path d="M22.5771 17.8185C23.5116 17.8185 24.425 17.5474 25.202 17.0395C25.9789 16.5315 26.5844 15.8096 26.9417 14.965C27.2991 14.1204 27.3923 13.1911 27.2096 12.2947C27.0268 11.3983 26.5763 10.5751 25.915 9.92921C25.2538 9.2833 24.4114 8.84375 23.4947 8.66616C22.5779 8.48858 21.628 8.58094 20.7649 8.93156C19.9018 9.28219 19.1645 9.87532 18.6462 10.6359C18.1279 11.3965 17.852 12.2904 17.8532 13.2044C17.8548 14.4287 18.3532 15.6023 19.2389 16.4675C20.1246 17.3326 21.3253 17.8186 22.5771 17.8185ZM22.5771 11.0159C23.0196 11.0159 23.4522 11.1442 23.8202 11.3847C24.1881 11.6252 24.4749 11.967 24.6443 12.3669C24.8137 12.7668 24.858 13.2068 24.7716 13.6314C24.6853 14.0559 24.4721 14.4459 24.1592 14.7519C23.8462 15.058 23.4475 15.2664 23.0135 15.3509C22.5794 15.4353 22.1296 15.392 21.7207 15.2263C21.3119 15.0607 20.9624 14.7802 20.7165 14.4203C20.4706 14.0604 20.3394 13.6373 20.3394 13.2044C20.3394 12.624 20.5752 12.0673 20.9948 11.6569C21.4144 11.2465 21.9836 11.0159 22.5771 11.0159Z" fill="white"/>
<path d="M28.7569 22.9979C29.0866 22.9979 29.4027 22.8698 29.6358 22.6418C29.8689 22.4138 30 22.1045 30 21.7821C29.9984 20.0864 29.3089 18.4607 28.083 17.2616C26.8571 16.0626 25.1949 15.3883 23.4612 15.3867H21.8017C21.472 15.3867 21.1558 15.5148 20.9227 15.7428C20.6895 15.9708 20.5586 16.2801 20.5586 16.6026C20.5586 16.925 20.6895 17.2343 20.9227 17.4623C21.1558 17.6903 21.472 17.8184 21.8017 17.8184H23.4612C24.5355 17.82 25.5654 18.2381 26.325 18.9811C27.0846 19.7241 27.5121 20.7313 27.5138 21.7821C27.5138 22.1045 27.6447 22.4138 27.8778 22.6418C28.111 22.8698 28.4272 22.9979 28.7569 22.9979Z" fill="white"/>
<path d="M18.3577 19.63C18.5373 19.63 18.7147 19.592 18.8777 19.5185C19.0408 19.4451 19.1858 19.3379 19.3025 19.2045C19.6864 18.7664 20.1632 18.4155 20.6999 18.1761C21.2366 17.9368 21.8204 17.8147 22.4103 17.8184H24.0635C24.3932 17.8184 24.7095 17.6903 24.9426 17.4623C25.1757 17.2343 25.3066 16.925 25.3066 16.6026C25.3066 16.2801 25.1757 15.9709 24.9426 15.7428C24.7095 15.5148 24.3932 15.3867 24.0635 15.3867H22.4103C21.4652 15.3849 20.5309 15.584 19.6723 15.9703C18.8137 16.3566 18.0513 16.9208 17.4378 17.6239C17.2837 17.8001 17.1842 18.0158 17.1513 18.2455C17.1184 18.4751 17.1534 18.7092 17.2521 18.9201C17.3507 19.131 17.509 19.3099 17.7082 19.4357C17.9074 19.5614 18.1393 19.6289 18.3764 19.63H18.3577Z" fill="white"/>
</svg>
