<svg width="30" height="30" viewBox="0 0 30 30" fill="none" xmlns="http://www.w3.org/2000/svg">
<path d="M13.4101 23.37C12.9503 23.3699 12.5081 23.1939 12.174 22.8781L8.88003 19.77C8.7688 19.6628 8.62055 19.6028 8.46606 19.6021H6C5.20435 19.6021 4.44137 19.2859 3.87876 18.7232C3.31615 18.1606 3 17.3978 3 16.6021V14.07C3 13.2744 3.31615 12.5112 3.87876 11.9486C4.44137 11.386 5.20435 11.07 6 11.07H8.46606C8.61972 11.071 8.76786 11.013 8.88003 10.908L12.174 7.7999C12.4296 7.55848 12.7504 7.39737 13.0966 7.33613C13.4428 7.2749 13.7994 7.31626 14.1223 7.45537C14.4452 7.59449 14.7203 7.82527 14.9136 8.11895C15.1069 8.41262 15.21 8.75642 15.2101 9.10801V21.57C15.2091 21.9216 15.1051 22.2653 14.9111 22.5585C14.717 22.8517 14.4413 23.0817 14.118 23.22C13.8953 23.3194 13.654 23.3706 13.4101 23.37ZM6 13.47C5.84087 13.47 5.6883 13.5333 5.57578 13.6458C5.46326 13.7583 5.4 13.9109 5.4 14.07V16.608C5.4 16.7671 5.46326 16.9197 5.57578 17.0322C5.6883 17.1447 5.84087 17.208 6 17.208H8.46606C9.23183 17.2093 9.96808 17.5035 10.524 18.0301L12.8101 20.184V10.5061L10.524 12.66C9.96714 13.1844 9.23101 13.4762 8.46606 13.4759L6 13.47Z" fill="white"/>
<path d="M18.8162 19.4959C18.5622 19.4948 18.3151 19.4129 18.1105 19.2624C17.9059 19.1119 17.7543 18.9005 17.6776 18.6583C17.6009 18.4162 17.603 18.1559 17.6836 17.915C17.7642 17.6742 17.9191 17.4652 18.1261 17.318C18.5049 17.053 18.8142 16.7005 19.0278 16.2905C19.2413 15.8806 19.3528 15.4251 19.3528 14.9628C19.3528 14.5006 19.2413 14.0453 19.0278 13.6354C18.8142 13.2254 18.5049 12.8729 18.1261 12.6079C17.866 12.4241 17.6896 12.1443 17.6356 11.8304C17.5816 11.5164 17.6544 11.1941 17.8382 10.9339C18.022 10.6737 18.3016 10.4972 18.6156 10.4432C18.9295 10.3892 19.252 10.4621 19.5122 10.6459C20.2054 11.1324 20.7714 11.7786 21.162 12.53C21.5527 13.2814 21.7566 14.1159 21.7566 14.9628C21.7566 15.8097 21.5527 16.6442 21.162 17.3956C20.7714 18.147 20.2054 18.7935 19.5122 19.28C19.3082 19.4224 19.065 19.4978 18.8162 19.4959Z" fill="white"/>
<path d="M22.4289 23.3454C22.1818 23.3459 21.9405 23.2701 21.7381 23.1284C21.5357 22.9866 21.3821 22.7859 21.2981 22.5535C21.214 22.3212 21.2038 22.0686 21.2688 21.8302C21.3337 21.5918 21.4706 21.3791 21.6609 21.2214C22.5808 20.4585 23.3213 19.5023 23.8295 18.4206C24.3376 17.339 24.601 16.1584 24.601 14.9633C24.601 13.7682 24.3376 12.5879 23.8295 11.5063C23.3213 10.4246 22.5808 9.46839 21.6609 8.7055C21.4253 8.49975 21.2793 8.21014 21.2541 7.89837C21.2289 7.5866 21.3264 7.27739 21.5258 7.03646C21.7253 6.79553 22.011 6.64185 22.322 6.60843C22.633 6.57502 22.9448 6.6644 23.1909 6.85745C24.3814 7.845 25.3396 9.08292 25.9973 10.4829C26.6549 11.883 26.9959 13.4107 26.9959 14.9575C26.9959 16.5043 26.6549 18.0319 25.9973 19.432C25.3396 20.832 24.3814 22.0699 23.1909 23.0575C22.9783 23.2394 22.7087 23.3412 22.4289 23.3454Z" fill="white"/>
</svg>
