<svg width="30" height="30" viewBox="0 0 30 30" fill="none" xmlns="http://www.w3.org/2000/svg">
<path d="M21.5097 27.1688H8.9998C7.8859 27.1688 6.81763 26.7263 6.02998 25.9386C5.24233 25.151 4.7998 24.0827 4.7998 22.9688V13.5008C4.7998 12.3869 5.24233 11.3186 6.02998 10.531C6.81763 9.7433 7.8859 9.30078 8.9998 9.30078H21.5097C22.6236 9.30078 23.692 9.7433 24.4797 10.531C25.2673 11.3186 25.7097 12.3869 25.7097 13.5008V22.9688C25.7097 24.0827 25.2673 25.151 24.4797 25.9386C23.692 26.7263 22.6236 27.1688 21.5097 27.1688ZM8.9998 11.7008C8.52242 11.7008 8.06457 11.8904 7.727 12.228C7.38944 12.5655 7.1998 13.0234 7.1998 13.5008V22.9688C7.1998 23.4462 7.38944 23.904 7.727 24.2416C8.06457 24.5792 8.52242 24.7688 8.9998 24.7688H21.5097C21.9871 24.7688 22.445 24.5792 22.7825 24.2416C23.1201 23.904 23.3097 23.4462 23.3097 22.9688V13.5008C23.3097 13.0234 23.1201 12.5655 22.7825 12.228C22.445 11.8904 21.9871 11.7008 21.5097 11.7008H8.9998Z" fill="white"/>
<path d="M19.8592 11.7006C19.5409 11.7006 19.2358 11.5742 19.0108 11.3492C18.7857 11.1241 18.6592 10.8188 18.6592 10.5006V8.99458C18.6785 8.5354 18.6047 8.07714 18.4423 7.64722C18.2798 7.2173 18.0322 6.82464 17.7141 6.49292C17.396 6.1612 17.0142 5.89716 16.5914 5.71685C16.1687 5.53653 15.7139 5.44365 15.2543 5.44365C14.7947 5.44365 14.3398 5.53653 13.9171 5.71685C13.4943 5.89716 13.1125 6.1612 12.7944 6.49292C12.4763 6.82464 12.2287 7.2173 12.0662 7.64722C11.9038 8.07714 11.83 8.5354 11.8493 8.99458V10.5186C11.8493 10.8369 11.7228 11.142 11.4977 11.367C11.2727 11.5921 10.9676 11.7186 10.6493 11.7186C10.331 11.7186 10.0258 11.5921 9.80071 11.367C9.57566 11.142 9.44929 10.8369 9.44929 10.5186V8.99458C9.42427 8.21655 9.55583 7.44143 9.8363 6.71528C10.1168 5.98914 10.5403 5.32683 11.0819 4.76763C11.6234 4.20842 12.2719 3.76377 12.9886 3.46011C13.7054 3.15645 14.4759 3 15.2543 3C16.0327 3 16.8032 3.15645 17.52 3.46011C18.2367 3.76377 18.8851 4.20842 19.4266 4.76763C19.9681 5.32683 20.3917 5.98914 20.6722 6.71528C20.9527 7.44143 21.0842 8.21655 21.0592 8.99458V10.5186C21.0545 10.8337 20.926 11.1343 20.7015 11.3555C20.477 11.5766 20.1744 11.7006 19.8592 11.7006Z" fill="white"/>
<path d="M15.2576 21.0243C14.9394 21.0243 14.6341 20.8978 14.409 20.6727C14.184 20.4477 14.0576 20.1425 14.0576 19.8243V16.3563C14.0576 16.038 14.184 15.7327 14.409 15.5077C14.6341 15.2826 14.9394 15.1562 15.2576 15.1562C15.5759 15.1562 15.8812 15.2826 16.1062 15.5077C16.3312 15.7327 16.4576 16.038 16.4576 16.3563V19.8243C16.4576 20.1425 16.3312 20.4477 16.1062 20.6727C15.8812 20.8978 15.5759 21.0243 15.2576 21.0243Z" fill="white"/>
</svg>
