<svg width="30" height="30" viewBox="0 0 30 30" fill="none" xmlns="http://www.w3.org/2000/svg">
<path d="M15.3629 11.4286C14.6053 11.3559 13.8432 11.5125 13.1808 11.8771C12.5184 12.2417 11.9882 12.7963 11.6626 13.4652C11.3371 14.134 11.2322 14.8843 11.3623 15.6133C11.4923 16.3423 11.8511 17.0145 12.3893 17.5377C12.9276 18.0609 13.619 18.4096 14.369 18.536C15.119 18.6624 15.8909 18.5605 16.579 18.244C17.2671 17.9276 17.8377 17.4121 18.2128 16.7683C18.5878 16.1244 18.749 15.3836 18.6742 14.6473C18.5889 13.8219 18.2126 13.0505 17.6091 12.4639C17.0056 11.8773 16.212 11.5115 15.3629 11.4286V11.4286ZM24.2526 15C24.2503 15.3901 24.2208 15.7796 24.1644 16.1658L26.7725 18.1542C26.886 18.2457 26.9626 18.3734 26.9884 18.5146C27.0143 18.6557 26.9879 18.8012 26.9138 18.9252L24.4465 23.0748C24.3715 23.1976 24.2544 23.2907 24.1157 23.3378C23.9771 23.3849 23.8257 23.3829 23.6884 23.3321L21.0982 22.3183C20.9554 22.263 20.8007 22.2431 20.6479 22.2602C20.4952 22.2773 20.3492 22.331 20.2231 22.4164C19.8278 22.6811 19.4124 22.9161 18.9805 23.1196C18.8447 23.1838 18.7273 23.2794 18.6385 23.3982C18.5498 23.5169 18.4925 23.655 18.4717 23.8004L18.0834 26.4858C18.0579 26.6276 17.9826 26.7564 17.8702 26.8502C17.7578 26.944 17.6154 26.997 17.4673 27H12.5327C12.387 26.9976 12.2466 26.947 12.1345 26.8565C12.0224 26.7661 11.9453 26.6413 11.916 26.5026L11.5283 23.8211C11.5065 23.6742 11.4478 23.5347 11.3572 23.4152C11.2666 23.2956 11.147 23.1997 11.0091 23.1359C10.5777 22.9335 10.1637 22.6978 9.77113 22.431C9.64542 22.346 9.49993 22.2927 9.34776 22.276C9.19559 22.2593 9.04153 22.2796 8.89946 22.3351L6.30982 23.3484C6.17259 23.3992 6.02131 23.4013 5.88265 23.3543C5.74398 23.3073 5.62682 23.2143 5.5518 23.0916L3.08447 18.9421C3.01029 18.8181 2.98378 18.6725 3.00966 18.5313C3.03554 18.3902 3.11214 18.2625 3.2258 18.171L5.43008 16.4888C5.55084 16.3956 5.64575 16.2746 5.7062 16.1367C5.76664 15.9988 5.79071 15.8485 5.77621 15.6993C5.75544 15.4654 5.74275 15.2321 5.74275 14.9983C5.74275 14.7645 5.75486 14.5346 5.77621 14.3058C5.78912 14.1575 5.76388 14.0084 5.70275 13.8719C5.64162 13.7355 5.54653 13.616 5.42604 13.5241L3.22292 11.8419C3.1111 11.75 3.03612 11.6227 3.01112 11.4825C2.98612 11.3422 3.0127 11.1979 3.0862 11.0748L5.55353 6.92523C5.62846 6.80242 5.74558 6.70927 5.88426 6.66218C6.02293 6.61509 6.17426 6.6171 6.31156 6.66785L8.90176 7.68168C9.0446 7.73696 9.19932 7.75694 9.35205 7.73981C9.50478 7.72268 9.65076 7.66899 9.7769 7.58355C10.1722 7.31895 10.5876 7.08388 11.0195 6.88037C11.1553 6.81622 11.2727 6.72056 11.3615 6.60184C11.4502 6.48311 11.5075 6.34498 11.5283 6.19963L11.9166 3.51421C11.9421 3.37238 12.0174 3.24357 12.1298 3.14978C12.2422 3.05599 12.3846 3.00305 12.5327 3H17.4673C17.613 3.00245 17.7534 3.05305 17.8655 3.14346C17.9776 3.23387 18.0547 3.3587 18.084 3.49738L18.4717 6.17888C18.4935 6.32583 18.5522 6.46528 18.6428 6.58482C18.7334 6.70437 18.853 6.80031 18.9909 6.86411C19.4223 7.06652 19.8363 7.30223 20.2289 7.56897C20.3546 7.65399 20.5001 7.70727 20.6522 7.72401C20.8044 7.74075 20.9585 7.72042 21.1005 7.66486L23.6902 6.65159C23.8274 6.60079 23.9787 6.5987 24.1174 6.64568C24.256 6.69266 24.3732 6.7857 24.4482 6.90841L26.9155 11.0579C26.9897 11.1819 27.0162 11.3275 26.9903 11.4687C26.9645 11.6098 26.8879 11.7375 26.7742 11.829L24.5699 13.5112C24.4486 13.6041 24.3532 13.725 24.2922 13.8629C24.2313 14.0008 24.2067 14.1513 24.2209 14.3007C24.2399 14.5329 24.2526 14.7662 24.2526 15Z" stroke="white" stroke-width="2.5" stroke-linecap="round" stroke-linejoin="round"/>
</svg>
