<svg width="30" height="30" viewBox="0 0 30 30" fill="none" xmlns="http://www.w3.org/2000/svg">
<path d="M23.4 24.6548H6.6C5.64522 24.6548 4.72953 24.2755 4.05439 23.6004C3.37926 22.9252 3 22.0096 3 21.0548V16.9568C3 16.6385 3.12645 16.3333 3.35149 16.1083C3.57653 15.8832 3.88174 15.7568 4.2 15.7568C4.51826 15.7568 4.82347 15.8832 5.04851 16.1083C5.27355 16.3333 5.4 16.6385 5.4 16.9568V21.0548C5.4 21.373 5.52645 21.6783 5.75149 21.9033C5.97653 22.1284 6.28174 22.2548 6.6 22.2548H23.4C23.7183 22.2548 24.0235 22.1284 24.2485 21.9033C24.4736 21.6783 24.6 21.373 24.6 21.0548V11.1488C24.6 10.8305 24.4736 10.5253 24.2485 10.3002C24.0235 10.0752 23.7183 9.94877 23.4 9.94877H17.43C16.4961 9.94812 15.5989 9.58453 14.928 8.93477L13.494 7.54279C13.2695 7.32329 12.9679 7.20051 12.654 7.20078H6.6C6.28174 7.20078 5.97653 7.32721 5.75149 7.55225C5.52645 7.7773 5.4 8.08252 5.4 8.40078V17.4008C5.4 17.719 5.27355 18.0243 5.04851 18.2493C4.82347 18.4744 4.51826 18.6008 4.2 18.6008C3.88174 18.6008 3.57653 18.4744 3.35149 18.2493C3.12645 18.0243 3 17.719 3 17.4008L3 8.40078C3 7.446 3.37926 6.53032 4.05439 5.85519C4.72953 5.18006 5.64522 4.80078 6.6 4.80078H12.654C13.5909 4.80148 14.4906 5.16738 15.162 5.82077L16.596 7.21277C16.82 7.42863 17.119 7.54909 17.43 7.54877H23.4C24.3548 7.54877 25.2705 7.92805 25.9456 8.60319C26.6207 9.27832 27 10.194 27 11.1488V21.0548C27 22.0096 26.6207 22.9252 25.9456 23.6004C25.2705 24.2755 24.3548 24.6548 23.4 24.6548Z" fill="white"/>
</svg>
