<svg width="30" height="30" viewBox="0 0 30 30" fill="none" xmlns="http://www.w3.org/2000/svg">
<path d="M25.8971 8.00258H9.2845C8.94175 8.00258 8.61315 7.86649 8.37079 7.62414C8.12844 7.38178 7.99219 7.05302 7.99219 6.71028C7.99219 6.36754 8.12844 6.03885 8.37079 5.7965C8.61315 5.55414 8.94175 5.41797 9.2845 5.41797H25.8971C26.2398 5.41797 26.5686 5.55414 26.8109 5.7965C27.0533 6.03885 27.1894 6.36754 27.1894 6.71028C27.1894 7.05302 27.0533 7.38178 26.8109 7.62414C26.5686 7.86649 26.2398 8.00258 25.8971 8.00258Z" fill="white"/>
<path d="M3.61534 8.23077C3.29585 8.23077 2.98353 8.13608 2.71788 7.95858C2.45224 7.78108 2.24519 7.52879 2.12293 7.23362C2.00066 6.93844 1.96872 6.61362 2.03105 6.30027C2.09338 5.98691 2.24726 5.69908 2.47317 5.47316C2.69909 5.24724 2.98692 5.09337 3.30028 5.03104C3.61363 4.96871 3.9384 5.0007 4.23357 5.12297C4.52874 5.24523 4.78103 5.45228 4.95853 5.71793C5.13603 5.98358 5.23077 6.2959 5.23077 6.61539C5.23077 7.04382 5.06057 7.45473 4.75762 7.75767C4.45468 8.06062 4.04377 8.23077 3.61534 8.23077ZM3.61534 5.54592C3.40382 5.54592 3.19713 5.60866 3.02126 5.72618C2.84539 5.84369 2.70826 6.01073 2.62732 6.20615C2.54637 6.40157 2.5252 6.6166 2.56647 6.82405C2.60773 7.03151 2.70957 7.22208 2.85914 7.37165C3.00871 7.52122 3.19923 7.62306 3.40668 7.66432C3.61414 7.70559 3.82927 7.68442 4.02469 7.60347C4.22011 7.52253 4.38709 7.38546 4.50461 7.20958C4.62212 7.03371 4.68486 6.82691 4.68486 6.61539C4.68486 6.47495 4.65722 6.3359 4.60348 6.20615C4.54973 6.0764 4.47085 5.95849 4.37155 5.85918C4.27224 5.75987 4.15444 5.68111 4.02469 5.62736C3.89494 5.57362 3.75579 5.54592 3.61534 5.54592Z" fill="white"/>
<path d="M3.61534 5.54592C3.40382 5.54592 3.19713 5.60866 3.02126 5.72618C2.84539 5.84369 2.70826 6.01073 2.62732 6.20615C2.54637 6.40157 2.5252 6.6166 2.56647 6.82405C2.60773 7.03151 2.70957 7.22208 2.85914 7.37165C3.00871 7.52122 3.19923 7.62306 3.40668 7.66432C3.61414 7.70559 3.82927 7.68442 4.02469 7.60347C4.22011 7.52253 4.38709 7.38546 4.50461 7.20958C4.62212 7.03371 4.68486 6.82691 4.68486 6.61539C4.68486 6.47495 4.65722 6.3359 4.60348 6.20615C4.54973 6.0764 4.47085 5.95849 4.37155 5.85918C4.27224 5.75987 4.15444 5.68111 4.02469 5.62736C3.89494 5.57362 3.75579 5.54592 3.61534 5.54592Z" fill="white"/>
<path d="M3.61534 16.2933C3.29585 16.2933 2.98353 16.1986 2.71788 16.0211C2.45224 15.8436 2.24519 15.5913 2.12293 15.2961C2.00066 15.0009 1.96872 14.6761 2.03105 14.3628C2.09338 14.0494 2.24726 13.7616 2.47317 13.5357C2.69909 13.3097 2.98692 13.1559 3.30028 13.0935C3.61363 13.0312 3.9384 13.0632 4.23357 13.1855C4.52874 13.3077 4.78103 13.5148 4.95853 13.7804C5.13603 14.0461 5.23077 14.3584 5.23077 14.6779C5.23077 15.1063 5.06057 15.5172 4.75762 15.8202C4.45468 16.1231 4.04377 16.2933 3.61534 16.2933ZM3.61534 13.6084C3.40382 13.6084 3.19713 13.6712 3.02126 13.7887C2.84539 13.9062 2.70826 14.0732 2.62732 14.2687C2.54637 14.4641 2.5252 14.6791 2.56647 14.8866C2.60773 15.094 2.70957 15.2846 2.85914 15.4342C3.00871 15.5837 3.19923 15.6856 3.40668 15.7268C3.61414 15.7681 3.82927 15.7469 4.02469 15.666C4.22011 15.585 4.38709 15.448 4.50461 15.2721C4.62212 15.0962 4.68486 14.8894 4.68486 14.6779C4.68486 14.5374 4.65722 14.3984 4.60348 14.2687C4.54973 14.1389 4.47085 14.021 4.37155 13.9217C4.27224 13.8224 4.15444 13.7436 4.02469 13.6899C3.89494 13.6361 3.75579 13.6084 3.61534 13.6084Z" fill="white"/>
<path d="M3.61534 13.6084C3.40382 13.6084 3.19713 13.6712 3.02126 13.7887C2.84539 13.9062 2.70826 14.0732 2.62732 14.2687C2.54637 14.4641 2.5252 14.6791 2.56647 14.8866C2.60773 15.094 2.70957 15.2846 2.85914 15.4342C3.00871 15.5837 3.19923 15.6856 3.40668 15.7268C3.61414 15.7681 3.82927 15.7469 4.02469 15.666C4.22011 15.585 4.38709 15.448 4.50461 15.2721C4.62212 15.0962 4.68486 14.8894 4.68486 14.6779C4.68486 14.5374 4.65722 14.3984 4.60348 14.2687C4.54973 14.1389 4.47085 14.021 4.37155 13.9217C4.27224 13.8224 4.15444 13.7436 4.02469 13.6899C3.89494 13.6361 3.75579 13.6084 3.61534 13.6084Z" fill="white"/>
<path d="M3.61534 24.2308C3.29585 24.2308 2.98353 24.1361 2.71788 23.9586C2.45224 23.7811 2.24519 23.5288 2.12293 23.2337C2.00066 22.9385 1.96872 22.6137 2.03105 22.3003C2.09338 21.987 2.24726 21.6991 2.47317 21.4732C2.69909 21.2473 2.98692 21.0934 3.30028 21.0311C3.61363 20.9687 3.9384 21.0007 4.23357 21.123C4.52874 21.2453 4.78103 21.4523 4.95853 21.718C5.13603 21.9836 5.23077 22.2959 5.23077 22.6154C5.23077 23.0439 5.06057 23.4548 4.75762 23.7577C4.45468 24.0607 4.04377 24.2308 3.61534 24.2308ZM3.61534 21.546C3.40382 21.546 3.19713 21.6087 3.02126 21.7262C2.84539 21.8437 2.70826 22.0108 2.62732 22.2062C2.54637 22.4016 2.5252 22.6166 2.56647 22.8241C2.60773 23.0315 2.70957 23.2221 2.85914 23.3717C3.00871 23.5213 3.19923 23.6231 3.40668 23.6644C3.61414 23.7056 3.82927 23.6845 4.02469 23.6035C4.22011 23.5226 4.38709 23.3855 4.50461 23.2096C4.62212 23.0337 4.68486 22.8269 4.68486 22.6154C4.68486 22.475 4.65722 22.3359 4.60348 22.2062C4.54973 22.0764 4.47085 21.9585 4.37155 21.8592C4.27224 21.7599 4.15444 21.6811 4.02469 21.6274C3.89494 21.5737 3.75579 21.546 3.61534 21.546Z" fill="white"/>
<path d="M3.61534 21.546C3.40382 21.546 3.19713 21.6087 3.02126 21.7262C2.84539 21.8437 2.70826 22.0108 2.62732 22.2062C2.54637 22.4016 2.5252 22.6166 2.56647 22.8241C2.60773 23.0315 2.70957 23.2221 2.85914 23.3717C3.00871 23.5213 3.19923 23.6231 3.40668 23.6644C3.61414 23.7056 3.82927 23.6845 4.02469 23.6035C4.22011 23.5226 4.38709 23.3855 4.50461 23.2096C4.62212 23.0337 4.68486 22.8269 4.68486 22.6154C4.68486 22.475 4.65722 22.3359 4.60348 22.2062C4.54973 22.0764 4.47085 21.9585 4.37155 21.8592C4.27224 21.7599 4.15444 21.6811 4.02469 21.6274C3.89494 21.5737 3.75579 21.546 3.61534 21.546Z" fill="white"/>
<path d="M25.8971 16.0729H9.2845C8.94175 16.0729 8.61315 15.9367 8.37079 15.6944C8.12844 15.452 7.99219 15.1233 7.99219 14.7806C7.99219 14.4378 8.12844 14.1092 8.37079 13.8668C8.61315 13.6245 8.94175 13.4883 9.2845 13.4883H25.8971C26.2398 13.4883 26.5686 13.6245 26.8109 13.8668C27.0533 14.1092 27.1894 14.4378 27.1894 14.7806C27.1894 15.1233 27.0533 15.452 26.8109 15.6944C26.5686 15.9367 26.2398 16.0729 25.8971 16.0729Z" fill="white"/>
<path d="M25.8961 23.9987H9.28352C8.94078 23.9987 8.61217 23.8625 8.36982 23.6201C8.12746 23.3778 7.99121 23.0491 7.99121 22.7064C7.99121 22.3636 8.12746 22.0349 8.36982 21.7925C8.61217 21.5502 8.94078 21.4141 9.28352 21.4141H25.8961C26.2388 21.4141 26.5676 21.5502 26.81 21.7925C27.0523 22.0349 27.1884 22.3636 27.1884 22.7064C27.1884 23.0491 27.0523 23.3778 26.81 23.6201C26.5676 23.8625 26.2388 23.9987 25.8961 23.9987Z" fill="white"/>
</svg>
