<svg width="20" height="21" viewBox="0 0 20 21" fill="none" xmlns="http://www.w3.org/2000/svg">
<path d="M19 8.35015H1C0.734784 8.35015 0.480505 8.24472 0.292969 8.05718C0.105432 7.86964 0 7.61536 0 7.35014V1.00001C0 0.734788 0.105432 0.480508 0.292969 0.292971C0.480505 0.105433 0.734784 0 1 0H19C19.2652 0 19.5196 0.105433 19.7072 0.292971C19.8947 0.480508 20 0.734788 20 1.00001V7.35014C20 7.61536 19.8947 7.86964 19.7072 8.05718C19.5196 8.24472 19.2652 8.35015 19 8.35015ZM2 6.35014H18V2.00001H2V6.35014Z" fill="#BFBFBF"/>
<path d="M19 20.0019H1C0.734784 20.0019 0.480505 19.8966 0.292969 19.709C0.105432 19.5215 0 19.2671 0 19.0019V12.6719C0 12.4067 0.105432 12.1523 0.292969 11.9647C0.480505 11.7772 0.734784 11.6719 1 11.6719H19C19.2652 11.6719 19.5196 11.7772 19.7072 11.9647C19.8947 12.1523 20 12.4067 20 12.6719V19.0219C19.9948 19.2836 19.8872 19.5329 19.7002 19.7161C19.5132 19.8993 19.2618 20.0019 19 20.0019ZM2 18.0019H18V13.6719H2V18.0019Z" fill="#BFBFBF"/>
</svg>
