<svg width="18" height="18" viewBox="0 0 18 18" fill="none" xmlns="http://www.w3.org/2000/svg">
<path d="M6.97324 6.18302C6.8548 6.18371 6.73738 6.16101 6.62772 6.11622C6.51807 6.07144 6.41837 6.0054 6.33428 5.92199L3.93574 3.52351L1.53721 5.92199C1.45359 6.00561 1.35433 6.07196 1.24508 6.11721C1.13583 6.16247 1.01869 6.18577 0.900439 6.18577C0.782184 6.18577 0.665162 6.16247 0.555908 6.11721C0.446654 6.07196 0.347401 6.00561 0.263782 5.92199C0.180163 5.83837 0.113809 5.73911 0.0685547 5.62986C0.0233003 5.52061 0 5.40353 0 5.28527C0 5.16702 0.0233003 5.04989 0.0685547 4.94063C0.113809 4.83138 0.180163 4.73212 0.263782 4.64851L3.30128 1.61551C3.38487 1.53183 3.48404 1.46546 3.5933 1.42017C3.70256 1.37488 3.81967 1.35156 3.93794 1.35156C4.05621 1.35156 4.17343 1.37488 4.28269 1.42017C4.39195 1.46546 4.49112 1.53183 4.57471 1.61551L7.6077 4.64851C7.69138 4.73209 7.75786 4.83137 7.80315 4.94063C7.84844 5.04989 7.8717 5.167 7.8717 5.28527C7.8717 5.40355 7.84844 5.52066 7.80315 5.62991C7.75786 5.73917 7.69138 5.8384 7.6077 5.92199C7.43896 6.08935 7.21091 6.18321 6.97324 6.18302Z" fill="#BFBFBF"/>
<path d="M3.93613 16.3186C3.69744 16.3186 3.46848 16.2237 3.29969 16.0549C3.13091 15.8862 3.03613 15.6573 3.03613 15.4186V2.25156C3.03613 2.01287 3.13091 1.78391 3.29969 1.61512C3.46848 1.44634 3.69744 1.35156 3.93613 1.35156C4.17483 1.35156 4.40379 1.44634 4.57257 1.61512C4.74135 1.78391 4.83613 2.01287 4.83613 2.25156V15.4186C4.83613 15.6573 4.74135 15.8862 4.57257 16.0549C4.40379 16.2237 4.17483 16.3186 3.93613 16.3186Z" fill="#BFBFBF"/>
<path d="M14.0611 16.3202C13.8228 16.3192 13.5947 16.2236 13.4267 16.0546L10.3937 13.0216C10.31 12.938 10.2437 12.8388 10.1984 12.7295C10.1532 12.6203 10.1299 12.5032 10.1299 12.3849C10.1299 12.2667 10.1532 12.1495 10.1984 12.0403C10.2437 11.931 10.31 11.8318 10.3937 11.7482C10.4773 11.6645 10.5765 11.5982 10.6858 11.5529C10.795 11.5077 10.9121 11.4844 11.0303 11.4844C11.1486 11.4844 11.2657 11.5077 11.375 11.5529C11.4842 11.5982 11.5835 11.6645 11.6671 11.7482L14.0611 14.1466L16.4597 11.7482C16.6285 11.5793 16.8576 11.4844 17.0964 11.4844C17.3353 11.4844 17.5642 11.5793 17.7331 11.7482C17.902 11.917 17.9969 12.1461 17.9969 12.3849C17.9969 12.6238 17.902 12.8528 17.7331 13.0216L14.7001 16.0546C14.6164 16.1389 14.5169 16.2057 14.4072 16.2513C14.2975 16.2969 14.1799 16.3203 14.0611 16.3202Z" fill="#BFBFBF"/>
<path d="M14.0611 16.3186C13.8224 16.3186 13.5935 16.2237 13.4247 16.0549C13.2559 15.8862 13.1611 15.6573 13.1611 15.4186V2.25156C13.1611 2.01287 13.2559 1.78391 13.4247 1.61512C13.5935 1.44634 13.8224 1.35156 14.0611 1.35156C14.2998 1.35156 14.5288 1.44634 14.6976 1.61512C14.8664 1.78391 14.9611 2.01287 14.9611 2.25156V15.4186C14.9611 15.6573 14.8664 15.8862 14.6976 16.0549C14.5288 16.2237 14.2998 16.3186 14.0611 16.3186Z" fill="#BFBFBF"/>
</svg>
