<svg width="20" height="21" viewBox="0 0 20 21" fill="none" xmlns="http://www.w3.org/2000/svg">
<path d="M7.34999 8.3502H1C0.734785 8.3502 0.480445 8.24476 0.292908 8.05722C0.105372 7.86969 0 7.6154 0 7.35018V1.00001C0 0.734792 0.105372 0.480511 0.292908 0.292972C0.480445 0.105434 0.734785 0 1 0H7.34999C7.6152 0 7.8696 0.105434 8.05714 0.292972C8.24468 0.480511 8.34999 0.734792 8.34999 1.00001V7.35018C8.34999 7.6154 8.24468 7.86969 8.05714 8.05722C7.8696 8.24476 7.6152 8.3502 7.34999 8.3502ZM2 6.35017H6.34999V2.00002H2V6.35017Z" fill="#BFBFBF"/>
<path d="M7.34999 20.0019H1C0.734785 20.0019 0.480445 19.8966 0.292908 19.7091C0.105372 19.5215 0 19.2671 0 19.0019V12.6719C0 12.4067 0.105372 12.1523 0.292908 11.9647C0.480445 11.7772 0.734785 11.6719 1 11.6719H7.34999C7.6152 11.6719 7.8696 11.7772 8.05714 11.9647C8.24468 12.1523 8.34999 12.4067 8.34999 12.6719V19.0219C8.34475 19.2837 8.23709 19.5329 8.05012 19.7162C7.86315 19.8994 7.61177 20.002 7.34999 20.0019ZM2 18.0019H6.34999V13.6719H2V18.0019Z" fill="#BFBFBF"/>
<path d="M18.9994 8.3502H12.6494C12.3842 8.3502 12.1298 8.24476 11.9423 8.05722C11.7547 7.86969 11.6494 7.6154 11.6494 7.35018V1.00001C11.6494 0.734792 11.7547 0.480511 11.9423 0.292972C12.1298 0.105434 12.3842 0 12.6494 0H18.9994C19.2646 0 19.519 0.105434 19.7065 0.292972C19.894 0.480511 19.9994 0.734792 19.9994 1.00001V7.35018C19.9994 7.6154 19.894 7.86969 19.7065 8.05722C19.519 8.24476 19.2646 8.3502 18.9994 8.3502ZM13.6494 6.35017H17.9994V2.00002H13.6494V6.35017Z" fill="#BFBFBF"/>
<path d="M18.9994 20.0019H12.6494C12.3842 20.0019 12.1298 19.8966 11.9423 19.7091C11.7547 19.5215 11.6494 19.2671 11.6494 19.0019V12.6719C11.6494 12.4067 11.7547 12.1523 11.9423 11.9647C12.1298 11.7772 12.3842 11.6719 12.6494 11.6719H18.9994C19.2646 11.6719 19.519 11.7772 19.7065 11.9647C19.894 12.1523 19.9994 12.4067 19.9994 12.6719V19.0219C19.9942 19.2837 19.8865 19.5329 19.6995 19.7162C19.5126 19.8994 19.2612 20.002 18.9994 20.0019ZM13.6494 18.0019H17.9994V13.6719H13.6494V18.0019Z" fill="#BFBFBF"/>
</svg>
