<svg width="20" height="20" viewBox="0 0 20 20" fill="none" xmlns="http://www.w3.org/2000/svg">
<path d="M19 5H1C0.734784 5 0.480505 4.89457 0.292969 4.70703C0.105432 4.51949 0 4.26521 0 3.99999L0 1.00001C0 0.734788 0.105432 0.480508 0.292969 0.292971C0.480505 0.105433 0.734784 0 1 0H19C19.2652 0 19.5196 0.105433 19.7072 0.292971C19.8947 0.480508 20 0.734788 20 1.00001V3.99999C20 4.26521 19.8947 4.51949 19.7072 4.70703C19.5196 4.89457 19.2652 5 19 5ZM2 2.99999H18V2.00001H2V2.99999Z" fill="#BFBFBF"/>
<path d="M19 12.5H1C0.734784 12.5 0.480505 12.3946 0.292969 12.207C0.105432 12.0195 0 11.7652 0 11.5L0 8.50001C0 8.23479 0.105432 7.98051 0.292969 7.79297C0.480505 7.60543 0.734784 7.5 1 7.5H19C19.2652 7.5 19.5196 7.60543 19.7072 7.79297C19.8947 7.98051 20 8.23479 20 8.50001V11.5C20 11.7652 19.8947 12.0195 19.7072 12.207C19.5196 12.3946 19.2652 12.5 19 12.5ZM2 10.5H18V9.50001H2V10.5Z" fill="#BFBFBF"/>
<path d="M19 20H1C0.734784 20 0.480505 19.8946 0.292969 19.707C0.105432 19.5195 0 19.2652 0 19L0 16C0 15.7348 0.105432 15.4805 0.292969 15.293C0.480505 15.1054 0.734784 15 1 15H19C19.2652 15 19.5196 15.1054 19.7072 15.293C19.8947 15.4805 20 15.7348 20 16V19C20 19.2652 19.8947 19.5195 19.7072 19.707C19.5196 19.8946 19.2652 20 19 20ZM2 18H18V17H2V18Z" fill="#BFBFBF"/>
</svg>
